<mxfile host="65bd71144e">
    <diagram id="YmMKs4G4uMP6UtKd9GQX" name="Page-1">
        <mxGraphModel dx="2740" dy="1288" grid="1" gridSize="10" guides="1" tooltips="1" connect="1" arrows="1" fold="1" page="1" pageScale="1" pageWidth="850" pageHeight="1100" background="#ffffff" math="0" shadow="0">
            <root>
                <mxCell id="0"/>
                <mxCell id="1" parent="0"/>
                <mxCell id="13" value="" style="shape=image;verticalLabelPosition=bottom;labelBackgroundColor=default;verticalAlign=top;aspect=fixed;imageAspect=0;image=data:image/svg+xml,PHN2ZyB4bWxuczp4bGluaz0iaHR0cDovL3d3dy53My5vcmcvMTk5OS94bGluayIgeG1sbnM9Imh0dHA6Ly93d3cudzMub3JnLzIwMDAvc3ZnIiB4bWw6c3BhY2U9InByZXNlcnZlIiBzdHlsZT0iZW5hYmxlLWJhY2tncm91bmQ6bmV3IDAgMCAxMjIuODggMTAwLjMzIiB2aWV3Qm94PSIwIDAgMTIyLjg4IDEwMC4zMyIgeT0iMHB4IiB4PSIwcHgiIGlkPSJMYXllcl8xIiB2ZXJzaW9uPSIxLjEiPjxzdHlsZSB0eXBlPSJ0ZXh0L2NzcyI+Cgkuc3Qwe2ZpbGwtcnVsZTpldmVub2RkO2NsaXAtcnVsZTpldmVub2RkO30KPC9zdHlsZT48Zz48cGF0aCBkPSJNMTAyLjc5LDcuMTFsMi41OSwzLjQxYzAuNjgsMC45LDAuNTEsMi4xOS0wLjM5LDIuODdsLTIuNzUsMi4wOWMwLjUsMS4zMywwLjgyLDIuNzUsMC45NSw0LjJsMy4xMywwLjQzIGMxLjEyLDAuMTUsMS45LDEuMTksMS43NSwyLjMxbC0wLjU4LDQuMjVjLTAuMTUsMS4xMi0xLjE5LDEuOTEtMi4zMSwxLjc1bC0zLjQyLTAuNDdjLTAuNjEsMS4zMy0xLjM5LDIuNTUtMi4zMSwzLjY0bDEuOTIsMi41MiBjMC42OCwwLjksMC41LDIuMTktMC40LDIuODdsLTMuNDEsMi41OWMtMC45LDAuNjgtMi4xOSwwLjUtMi44Ny0wLjM5bC0yLjA5LTIuNzVjLTEuMzQsMC41LTIuNzUsMC44Mi00LjIxLDAuOTVsLTAuNDMsMy4xMyBjLTAuMTUsMS4xMi0xLjE5LDEuOS0yLjMxLDEuNzVsLTQuMjUtMC41OGMtMS4xMi0wLjE1LTEuOS0xLjE5LTEuNzUtMi4zMWwwLjQ3LTMuNDJjLTEuMzItMC42MS0yLjU1LTEuMzktMy42NC0yLjNsLTIuNTIsMS45MSBjLTAuOSwwLjY4LTIuMTksMC41MS0yLjg3LTAuMzlsLTIuNTktMy40MWMtMC42OC0wLjktMC41MS0yLjE5LDAuMzktMi44N2wyLjc1LTIuMDljLTAuNS0xLjM0LTAuODItMi43NS0wLjk1LTQuMmwtMy4xMy0wLjQzIGMtMS4xMi0wLjE1LTEuOTEtMS4xOS0xLjc1LTIuMzFsMC41OC00LjI1YzAuMTYtMS4xMiwxLjE5LTEuOSwyLjMxLTEuNzVsMy40MiwwLjQ3YzAuNjEtMS4zMiwxLjM5LTIuNTUsMi4zLTMuNjRsLTEuOTEtMi41MiBDNzEuODMsNy4yOCw3Miw1Ljk5LDcyLjksNS4zMWwzLjQxLTIuNTljMC45LTAuNjgsMi4xOS0wLjUxLDIuODcsMC4zOWwyLjA5LDIuNzVjMS4zMy0wLjUsMi43NS0wLjgyLDQuMi0wLjk1bDAuNDMtMy4xMyBjMC4xNS0xLjEyLDEuMTktMS45MSwyLjMxLTEuNzZsNC4yNSwwLjU4YzEuMTIsMC4xNSwxLjkxLDEuMTksMS43NSwyLjMxbC0wLjQ3LDMuNDJjMS4zMywwLjYxLDIuNTUsMS4zOSwzLjY1LDIuMzFsMi41Mi0xLjkxIEMxMDAuODEsNi4wNCwxMDIuMSw2LjIxLDEwMi43OSw3LjExTDEwMi43OSw3LjExTDEwMi43OSw3LjExeiBNMjkuNjcsNjcuMTJ2LTE2LjVoOC41YzEuNTgsMCwyLjc4LDAuMTMsMy42MSwwLjQxIGMwLjgzLDAuMjcsMS41MSwwLjc3LDIuMDEsMS41YzAuNTEsMC43NCwwLjc3LDEuNjMsMC43NywyLjY4YzAsMC45MS0wLjIsMS43MS0wLjU5LDIuMzdjLTAuMzksMC42Ny0wLjkzLDEuMjEtMS42MSwxLjYyIGMtMC40MywwLjI2LTEuMDMsMC40OC0xLjc5LDAuNjVjMC42MSwwLjIxLDEuMDUsMC40LDEuMzIsMC42MWMwLjE5LDAuMTQsMC40NiwwLjQzLDAuODEsMC44N2MwLjM1LDAuNDQsMC41OSwwLjc5LDAuNzEsMS4wMyBsMi40OCw0Ljc3aC01Ljc2bC0yLjcyLTUuMDNjLTAuMzUtMC42NS0wLjY1LTEuMDgtMC45Mi0xLjI3Yy0wLjM3LTAuMjUtMC43OS0wLjM4LTEuMjUtMC4zOGgtMC40NXY2LjY4SDI5LjY3TDI5LjY3LDY3LjEyeiBNNDcuNjUsOTUuODVoLTkuNTJsLTEuMzcsNC40OGgtOC41OGwxMC4yMy0yNy4xOWg5LjJsMTAuMTksMjcuMTloLTguOEw0Ny42NSw5NS44NUw0Ny42NSw5NS44NXogTTQ1Ljg3LDg5Ljk2bC0yLjk3LTkuNzggbC0yLjk4LDkuNzhINDUuODdMNDUuODcsODkuOTZ6IE01OS43OCw3My4xNGgxMy45OGMzLjA1LDAsNS4zMywwLjcyLDYuODQsMi4xN2MxLjUxLDEuNDUsMi4yNywzLjUyLDIuMjcsNi4xOSBjMCwyLjc1LTAuODMsNC45LTIuNDgsNi40NWMtMS42NSwxLjU1LTQuMTgsMi4zMi03LjU3LDIuMzJoLTQuNjF2MTAuMDZoLTguNDNWNzMuMTRMNTkuNzgsNzMuMTR6IE02OC4yMSw4NC43NmgyLjA3IGMxLjYzLDAsMi43OC0wLjI4LDMuNDQtMC44NWMwLjY2LTAuNTYsMC45OS0xLjI5LDAuOTktMi4xNmMwLTAuODUtMC4yOS0xLjU4LTAuODYtMi4xN2MtMC41Ny0wLjU5LTEuNjUtMC44OS0zLjIzLTAuODloLTIuNDEgVjg0Ljc2TDY4LjIxLDg0Ljc2eiBNODYuMjcsNzMuMTRoOC40M3YyNy4xOWgtOC40M1Y3My4xNEw4Ni4yNyw3My4xNHogTTM0Ljc5LDU3LjMyaDIuMTVjMC4yMywwLDAuNjgtMC4wOCwxLjM1LTAuMjMgYzAuMzQtMC4wNywwLjYyLTAuMjQsMC44My0wLjUyYzAuMjItMC4yOCwwLjMyLTAuNiwwLjMyLTAuOTZjMC0wLjUzLTAuMTctMC45NS0wLjUxLTEuMjNjLTAuMzQtMC4yOS0wLjk3LTAuNDMtMS45LTAuNDNoLTIuMjQgVjU3LjMyTDM0Ljc5LDU3LjMyeiBNNDYuODcsNTAuNjJoMTMuNjV2My41MmgtOC41M3YyLjYzaDcuOTF2My4zNmgtNy45MXYzLjI1aDguNzh2My43M2gtMTMuOVY1MC42Mkw0Ni44Nyw1MC42MnogTTYxLjk4LDYxLjY2IGw0Ljg0LTAuM2MwLjEsMC43OSwwLjMyLDEuMzgsMC42NCwxLjc5YzAuNTMsMC42NiwxLjI4LDEsMi4yNSwxYzAuNzIsMCwxLjI5LTAuMTcsMS42OC0wLjUxYzAuMzktMC4zNCwwLjU5LTAuNzQsMC41OS0xLjE5IGMwLTAuNDMtMC4xOS0wLjgxLTAuNTYtMS4xNWMtMC4zNy0wLjM0LTEuMjQtMC42NS0yLjYxLTAuOTZjLTIuMjMtMC41LTMuODItMS4xNy00Ljc4LTJjLTAuOTYtMC44My0xLjQ0LTEuODktMS40NC0zLjE4IGMwLTAuODUsMC4yNS0xLjY1LDAuNzQtMi40YzAuNDktMC43NSwxLjIzLTEuMzUsMi4yMi0xLjc4YzAuOTktMC40MywyLjM0LTAuNjQsNC4wNi0wLjY0YzIuMTEsMCwzLjcxLDAuMzksNC44MiwxLjE4IGMxLjEsMC43OSwxLjc2LDIuMDMsMS45NywzLjc1bC00Ljc5LDAuMjljLTAuMTMtMC43NS0wLjQtMS4zLTAuOC0xLjYzYy0wLjQxLTAuMzQtMC45OC0wLjUxLTEuNjktMC41MSBjLTAuNTksMC0xLjA0LDAuMTMtMS4zNCwwLjM4Yy0wLjMsMC4yNS0wLjQ1LDAuNTYtMC40NSwwLjkyYzAsMC4yNiwwLjEzLDAuNDksMC4zNywwLjcxYzAuMjQsMC4yMSwwLjgsMC40MiwxLjcsMC42MSBjMi4yMywwLjQ4LDMuODMsMC45Nyw0Ljc5LDEuNDZjMC45NiwwLjQ5LDEuNjcsMS4xLDIuMSwxLjgzYzAuNDQsMC43MiwwLjY2LDEuNTQsMC42NiwyLjQ0YzAsMS4wNi0wLjI5LDIuMDMtMC44OCwyLjkyIGMtMC41OCwwLjg5LTEuNCwxLjU3LTIuNDUsMi4wM2MtMS4wNSwwLjQ2LTIuMzcsMC42OS0zLjk3LDAuNjljLTIuOCwwLTQuNzUtMC41NC01LjgzLTEuNjJDNjIuNzQsNjQuNjksNjIuMTMsNjMuMzIsNjEuOTgsNjEuNjYgTDYxLjk4LDYxLjY2eiBNNzcuNjksNTAuNjJoMTUuNTF2NC4wOEg4OHYxMi40Mkg4Mi45VjU0LjdoLTUuMjFWNTAuNjJMNzcuNjksNTAuNjJ6IE02MC41MywxMS40NmMtMS44My0wLjE0LTMuNjgtMC4xMi01LjUxLDAuMDYgYy01LjYzLDAuNTQtMTEuMSwyLjU5LTE1LjYyLDYuMWMtNS4yMyw0LjA1LTkuMiwxMC4xMS0xMC43MywxOC4xNGwtMC40OCwyLjUxbC0yLjUsMC40NGMtMi40NSwwLjQzLTQuNjQsMS4wMi02LjU2LDEuNzcgYy0xLjg2LDAuNzItMy41MiwxLjYxLTQuOTcsMi42NmMtMS4xNiwwLjg0LTIuMTYsMS43OC0zLjAxLDIuOGMtMi42MywzLjE1LTMuODUsNy4xLTMuODIsMTEuMWMwLjAzLDQuMDYsMS4zNSw4LjE2LDMuNzksMTEuNTMgYzAuOTEsMS4yNSwxLjk2LDIuNCwzLjE2LDMuNGMxLjIyLDEuMDEsMi41OSwxLjg1LDQuMTMsMi40OGMwLjg3LDAuMzYsMS44LDAuNjYsMi43NywwLjl2Ny40OWMtMi0wLjM2LTMuODQtMC45LTUuNTYtMS42MSBjLTIuMjctMC45NC00LjI4LTIuMTUtNi4wNS0zLjYzYy0xLjY4LTEuNC0zLjE1LTIuOTktNC40LTQuNzJDMS44NCw2OC4yOCwwLjA0LDYyLjY2LDAsNTcuMDZjLTAuMDQtNS42NiwxLjcyLTExLjI5LDUuNTItMTUuODUgYzEuMjMtMS40OCwyLjY4LTIuODQsNC4zNC00LjA0YzEuOTMtMS40LDQuMTQtMi41OCw2LjY0LTMuNTVjMS43Mi0wLjY3LDMuNTYtMS4yMyw1LjUtMS42OGMyLjItOC43NCw2Ljg5LTE1LjQ3LDEyLjkyLTIwLjE0IGM1LjY0LTQuMzcsMTIuNDMtNi45MiwxOS40Mi03LjU5YzMuNjctMC4zNSw3LjM5LTAuMTksMTEuMDMsMC40OWMtMC4wOCwwLjMzLTAuMTUsMC42Ni0wLjE5LDFsLTAuMDEsMC4wNiBjLTAuMDcsMC41Ny0wLjEsMS4xNC0wLjA3LDEuNzJjLTAuNzcsMC4zLTEuNDksMC43MS0yLjE0LDEuMjFsLTAuMDMsMC4wMkM2MS45Niw5LjQ0LDYxLjE0LDEwLjM4LDYwLjUzLDExLjQ2TDYwLjUzLDExLjQ2eiBNMTEzLjQ0LDMwLjY2YzAuNTYsMC41MSwxLjEsMS4wNCwxLjYzLDEuNjFjMS4wNywxLjE1LDIuMDgsMi40NSwzLjAzLDMuOWMzLjIsNC45Miw0Ljg0LDExLjQ5LDQuNzcsMTcuOTIgYy0wLjA3LDYuMzEtMS43NywxMi41OS01LjI1LDE3LjIxYy0yLjI3LDMuMDEtNS4xOCw1LjQ3LTguNjcsNy40MmMtMi4zOSwxLjM0LTUuMDgsMi40NS04LjAxLDMuMzV2LTcuNzUgYzEuNTgtMC41OSwzLjA1LTEuMjUsNC40LTJjMi42My0xLjQ3LDQuNzgtMy4yNiw2LjM5LTUuNDFjMi41LTMuMzMsMy43My04LjA0LDMuNzgtMTIuODdjMC4wNi01LjA3LTEuMTgtMTAuMTYtMy41OS0xMy44NiBjLTAuNjktMS4wNy0xLjQ1LTIuMDMtMi4yNS0yLjg5Yy0wLjMxLTAuMzMtMC42Mi0wLjY0LTAuOTQtMC45NGMwLjA1LTAuNSwwLjA3LTEuMDEsMC4wNC0xLjUyYzAuNzctMC4zLDEuNDktMC43MSwyLjE0LTEuMjEgbDAuMDMtMC4wMkMxMTEuOTcsMzIuODEsMTEyLjgzLDMxLjgxLDExMy40NCwzMC42NkwxMTMuNDQsMzAuNjZ6IE04OC4wOCwxMi44YzQuNjEsMC42Myw3LjgzLDQuODgsNy4yLDkuNDkgYy0wLjYzLDQuNjEtNC44OCw3Ljg0LTkuNDksNy4yMWMtNC42MS0wLjYzLTcuODQtNC44OC03LjItOS40OUM3OS4yMywxNS40LDgzLjQ3LDEyLjE3LDg4LjA4LDEyLjhMODguMDgsMTIuOEw4OC4wOCwxMi44eiIgY2xhc3M9InN0MCIvPjwvZz48L3N2Zz4=;" vertex="1" parent="1">
                    <mxGeometry x="-160" y="200" width="123" height="100" as="geometry"/>
                </mxCell>
                <mxCell id="14" value="" style="rounded=1;whiteSpace=wrap;html=1;" vertex="1" parent="1">
                    <mxGeometry x="100" y="370" width="500" height="270" as="geometry"/>
                </mxCell>
                <mxCell id="22" style="edgeStyle=none;html=1;entryX=0.5;entryY=0;entryDx=0;entryDy=0;exitX=1;exitY=0.75;exitDx=0;exitDy=0;" edge="1" parent="1" source="13" target="19">
                    <mxGeometry relative="1" as="geometry">
                        <mxPoint x="10" y="310" as="sourcePoint"/>
                        <mxPoint x="150" y="390" as="targetPoint"/>
                    </mxGeometry>
                </mxCell>
                <mxCell id="16" value="" style="rounded=1;whiteSpace=wrap;html=1;" vertex="1" parent="1">
                    <mxGeometry x="710" y="370" width="120" height="280" as="geometry"/>
                </mxCell>
                <mxCell id="15" value="" style="shape=image;verticalLabelPosition=bottom;labelBackgroundColor=default;verticalAlign=top;aspect=fixed;imageAspect=0;image=data:image/svg+xml,PHN2ZyB4bWxucz0iaHR0cDovL3d3dy53My5vcmcvMjAwMC9zdmciIGlkPSJzdmcyIiBwcmVzZXJ2ZUFzcGVjdFJhdGlvPSJ4TWlkWU1pZCIgdmVyc2lvbj0iMS4xIiB2aWV3Qm94PSI2LjAwMDAwMDk1MzY3NDMxNiAwLjAwMDAwMTk4OTI1MzQwNTU1NDMzNjUgMTkuNzA5MDAzNDQ4NDg2MzI4IDMxLjk5OTk5ODA5MjY1MTM2NyIgaGVpZ2h0PSI2My45OTk5OTYxODUzMDI3MzQiIHdpZHRoPSIzOS40MTgwMDY4OTY5NzI2NTYiPgogIDxtZXRhZGF0YSBpZD0ibWV0YWRhdGExMiI+CiAgICAKICAgICAgCiAgICAgICAgaW1hZ2Uvc3ZnK3htbAogICAgICAgIAogICAgICAKICAgIAogIDwvbWV0YWRhdGE+CiAgPGRlZnMgaWQ9ImRlZnMxMCIvPgogIAogIDxnIHRyYW5zZm9ybT0ibWF0cml4KDAuMDY3MDMxNzgsMCwwLDAuMDY3MDMyMDQsNS42MDk1ODY2LDEuMDE1MDgxKSIgaWQ9Imc0Ij4KICAgIDxwYXRoIHN0eWxlPSJmaWxsOiMwMDAwMDAiIGlkPSJwYXRoNiIgZD0ibSAyMzcuNjE2ODYsMjQ5LjI2Nzc0IGMgLTE4LjU5MDE3LDAgLTM1LjI1NjU1LDguMjM2MTQgLTQ2LjY2OTUzLDIxLjIwMzA5IEwgMTYxLjcwMjIsMjQ5Ljc2NzM2IGMgMy4xMDQ0OSwtOC41NDczOSA0Ljg4NzAyLC0xNy43MjUzMyA0Ljg4NzAyLC0yNy4zMzE2NyAwLC05LjQzOTggLTEuNzIwNTEsLTE4LjQ2MzgzIC00LjcyMjc4LC0yNi44ODQ4OSBsIDI5LjE3OTY2LC0yMC40ODQxIGMgMTEuNDExODQsMTIuOTAxNDggMjguMDM0NTcsMjEuMDkyODMgNDYuNTcwNzYsMjEuMDkyODMgMzQuMzEyNDYsMCA2Mi4yMzIxOCwtMjcuOTE1MTMgNjIuMjMyMTgsLTYyLjIzMjE4IDAsLTM0LjMxNzA0OSAtMjcuOTE5NzIsLTYyLjIzMjE3MSAtNjIuMjMyMTgsLTYyLjIzMjE3MSAtMzQuMzEyNDUsMCAtNjIuMjMyMTcsMjcuOTE1MTIyIC02Mi4yMzIxNyw2Mi4yMzIxNzEgMCw2LjE0MjM2IDAuOTI4MDIsMTIuMDY1MzUgMi41OTMzOSwxNy42NzQ3OSBMIDE0OC43Nzg5LDE3Mi4wOTY1OSBDIDEzNi41ODE0NywxNTYuOTY0NjUgMTE5LjAxOTIzLDE0Ni4zOTkyOCA5OS4wMDk0NzMsMTQzLjE3NDIgbCAwLC0zNS4xOTEwOCBjIDI4LjE4OTYxNywtNS45MjA3IDQ5LjQyOTQ1NywtMzAuOTY2NzgyIDQ5LjQyOTQ1NywtNjAuODk0MTM2IDAsLTM0LjMxNzA1MiAtMjcuOTE5NzEsLTYyLjIzMjE3NCAtNjIuMjMyMTY3LC02Mi4yMzIxNzQgLTM0LjMxMjQ1OCwwIC02Mi4yMzIxNzQsMjcuOTE1MTIyIC02Mi4yMzIxNzQsNjIuMjMyMTc0IDAsMjkuNTI2NTE1IDIwLjY4OTY5NCw1NC4yNjM2NDYgNDguMzE1Mzg2LDYwLjYwNjk5NiBsIDAsMzUuNjQ4MiBjIC0zNy43MDE3ODIsNi42MTc4NiAtNjYuNDY1NjcxMiwzOS41MjEwNiAtNjYuNDY1NjcxMiw3OS4wOTE1MSAwLDM5Ljc2MzQgMjkuMDQ4NzI1Miw3Mi43ODcyIDY3LjAyMjcxMDIsNzkuMTc5OTQgbCAwLDM3LjY0MjA2IGMgLTI3LjkwODIzMSw2LjEzNDMyIC00OC44NzI0MjUsMzEuMDIzMDYgLTQ4Ljg3MjQyNSw2MC43NTA1NyAwLDM0LjMxNzA1IDI3LjkxOTcxNiw2Mi4yMzIxNyA2Mi4yMzIxNzQsNjIuMjMyMTcgMzQuMzEyNDU3LDAgNjIuMjMyMTY3LC0yNy45MTUxMiA2Mi4yMzIxNjcsLTYyLjIzMjE3IDAsLTI5LjcyNzUxIC0yMC45NjQxOSwtNTQuNjE2MjUgLTQ4Ljg3MjQxOCwtNjAuNzUwNTcgbCAwLC0zNy42NDMyIEMgMTE5LjE4MjMyLDI5OC4zMTEzIDEzNi40MjE4MiwyODcuOTU0OTcgMTQ4LjQ5NDA2LDI3My4xNTg0IGwgMjkuNDQwMzgsMjAuODM3ODYgYyAtMS42MzQzNyw1LjU1ODkgLTIuNTQ5NzUsMTEuNDIzMzIgLTIuNTQ5NzUsMTcuNTAzNjYgMCwzNC4zMTcwNSAyNy45MTk3Miw2Mi4yMzIxNyA2Mi4yMzIxNyw2Mi4yMzIxNyAzNC4zMTI0NiwwIDYyLjIzMjE4LC0yNy45MTUxMiA2Mi4yMzIxOCwtNjIuMjMyMTcgMCwtMzQuMzE3MDUgLTI3LjkxOTcyLC02Mi4yMzIxOCAtNjIuMjMyMTgsLTYyLjIzMjE4IGwgMCwwIHogbSAwLC0xNDUuNTEzNTMgYyAxNi42Mzg4MiwwIDMwLjE3MiwxMy41Mzg5MiAzMC4xNzIsMzAuMTczMTQgMCwxNi42MzQyMiAtMTMuNTMzMTgsMzAuMTcxOTkgLTMwLjE3MiwzMC4xNzE5OSAtMTYuNjM4ODEsMCAtMzAuMTcxOTksLTEzLjUzNzc3IC0zMC4xNzE5OSwtMzAuMTcxOTkgMCwtMTYuNjM0MjIgMTMuNTMzMTgsLTMwLjE3MzE0IDMwLjE3MTk5LC0zMC4xNzMxNCBsIDAsMCB6IE0gNTYuMDMzNjIyLDQ3LjA4ODk4NCBjIDAsLTE2LjYzNDIyIDEzLjUzNDMyNywtMzAuMTcxOTkyIDMwLjE3MzE0MSwtMzAuMTcxOTkyIDE2LjYzODgxNywwIDMwLjE3MTk4NywxMy41Mzc3NzIgMzAuMTcxOTg3LDMwLjE3MTk5MiAwLDE2LjYzNDIyIC0xMy41MzMxNywzMC4xNzE5OTEgLTMwLjE3MTk4NywzMC4xNzE5OTEgLTE2LjYzODgxNCwwIC0zMC4xNzMxNDEsLTEzLjUzNzc3MSAtMzAuMTczMTQxLC0zMC4xNzE5OTEgbCAwLDAgeiBNIDExNi4zNzg3NSw0MDAuMDA4MjYgYyAwLDE2LjYzNDIyIC0xMy41MzMxNywzMC4xNzE5OSAtMzAuMTcxOTg3LDMwLjE3MTk5IC0xNi42Mzg4MTQsMCAtMzAuMTczMTQxLC0xMy41Mzc3NyAtMzAuMTczMTQxLC0zMC4xNzE5OSAwLC0xNi42MzQyMiAxMy41MzQzMjcsLTMwLjE3MiAzMC4xNzMxNDEsLTMwLjE3MiAxNi42Mzg4MTcsMCAzMC4xNzE5ODcsMTMuNTM3NzggMzAuMTcxOTg3LDMwLjE3MiBsIDAsMCB6IE0gODYuMjA0NDY2LDI2NC41MTU2OCBjIC0yMy4yMDYxMzMsMCAtNDIuMDg0NTg4LC0xOC44NzUwMSAtNDIuMDg0NTg4LC00Mi4wNzk5OSAwLC0yMy4yMDYxMyAxOC44Nzg0NTUsLTQyLjA4NDU5IDQyLjA4NDU4OCwtNDIuMDg0NTkgMjMuMjA0OTg0LDAgNDIuMDgzNDM0LDE4Ljg3ODQ2IDQyLjA4MzQzNCw0Mi4wODQ1OSAwLDIzLjIwNDk4IC0xOC44Nzg0NSw0Mi4wNzk5OSAtNDIuMDgzNDM0LDQyLjA3OTk5IGwgMCwwIHogbSAxNTEuNDEyMzk0LDc3LjE1NzM4IGMgLTE2LjYzODgxLDAgLTMwLjE3MTk5LC0xMy41Mzg5MiAtMzAuMTcxOTksLTMwLjE3MzE0IDAsLTE2LjYzNDIyIDEzLjUzMzE4LC0zMC4xNzE5OSAzMC4xNzE5OSwtMzAuMTcxOTkgMTYuNjM4ODIsMCAzMC4xNzIsMTMuNTM3NzcgMzAuMTcyLDMwLjE3MTk5IDAsMTYuNjM0MjIgLTEzLjUzMzE4LDMwLjE3MzE0IC0zMC4xNzIsMzAuMTczMTQgbCAwLDAgeiIvPgogIDwvZz4KPC9zdmc+;" vertex="1" parent="1">
                    <mxGeometry x="738.44" y="456.40999999999997" width="63.13" height="103.59" as="geometry"/>
                </mxCell>
                <mxCell id="17" value="" style="shape=image;verticalLabelPosition=bottom;labelBackgroundColor=default;verticalAlign=top;aspect=fixed;imageAspect=0;image=data:image/svg+xml,PHN2ZyB4bWxuczp4bGluaz0iaHR0cDovL3d3dy53My5vcmcvMTk5OS94bGluayIgeG1sbnM9Imh0dHA6Ly93d3cudzMub3JnLzIwMDAvc3ZnIiB4bWw6c3BhY2U9InByZXNlcnZlIiBzdHlsZT0iZW5hYmxlLWJhY2tncm91bmQ6bmV3IDAgMCAxMjIuODggODguMTciIHZpZXdCb3g9IjAgMCAxMjIuODggODguMTciIHk9IjBweCIgeD0iMHB4IiBpZD0iTGF5ZXJfMSIgdmVyc2lvbj0iMS4xIj48c3R5bGUgdHlwZT0idGV4dC9jc3MiPi5zdDB7ZmlsbDojMDA5MUUyO308L3N0eWxlPjxnPjxwYXRoIGQ9Ik0xMjEuNjgsMzMuMzRjLTAuMzQtMC4yOC0zLjQyLTIuNjItMTAuMDMtMi42MmMtMS43MSwwLTMuNDgsMC4xNy01LjE5LDAuNDZjLTEuMjUtOC43Mi04LjQ5LTEyLjk0LTguNzgtMTMuMTYgbC0xLjc3LTEuMDNsLTEuMTQsMS42NWMtMS40MiwyLjIyLTIuNTEsNC43My0zLjEzLDcuMjljLTEuMiw0Ljk2LTAuNDYsOS42MywyLjA1LDEzLjYyYy0zLjAyLDEuNzEtNy45MiwyLjExLTguOTUsMi4xN2wtODAuOTMsMCBjLTIuMTEsMC0zLjgyLDEuNzEtMy44MiwzLjgyYy0wLjExLDcuMDcsMS4wOCwxNC4xMywzLjUzLDIwLjhjMi43OSw3LjI5LDYuOTUsMTIuNzEsMTIuMzEsMTYuMDFjNi4wNCwzLjcsMTUuOSw1LjgxLDI3LjAxLDUuODEgYzUuMDEsMCwxMC4wMy0wLjQ2LDE0Ljk5LTEuMzdjNi45LTEuMjUsMTMuNTEtMy42NSwxOS42LTcuMTJjNS4wMi0yLjkxLDkuNTItNi42MSwxMy4zNC0xMC45NGM2LjQ0LTcuMjQsMTAuMjYtMTUuMzMsMTMuMDUtMjIuNTEgYzAuNCwwLDAuNzQsMCwxLjE0LDBjNy4wMSwwLDExLjM0LTIuNzksMTMuNzMtNS4xOWMxLjYtMS40OCwyLjc5LTMuMzEsMy42NS01LjM2bDAuNTEtMS40OEwxMjEuNjgsMzMuMzRMMTIxLjY4LDMzLjM0eiBNNzEuNTksMzkuMzhoMTAuODNjMC41MSwwLDAuOTctMC40LDAuOTctMC45N3YtOS42OWMwLTAuNTEtMC40LTAuOTctMC45Ny0wLjk3bDAsMGwtMTAuODMsMGMtMC41MSwwLTAuOTcsMC40LTAuOTcsMC45N2wwLDB2OS42OSBDNzAuNjgsMzguOTgsNzEuMDgsMzkuMzgsNzEuNTksMzkuMzhMNzEuNTksMzkuMzh6IE01Ni40OSwxMS42M2gxMC44M2MwLjUxLDAsMC45Ny0wLjQsMC45Ny0wLjk3VjAuOTdjMC0wLjUxLTAuNDYtMC45Ny0wLjk3LTAuOTcgTDU2LjQ5LDBjLTAuNTEsMC0wLjk3LDAuNC0wLjk3LDAuOTdsMCwwdjkuNjlDNTUuNTIsMTEuMTcsNTUuOTcsMTEuNjMsNTYuNDksMTEuNjNMNTYuNDksMTEuNjN6IE01Ni40OSwyNS41M2gxMC44MyBjMC41MSwwLDAuOTctMC40NiwwLjk3LTAuOTd2LTkuNjljMC0wLjUxLTAuNDYtMC45Ny0wLjk3LTAuOTdINTYuNDljLTAuNTEsMC0wLjk3LDAuNC0wLjk3LDAuOTdsMCwwdjkuNjkgQzU1LjUyLDI1LjA4LDU1Ljk3LDI1LjUzLDU2LjQ5LDI1LjUzTDU2LjQ5LDI1LjUzeiBNNDEuNSwyNS41M2gxMC44M2MwLjUxLDAsMC45Ny0wLjQ2LDAuOTctMC45N3YtOS42OWMwLTAuNTEtMC40LTAuOTctMC45Ny0wLjk3IGwwLDBINDEuNWMtMC41MSwwLTAuOTcsMC40LTAuOTcsMC45N2wwLDB2OS42OUM0MC41MywyNS4wOCw0MC45MywyNS41Myw0MS41LDI1LjUzTDQxLjUsMjUuNTN6IE0yNi4yOCwyNS41M2gxMC44MyBjMC41MSwwLDAuOTctMC40NiwwLjk3LTAuOTd2LTkuNjljMC0wLjUxLTAuNC0wLjk3LTAuOTctMC45N2wwLDBIMjYuMjhjLTAuNTEsMC0wLjk3LDAuNC0wLjk3LDAuOTd2OS42OSBDMjUuMzcsMjUuMDgsMjUuNzcsMjUuNTMsMjYuMjgsMjUuNTNMMjYuMjgsMjUuNTN6IE01Ni40OSwzOS4zOGgxMC44M2MwLjUxLDAsMC45Ny0wLjQsMC45Ny0wLjk3di05LjY5YzAtMC41MS0wLjQtMC45Ny0wLjk3LTAuOTcgbDAsMGwtMTAuODMsMGMtMC41MSwwLTAuOTcsMC40LTAuOTcsMC45N2wwLDB2OS42OUM1NS41MiwzOC45OCw1NS45NywzOS4zOCw1Ni40OSwzOS4zOEw1Ni40OSwzOS4zOEw1Ni40OSwzOS4zOHogTTQxLjUsMzkuMzggaDEwLjgzYzAuNTEsMCwwLjk3LTAuNCwwLjk3LTAuOTdsMCwwdi05LjY5YzAtMC41MS0wLjQtMC45Ny0wLjk3LTAuOTdsMCwwbC0xMC44MywwYy0wLjUxLDAtMC45NywwLjQtMC45NywwLjk3bDAsMHY5LjY5IEM0MC41MywzOC45OCw0MC45MywzOS4zOCw0MS41LDM5LjM4TDQxLjUsMzkuMzhMNDEuNSwzOS4zOHogTTI2LjI4LDM5LjM4aDEwLjgzYzAuNTEsMCwwLjk3LTAuNCwwLjk3LTAuOTdsMCwwdi05LjY5IGMwLTAuNTEtMC40LTAuOTctMC45Ny0wLjk3bDAsMGwtMTAuODMsMGMtMC41MSwwLTAuOTcsMC40LTAuOTcsMC45N3Y5LjY5QzI1LjM3LDM4Ljk4LDI1Ljc3LDM5LjM4LDI2LjI4LDM5LjM4TDI2LjI4LDM5LjM4eiBNMTEuMzUsMzkuMzhoMTAuODNjMC41MSwwLDAuOTctMC40LDAuOTctMC45N2wwLDB2LTkuNjljMC0wLjUxLTAuNC0wLjk3LTAuOTctMC45N2wwLDBsLTEwLjgzLDBjLTAuNTEsMC0wLjk3LDAuNC0wLjk3LDAuOTdsMCwwIHY5LjY5QzEwLjQ0LDM4Ljk4LDEwLjg0LDM5LjM4LDExLjM1LDM5LjM4TDExLjM1LDM5LjM4TDExLjM1LDM5LjM4eiIgY2xhc3M9InN0MCIvPjwvZz48L3N2Zz4=;imageBackground=default;" vertex="1" parent="1">
                    <mxGeometry x="727" y="560" width="103" height="73.69" as="geometry"/>
                </mxCell>
                <mxCell id="18" value="" style="strokeWidth=6;html=1;shape=mxgraph.flowchart.direct_data;whiteSpace=wrap;" vertex="1" parent="1">
                    <mxGeometry x="720" y="390" width="100" height="60" as="geometry"/>
                </mxCell>
                <mxCell id="23" style="edgeStyle=none;html=1;exitX=0;exitY=0.25;exitDx=0;exitDy=0;entryX=0.663;entryY=1.017;entryDx=0;entryDy=0;entryPerimeter=0;" edge="1" parent="1" source="19" target="13">
                    <mxGeometry relative="1" as="geometry">
                        <mxPoint x="-20" y="350" as="targetPoint"/>
                    </mxGeometry>
                </mxCell>
                <mxCell id="19" value="" style="shape=image;verticalLabelPosition=bottom;labelBackgroundColor=default;verticalAlign=top;aspect=fixed;imageAspect=0;image=data:image/svg+xml,PHN2ZyB4bWxucz0iaHR0cDovL3d3dy53My5vcmcvMjAwMC9zdmciIHZpZXdCb3g9IjAgMCA0NTAgNTExLjk5IiBjbGlwLXJ1bGU9ImV2ZW5vZGQiIGZpbGwtcnVsZT0iZXZlbm9kZCIgaW1hZ2UtcmVuZGVyaW5nPSJvcHRpbWl6ZVF1YWxpdHkiIHRleHQtcmVuZGVyaW5nPSJnZW9tZXRyaWNQcmVjaXNpb24iIHNoYXBlLXJlbmRlcmluZz0iZ2VvbWV0cmljUHJlY2lzaW9uIj48cGF0aCBkPSJtMzA3LjI4IDM5Ni4wNi0uMDkgMTUuNzVjLS4wNCA3LjM3LTYuMDYgMTMuMzYtMTMuNDEgMTMuMzRsLTE0LjYyLS4wN2MtMi4xNyA3LjE0LTUuMjQgMTMuODktOS4xNCAyMC4wOGwxMC43NyAxMC44OGM1LjE5IDUuMjQgNS4xNiAxMy43NS0uMDUgMTguOTRsLTExLjE4IDExLjFjLTUuMjYgNS4xNy0xMy43NyA1LjE0LTE4Ljk2LS4xTDIzOSA0NzQuMjlhODMuMDI2IDgzLjAyNiAwIDAgMS0xOS4zMiA3LjU3bC0uMDkgMTYuODFjLS4wMyA3LjM1LTYuMDcgMTMuMzYtMTMuNDUgMTMuMzJsLTE1Ljc0LS4wNmMtNy4zNS0uMDItMTMuMzYtNi4wOS0xMy4zMi0xMy40NWwuMDYtMTYuOTZhODQuMjQ3IDg0LjI0NyAwIDAgMS0xOS4wOC03LjhsLTExLjkxIDExLjgxYy01LjIgNS4xOS0xMy43MiA1LjE2LTE4LjkxLS4wOGwtMTEuMDktMTEuMmMtNS4xOS01LjIxLTUuMTYtMTMuNzIuMDYtMTguOTFsMTEuMjgtMTEuMTVhODMuOTUyIDgzLjk1MiAwIDAgMS04LjgtMTkuNzlsLTE1LjE1LS4wN2MtNy4zNy0uMDMtMTMuMzgtNi4xLTEzLjM0LTEzLjQ1bC4wOC0xNS43NGMuMDQtNy4zOCA2LjA3LTEzLjM5IDEzLjQyLTEzLjM1bDEzLjczLjA2YTgyLjE4IDgyLjE4IDAgMCAxIDguMzYtMjEuNzdsLTkuMTEtOS4xOGMtNS4xOS01LjIxLTUuMTUtMTMuNzYuMDctMTguOTVsMTEuMTgtMTEuMDZjNS4yNS01LjE5IDEzLjc1LTUuMTYgMTguOTQuMDdsOC4zIDguMzhjNi45NS00LjMxIDE0LjU5LTcuNTcgMjIuNjYtOS43bC4wNi0xMS4zOWMuMDMtNy4zNSA2LjA5LTEzLjM0IDEzLjQ0LTEzLjMxbDE1Ljc1LjA3YzcuMzYuMDIgMTMuMzYgNi4wOCAxMy4zMyAxMy40NGwtLjA0IDExLjIxYzguMTQgMi4xMyAxNS44MSA1LjUgMjIuNzkgOS44M2w4LjE3LTguMWM1LjIxLTUuMTUgMTMuNzItNS4xMiAxOC45MS4xbDExLjA4IDExLjE4YzUuMTkgNS4yMiA1LjE2IDEzLjc3LS4wNSAxOC45NGwtOC44MyA4LjcyYzMuOCA2Ljg3IDYuNjUgMTQuMzUgOC4zOCAyMi4yNGwxMy4xMS4wNmM3LjM4LjA0IDEzLjM5IDYuMDYgMTMuMzUgMTMuNDN6TTE0NS41OCA4Ni43OWMzMS40Ni45OCA1Ni4xOCAyNy4yOCA1NS4xOCA1OC43OS0uOTYgMzEuNDYtMjcuMjggNTYuMTgtNTguNzcgNTUuMjItMzEuNDYtMS01Ni4xOS0yNy4zMi01NS4yLTU4LjgxLjk4LTMxLjQ2IDI3LjI4LTU2LjIgNTguNzktNTUuMnptOTYuMjggMzE2Ljg4Yy0uMSAyMy43OS0xOS41MSA0My4wNC00My4zIDQyLjktMjMuODQtLjEtNDMuMDYtMTkuNDctNDIuOTQtNDMuMjcuMDktMjMuODQgMTkuNTEtNDMuMDQgNDMuMy00Mi45NCAyMy44My4wOSA0My4wNSAxOS40OCA0Mi45NCA0My4zMXptMTEyLjgyLTE3NS4yMWMxOS4yMi0zLjU1IDM3LjY1IDkuMTMgNDEuMjEgMjguMzUgMy41NyAxOS4yLTkuMTUgMzcuNjUtMjguMzUgNDEuMjQtMTkuMjIgMy41NC0zNy42Ni05LjE1LTQxLjIxLTI4LjM2LTMuNTQtMTkuMjIgOS4xNS0zNy42OSAyOC4zNS00MS4yM3pNMTM3Ljg3LjAxbDIwLjgyLjY3YzkuNzEuMzEgMTcuNDQgOC41MSAxNy4xMiAxOC4yNWwtLjU5IDE5LjI2YzkuMzYgMy4xNCAxOC4xNiA3LjQ4IDI2LjIxIDEyLjg1bDE0Ljc5LTEzLjg4YzcuMS02LjY3IDE4LjM2LTYuMzIgMjUuMDEuNzhsMTQuMjcgMTUuMThjNi42OSA3LjA5IDYuMzEgMTguMzgtLjc4IDI1LjA0bC0xNS44NyAxNC45YzQuMTEgOC4xIDcuMjkgMTYuNzcgOS4zMyAyNS44NWwyMi4yMS43YzkuNzUuMyAxNy40NSA4LjUxIDE3LjE3IDE4LjI2bC0uNjcgMjAuODJjLS4zMSA5LjcxLTguNTEgMTcuNDQtMTguMjYgMTcuMTJsLTIyLjQ0LS42OGMtMi42MyA4LjgyLTYuMzQgMTcuMTgtMTAuOTYgMjQuOTJsMTUuMTggMTYuMTdjNi42NiA3LjEgNi4zMiAxOC4zNi0uNzggMjUuMDFsLTE1LjE4IDE0LjI3Yy03LjEgNi42Ni0xOC4zOCA2LjMxLTI1LjA1LS43OGwtMTQuMzMtMTUuMjdjLTguMjMgNC43MS0xNy4xMSA4LjQyLTI2LjQ4IDEwLjlsLS42MyAyMC4wNGMtLjMxIDkuNzUtOC41MSAxNy40NS0xOC4yNiAxNy4xN2wtMjAuNzktLjY3Yy05Ljc1LS4zMS0xNy40Ny04LjUxLTE3LjE3LTE4LjI2bC41OC0xOC4xYTExMC42MTUgMTEwLjYxNSAwIDAgMS0yOC41MS0xMS44NGwtMTIuNDcgMTEuNzJjLTcuMDcgNi42Ni0xOC4zNSA2LjMyLTI1LjAyLS43OGwtMTQuMjUtMTUuMThjLTYuNjYtNy4xLTYuMzItMTguMzUuNzgtMjUuMDVsMTEuMzctMTAuNjhhMTA4LjkgMTA4LjkgMCAwIDEtMTItMzAuMjlsLTE1LjA2LS40N0M3LjQzIDE2Ny42NS0uMjcgMTU5LjQ1LjAxIDE0OS43bC42Ny0yMC44M2MuMzEtOS43MSA4LjUxLTE3LjQzIDE4LjI1LTE3LjEzbDE0LjgzLjQ4YzMuMTEtMTAuNzEgNy44LTIwLjc0IDEzLjc5LTI5LjgyTDM3LjE2IDcxLjM0Yy02LjY3LTcuMDctNi4zMi0xOC4zNS43OC0yNS4wMmwxNS4xOC0xNC4yNWM3LjA5LTYuNjYgMTguMzUtNi4zMiAyNS4wNC43OGwxMS4yMSAxMS45NGM5LjI0LTQuNzcgMTkuMjEtOC4yNyAyOS43LTEwLjI4bC41NC0xNy4zNWMuMy05LjczIDguNTEtMTcuNDMgMTguMjYtMTcuMTV6bTIwMC42NyAxNzYuODcgMTIuNzQtMi4zNWM1Ljk0LTEuMSAxMS42OCAyLjg2IDEyLjc4IDguOGwyLjE3IDExLjc4YzYuMDkuNjYgMTIgMi4xMyAxNy42IDQuMzFsNy4xMi0xMC4zOGMzLjQzLTQuOTYgMTAuMjgtNi4yMiAxNS4yNy0yLjhsMTAuNjYgNy4zMmM0Ljk2IDMuNDMgNi4yMiAxMC4yOCAyLjgzIDE1LjI3bC03LjY3IDExLjEzYzMuNTggNC4zNyA2LjY0IDkuMjEgOS4wNSAxNC40MmwxMy41Ny0yLjUxYzUuOTQtMS4xIDExLjcgMi44OSAxMi44IDguODNsMi4zNiAxMi42OWMxLjA5IDUuOTQtMi44NiAxMS42OS04LjggMTIuNzlsLTEzLjcxIDIuNTVhNjcuMTA4IDY3LjEwOCAwIDAgMS0zLjM2IDE2LjU1bDExLjM1IDcuOGM0Ljk2IDMuNDMgNi4yNSAxMC4zMSAyLjgyIDE1LjI3bC03LjMyIDEwLjY2Yy0zLjQyIDQuOTYtMTAuMzEgNi4yNC0xNS4yNyAyLjgzbC0xMC43Mi03LjM3Yy00LjM2IDMuOTQtOS4yNyA3LjMyLTE0LjYxIDEwLjFsMi4yNyAxMi4yMmMxLjA5IDUuOTQtMi44NyAxMS43My04LjggMTIuODFsLTEyLjczIDIuMzZjLTUuOSAxLjEtMTEuNjktMi44Ni0xMi43OS04LjgzbC0yLjAzLTExLjAzYTY3Ljk3NiA2Ny45NzYgMCAwIDEtMTguODMtMy40MmwtNi4wMiA4LjczYy0zLjQxIDUtMTAuMjggNi4yNS0xNS4yOCAyLjg0bC0xMC42NS03LjMyYy00Ljk3LTMuNDQtNi4yNi0xMC4yOC0yLjgzLTE1LjI4bDUuNDktNy45N2E2OC4yMSA2OC4yMSAwIDAgMS0xMS4yOC0xNi43OGwtOS4xNiAxLjY5Yy01Ljk0IDEuMS0xMS43LTIuODYtMTIuOC04LjhsLTIuMzYtMTIuNjljLTEuMDktNS45NCAyLjg2LTExLjcyIDguOC0xMi44Mmw5LjA1LTEuNjdjLjQ3LTYuODggMi4wMS0xMy41NyA0LjQzLTE5Ljg2bC03Ljc2LTUuMzRjLTQuOTctMy40Mi02LjI1LTEwLjMxLTIuODItMTUuMjdsNy4zMi0xMC42NGMzLjQyLTUuMDEgMTAuMzEtNi4yNiAxNS4yNy0yLjg0bDguMzggNS43NWM0Ljk3LTQuMDkgMTAuNTYtNy41NSAxNi42My0xMC4xNWwtMS45Ni0xMC41NmMtMS4xLTUuOTcgMi44Ni0xMS43MSA4LjgtMTIuODJ6Ii8+PC9zdmc+;imageBorder=none;" vertex="1" parent="1">
                    <mxGeometry x="140" y="390" width="112.15" height="127.6" as="geometry"/>
                </mxCell>
                <mxCell id="30" value="" style="shape=image;verticalLabelPosition=bottom;labelBackgroundColor=default;verticalAlign=top;aspect=fixed;imageAspect=0;image=data:image/svg+xml,PHN2ZyB4bWxuczp4bGluaz0iaHR0cDovL3d3dy53My5vcmcvMTk5OS94bGluayIgeG1sbnM9Imh0dHA6Ly93d3cudzMub3JnLzIwMDAvc3ZnIiB4bWw6c3BhY2U9InByZXNlcnZlIiBzdHlsZT0iZW5hYmxlLWJhY2tncm91bmQ6bmV3IDAgMCA5MC42MyAxMjIuODgiIHZpZXdCb3g9IjAgMCA5MC42MyAxMjIuODgiIHk9IjBweCIgeD0iMHB4IiBpZD0iTGF5ZXJfMSIgdmVyc2lvbj0iMS4xIj48c3R5bGUgdHlwZT0idGV4dC9jc3MiPi5zdDB7ZmlsbC1ydWxlOmV2ZW5vZGQ7Y2xpcC1ydWxlOmV2ZW5vZGQ7ZmlsbDojNTM4MkExO30gLnN0MXtmaWxsLXJ1bGU6ZXZlbm9kZDtjbGlwLXJ1bGU6ZXZlbm9kZDtmaWxsOiNFNzZGMDA7fTwvc3R5bGU+PGc+PHBhdGggZD0iTTI5LjE5LDk1LjAzYzAsMC00LjcsMi43MywzLjM0LDMuNjVjOS43NCwxLjExLDE0LjcxLDAuOTUsMjUuNDQtMS4wOGMwLDAsMi44MiwxLjc3LDYuNzYsMy4zIEM0MC42OCwxMTEuMjIsMTAuMjksMTAwLjMxLDI5LjE5LDk1LjAzTDI5LjE5LDk1LjAzeiIgY2xhc3M9InN0MCIvPjxwYXRoIGQ9Ik0yNi4yNSw4MS41OGMwLDAtNS4yNywzLjksMi43OCw0LjczYzEwLjQsMS4wNywxOC42MiwxLjE2LDMyLjgzLTEuNThjMCwwLDEuOTcsMS45OSw1LjA2LDMuMDggQzM3LjgzLDk2LjMyLDUuNDMsODguNDgsMjYuMjUsODEuNThMMjYuMjUsODEuNTh6IiBjbGFzcz0ic3QwIi8+PHBhdGggZD0iTTUxLjAzLDU4Ljc2YzUuOTMsNi44Mi0xLjU2LDEyLjk2LTEuNTYsMTIuOTZzMTUuMDUtNy43Nyw4LjE0LTE3LjVDNTEuMTUsNDUuMTUsNDYuMiw0MC42NCw3MywyNS4xIEM3MywyNS4xLDMwLjk0LDM1LjYsNTEuMDMsNTguNzZMNTEuMDMsNTguNzZ6IiBjbGFzcz0ic3QxIi8+PHBhdGggZD0iTTgyLjg0LDEwNC45OGMwLDAsMy40NywyLjg2LTMuODMsNS4wOGMtMTMuODgsNC4yMS01Ny43OSw1LjQ4LTY5Ljk5LDAuMTdjLTQuMzgtMS45MSwzLjg0LTQuNTUsNi40Mi01LjExIGMyLjctMC41OSw0LjI0LTAuNDgsNC4yNC0wLjQ4Yy00Ljg4LTMuNDMtMzEuNTIsNi43NC0xMy41Myw5LjY2QzU1LjIsMTIyLjI1LDk1LjU2LDExMC43Miw4Mi44NCwxMDQuOThMODIuODQsMTA0Ljk4eiIgY2xhc3M9InN0MCIvPjxwYXRoIGQ9Ik0zMS40NSw2Ny42NGMwLDAtMjIuMzMsNS4zLTcuOTEsNy4yM2M2LjA5LDAuODIsMTguMjMsMC42MywyOS41NC0wLjMyYzkuMjQtMC43OCwxOC41Mi0yLjQ0LDE4LjUyLTIuNDQgcy0zLjI2LDEuNC01LjYyLDMuMDFjLTIyLjY4LDUuOTYtNjYuNDksMy4xOS01My44OC0yLjkxQzIyLjc3LDY3LjA1LDMxLjQ1LDY3LjY0LDMxLjQ1LDY3LjY0TDMxLjQ1LDY3LjY0eiIgY2xhc3M9InN0MCIvPjxwYXRoIGQ9Ik03MS41MSw5MC4wM2MyMy4wNS0xMS45OCwxMi4zOS0yMy40OSw0Ljk1LTIxLjk0Yy0xLjgyLDAuMzgtMi42NCwwLjcxLTIuNjQsMC43MXMwLjY4LTEuMDYsMS45Ny0xLjUyIGMxNC43Mi01LjE3LDI2LjA0LDE1LjI2LTQuNzUsMjMuMzZDNzEuMDUsOTAuNjQsNzEuNCw5MC4zMiw3MS41MSw5MC4wM0w3MS41MSw5MC4wM3oiIGNsYXNzPSJzdDAiLz48cGF0aCBkPSJNNTcuNjEsMGMwLDAsMTIuNzcsMTIuNzctMTIuMTEsMzIuNDFjLTE5Ljk1LDE1Ljc1LTQuNTUsMjQuNzQtMC4wMSwzNUMzMy44NSw1Ni45MSwyNS4zLDQ3LjY2LDMxLjAzLDM5LjA1IEMzOS40NSwyNi40MSw2Mi43NiwyMC4yOSw1Ny42MSwwTDU3LjYxLDB6IiBjbGFzcz0ic3QxIi8+PHBhdGggZD0iTTMzLjcxLDEyMi40OWMyMi4xMywxLjQyLDU2LjExLTAuNzksNTYuOTItMTEuMjZjMCwwLTEuNTUsMy45Ny0xOC4yOSw3LjEyYy0xOC44OSwzLjU1LTQyLjE4LDMuMTQtNTYsMC44NiBDMTYuMzQsMTE5LjIyLDE5LjE3LDEyMS41NiwzMy43MSwxMjIuNDlMMzMuNzEsMTIyLjQ5eiIgY2xhc3M9InN0MCIvPjwvZz48L3N2Zz4=;" vertex="1" parent="1">
                    <mxGeometry x="130" y="513.75" width="81.57" height="110.25" as="geometry"/>
                </mxCell>
                <mxCell id="31" value="" style="shape=image;verticalLabelPosition=bottom;labelBackgroundColor=default;verticalAlign=top;aspect=fixed;imageAspect=0;image=data:image/svg+xml,PHN2ZyB4bWxucz0iaHR0cDovL3d3dy53My5vcmcvMjAwMC9zdmciIHZpZXdCb3g9IjAgMCAyNCAyNCIgcm9sZT0iaW1nIj48dGl0bGU+U3ByaW5nIEJvb3Q8L3RpdGxlPjxwYXRoIGQ9Im0yMy42OTMgMTAuNzA1OC00LjczLTguMTg0NGMtLjQwOTQtLjcxMDYtMS40MTY2LTEuMjk0Mi0yLjI0MDItMS4yOTQySDcuMjcyNWMtLjgxOSAwLTEuODMwOC41ODM2LTIuMjQwMiAxLjI5NDJMLjMwNyAxMC43MDU4Yy0uNDA5NS43MTA2LS40MDk1IDEuODczIDAgMi41ODM3bDQuNzI1MiA4LjE4OWMuNDA5NC43MTA3IDEuNDE2NiAxLjI5NDMgMi4yNDAyIDEuMjk0M2g5LjQ1NWMuODE5IDAgMS44MjYtLjU4MzYgMi4yNDAyLTEuMjk0Mmw0LjcyNTItOC4xODljLjQwOTUtLjcxMDcuNDA5NS0xLjg3MzIgMC0yLjU4Mzh6TTEwLjk3NjMgNS43NTQ3YzAtLjUzNjUuNDM3Ny0uOTc0Mi45NzQyLS45NzQycy45NzQyLjQzNzcuOTc0Mi45NzQydjUuODIxN2MwIC41MzY2LS40Mzc3Ljk3NDItLjk3NDIuOTc0MnMtLjk3NDItLjQzNzYtLjk3NDItLjk3NDJ6bS45NzQyIDEyLjQyOTRjLTMuNjQyNyAwLTYuNjA3Ny0yLjk2NS02LjYwNzctNi42MDc3LjAwNDctMi4wODk2Ljk5My00LjA1MjEgMi42Njg1LTUuMzA0YS44NjU3Ljg2NTcgMCAwIDEgMS4yMTQyLjE3ODguODY1Ny44NjU3IDAgMCAxLS4xNzg4IDEuMjE0M2MtMi4xNjAyIDEuNjA0OC0yLjYxMiA0LjY1OTItMS4wMDcyIDYuODE5NCAxLjYwNDkgMi4xNjAzIDQuNjU5MyAyLjYxMiA2LjgxOTUgMS4wMDcyIDEuMjM3OC0uOTE3NyAxLjk2NzMtMi4zNzIgMS45NjczLTMuOTE1N2E0Ljg5NzIgNC44OTcyIDAgMCAwLTEuOTg2MS0zLjkyNWMtLjM4Ni0uMjgyNC0uNDY2LS44Mjg0LS4xODM2LTEuMjE0My4yODI0LS4zODYuODI4My0uNDY2IDEuMjE0My0uMTgzNSAxLjY4OTUgMS4yNDcxIDIuNjgyNiAzLjIyMzggMi42ODczIDUuMzIyOCAwIDMuNjQ3NC0yLjk2NSA2LjYwNzctNi42MDc3IDYuNjA3N3oiLz48L3N2Zz4=;" vertex="1" parent="1">
                    <mxGeometry x="240" y="551" width="74" height="74" as="geometry"/>
                </mxCell>
                <mxCell id="33" value="" style="rounded=1;whiteSpace=wrap;html=1;" vertex="1" parent="1">
                    <mxGeometry x="910" y="370" width="500" height="270" as="geometry"/>
                </mxCell>
                <mxCell id="34" value="" style="shape=image;verticalLabelPosition=bottom;labelBackgroundColor=default;verticalAlign=top;aspect=fixed;imageAspect=0;image=data:image/svg+xml,PHN2ZyB4bWxucz0iaHR0cDovL3d3dy53My5vcmcvMjAwMC9zdmciIHZpZXdCb3g9IjAgMCA0NTAgNTExLjk5IiBjbGlwLXJ1bGU9ImV2ZW5vZGQiIGZpbGwtcnVsZT0iZXZlbm9kZCIgaW1hZ2UtcmVuZGVyaW5nPSJvcHRpbWl6ZVF1YWxpdHkiIHRleHQtcmVuZGVyaW5nPSJnZW9tZXRyaWNQcmVjaXNpb24iIHNoYXBlLXJlbmRlcmluZz0iZ2VvbWV0cmljUHJlY2lzaW9uIj48cGF0aCBkPSJtMzA3LjI4IDM5Ni4wNi0uMDkgMTUuNzVjLS4wNCA3LjM3LTYuMDYgMTMuMzYtMTMuNDEgMTMuMzRsLTE0LjYyLS4wN2MtMi4xNyA3LjE0LTUuMjQgMTMuODktOS4xNCAyMC4wOGwxMC43NyAxMC44OGM1LjE5IDUuMjQgNS4xNiAxMy43NS0uMDUgMTguOTRsLTExLjE4IDExLjFjLTUuMjYgNS4xNy0xMy43NyA1LjE0LTE4Ljk2LS4xTDIzOSA0NzQuMjlhODMuMDI2IDgzLjAyNiAwIDAgMS0xOS4zMiA3LjU3bC0uMDkgMTYuODFjLS4wMyA3LjM1LTYuMDcgMTMuMzYtMTMuNDUgMTMuMzJsLTE1Ljc0LS4wNmMtNy4zNS0uMDItMTMuMzYtNi4wOS0xMy4zMi0xMy40NWwuMDYtMTYuOTZhODQuMjQ3IDg0LjI0NyAwIDAgMS0xOS4wOC03LjhsLTExLjkxIDExLjgxYy01LjIgNS4xOS0xMy43MiA1LjE2LTE4LjkxLS4wOGwtMTEuMDktMTEuMmMtNS4xOS01LjIxLTUuMTYtMTMuNzIuMDYtMTguOTFsMTEuMjgtMTEuMTVhODMuOTUyIDgzLjk1MiAwIDAgMS04LjgtMTkuNzlsLTE1LjE1LS4wN2MtNy4zNy0uMDMtMTMuMzgtNi4xLTEzLjM0LTEzLjQ1bC4wOC0xNS43NGMuMDQtNy4zOCA2LjA3LTEzLjM5IDEzLjQyLTEzLjM1bDEzLjczLjA2YTgyLjE4IDgyLjE4IDAgMCAxIDguMzYtMjEuNzdsLTkuMTEtOS4xOGMtNS4xOS01LjIxLTUuMTUtMTMuNzYuMDctMTguOTVsMTEuMTgtMTEuMDZjNS4yNS01LjE5IDEzLjc1LTUuMTYgMTguOTQuMDdsOC4zIDguMzhjNi45NS00LjMxIDE0LjU5LTcuNTcgMjIuNjYtOS43bC4wNi0xMS4zOWMuMDMtNy4zNSA2LjA5LTEzLjM0IDEzLjQ0LTEzLjMxbDE1Ljc1LjA3YzcuMzYuMDIgMTMuMzYgNi4wOCAxMy4zMyAxMy40NGwtLjA0IDExLjIxYzguMTQgMi4xMyAxNS44MSA1LjUgMjIuNzkgOS44M2w4LjE3LTguMWM1LjIxLTUuMTUgMTMuNzItNS4xMiAxOC45MS4xbDExLjA4IDExLjE4YzUuMTkgNS4yMiA1LjE2IDEzLjc3LS4wNSAxOC45NGwtOC44MyA4LjcyYzMuOCA2Ljg3IDYuNjUgMTQuMzUgOC4zOCAyMi4yNGwxMy4xMS4wNmM3LjM4LjA0IDEzLjM5IDYuMDYgMTMuMzUgMTMuNDN6TTE0NS41OCA4Ni43OWMzMS40Ni45OCA1Ni4xOCAyNy4yOCA1NS4xOCA1OC43OS0uOTYgMzEuNDYtMjcuMjggNTYuMTgtNTguNzcgNTUuMjItMzEuNDYtMS01Ni4xOS0yNy4zMi01NS4yLTU4LjgxLjk4LTMxLjQ2IDI3LjI4LTU2LjIgNTguNzktNTUuMnptOTYuMjggMzE2Ljg4Yy0uMSAyMy43OS0xOS41MSA0My4wNC00My4zIDQyLjktMjMuODQtLjEtNDMuMDYtMTkuNDctNDIuOTQtNDMuMjcuMDktMjMuODQgMTkuNTEtNDMuMDQgNDMuMy00Mi45NCAyMy44My4wOSA0My4wNSAxOS40OCA0Mi45NCA0My4zMXptMTEyLjgyLTE3NS4yMWMxOS4yMi0zLjU1IDM3LjY1IDkuMTMgNDEuMjEgMjguMzUgMy41NyAxOS4yLTkuMTUgMzcuNjUtMjguMzUgNDEuMjQtMTkuMjIgMy41NC0zNy42Ni05LjE1LTQxLjIxLTI4LjM2LTMuNTQtMTkuMjIgOS4xNS0zNy42OSAyOC4zNS00MS4yM3pNMTM3Ljg3LjAxbDIwLjgyLjY3YzkuNzEuMzEgMTcuNDQgOC41MSAxNy4xMiAxOC4yNWwtLjU5IDE5LjI2YzkuMzYgMy4xNCAxOC4xNiA3LjQ4IDI2LjIxIDEyLjg1bDE0Ljc5LTEzLjg4YzcuMS02LjY3IDE4LjM2LTYuMzIgMjUuMDEuNzhsMTQuMjcgMTUuMThjNi42OSA3LjA5IDYuMzEgMTguMzgtLjc4IDI1LjA0bC0xNS44NyAxNC45YzQuMTEgOC4xIDcuMjkgMTYuNzcgOS4zMyAyNS44NWwyMi4yMS43YzkuNzUuMyAxNy40NSA4LjUxIDE3LjE3IDE4LjI2bC0uNjcgMjAuODJjLS4zMSA5LjcxLTguNTEgMTcuNDQtMTguMjYgMTcuMTJsLTIyLjQ0LS42OGMtMi42MyA4LjgyLTYuMzQgMTcuMTgtMTAuOTYgMjQuOTJsMTUuMTggMTYuMTdjNi42NiA3LjEgNi4zMiAxOC4zNi0uNzggMjUuMDFsLTE1LjE4IDE0LjI3Yy03LjEgNi42Ni0xOC4zOCA2LjMxLTI1LjA1LS43OGwtMTQuMzMtMTUuMjdjLTguMjMgNC43MS0xNy4xMSA4LjQyLTI2LjQ4IDEwLjlsLS42MyAyMC4wNGMtLjMxIDkuNzUtOC41MSAxNy40NS0xOC4yNiAxNy4xN2wtMjAuNzktLjY3Yy05Ljc1LS4zMS0xNy40Ny04LjUxLTE3LjE3LTE4LjI2bC41OC0xOC4xYTExMC42MTUgMTEwLjYxNSAwIDAgMS0yOC41MS0xMS44NGwtMTIuNDcgMTEuNzJjLTcuMDcgNi42Ni0xOC4zNSA2LjMyLTI1LjAyLS43OGwtMTQuMjUtMTUuMThjLTYuNjYtNy4xLTYuMzItMTguMzUuNzgtMjUuMDVsMTEuMzctMTAuNjhhMTA4LjkgMTA4LjkgMCAwIDEtMTItMzAuMjlsLTE1LjA2LS40N0M3LjQzIDE2Ny42NS0uMjcgMTU5LjQ1LjAxIDE0OS43bC42Ny0yMC44M2MuMzEtOS43MSA4LjUxLTE3LjQzIDE4LjI1LTE3LjEzbDE0LjgzLjQ4YzMuMTEtMTAuNzEgNy44LTIwLjc0IDEzLjc5LTI5LjgyTDM3LjE2IDcxLjM0Yy02LjY3LTcuMDctNi4zMi0xOC4zNS43OC0yNS4wMmwxNS4xOC0xNC4yNWM3LjA5LTYuNjYgMTguMzUtNi4zMiAyNS4wNC43OGwxMS4yMSAxMS45NGM5LjI0LTQuNzcgMTkuMjEtOC4yNyAyOS43LTEwLjI4bC41NC0xNy4zNWMuMy05LjczIDguNTEtMTcuNDMgMTguMjYtMTcuMTV6bTIwMC42NyAxNzYuODcgMTIuNzQtMi4zNWM1Ljk0LTEuMSAxMS42OCAyLjg2IDEyLjc4IDguOGwyLjE3IDExLjc4YzYuMDkuNjYgMTIgMi4xMyAxNy42IDQuMzFsNy4xMi0xMC4zOGMzLjQzLTQuOTYgMTAuMjgtNi4yMiAxNS4yNy0yLjhsMTAuNjYgNy4zMmM0Ljk2IDMuNDMgNi4yMiAxMC4yOCAyLjgzIDE1LjI3bC03LjY3IDExLjEzYzMuNTggNC4zNyA2LjY0IDkuMjEgOS4wNSAxNC40MmwxMy41Ny0yLjUxYzUuOTQtMS4xIDExLjcgMi44OSAxMi44IDguODNsMi4zNiAxMi42OWMxLjA5IDUuOTQtMi44NiAxMS42OS04LjggMTIuNzlsLTEzLjcxIDIuNTVhNjcuMTA4IDY3LjEwOCAwIDAgMS0zLjM2IDE2LjU1bDExLjM1IDcuOGM0Ljk2IDMuNDMgNi4yNSAxMC4zMSAyLjgyIDE1LjI3bC03LjMyIDEwLjY2Yy0zLjQyIDQuOTYtMTAuMzEgNi4yNC0xNS4yNyAyLjgzbC0xMC43Mi03LjM3Yy00LjM2IDMuOTQtOS4yNyA3LjMyLTE0LjYxIDEwLjFsMi4yNyAxMi4yMmMxLjA5IDUuOTQtMi44NyAxMS43My04LjggMTIuODFsLTEyLjczIDIuMzZjLTUuOSAxLjEtMTEuNjktMi44Ni0xMi43OS04LjgzbC0yLjAzLTExLjAzYTY3Ljk3NiA2Ny45NzYgMCAwIDEtMTguODMtMy40MmwtNi4wMiA4LjczYy0zLjQxIDUtMTAuMjggNi4yNS0xNS4yOCAyLjg0bC0xMC42NS03LjMyYy00Ljk3LTMuNDQtNi4yNi0xMC4yOC0yLjgzLTE1LjI4bDUuNDktNy45N2E2OC4yMSA2OC4yMSAwIDAgMS0xMS4yOC0xNi43OGwtOS4xNiAxLjY5Yy01Ljk0IDEuMS0xMS43LTIuODYtMTIuOC04LjhsLTIuMzYtMTIuNjljLTEuMDktNS45NCAyLjg2LTExLjcyIDguOC0xMi44Mmw5LjA1LTEuNjdjLjQ3LTYuODggMi4wMS0xMy41NyA0LjQzLTE5Ljg2bC03Ljc2LTUuMzRjLTQuOTctMy40Mi02LjI1LTEwLjMxLTIuODItMTUuMjdsNy4zMi0xMC42NGMzLjQyLTUuMDEgMTAuMzEtNi4yNiAxNS4yNy0yLjg0bDguMzggNS43NWM0Ljk3LTQuMDkgMTAuNTYtNy41NSAxNi42My0xMC4xNWwtMS45Ni0xMC41NmMtMS4xLTUuOTcgMi44Ni0xMS43MSA4LjgtMTIuODJ6Ii8+PC9zdmc+;imageBorder=none;" vertex="1" parent="1">
                    <mxGeometry x="950" y="390" width="112.15" height="127.6" as="geometry"/>
                </mxCell>
                <mxCell id="35" value="" style="shape=image;verticalLabelPosition=bottom;labelBackgroundColor=default;verticalAlign=top;aspect=fixed;imageAspect=0;image=data:image/svg+xml,PHN2ZyB4bWxuczp4bGluaz0iaHR0cDovL3d3dy53My5vcmcvMTk5OS94bGluayIgeG1sbnM9Imh0dHA6Ly93d3cudzMub3JnLzIwMDAvc3ZnIiB4bWw6c3BhY2U9InByZXNlcnZlIiBzdHlsZT0iZW5hYmxlLWJhY2tncm91bmQ6bmV3IDAgMCA5MC42MyAxMjIuODgiIHZpZXdCb3g9IjAgMCA5MC42MyAxMjIuODgiIHk9IjBweCIgeD0iMHB4IiBpZD0iTGF5ZXJfMSIgdmVyc2lvbj0iMS4xIj48c3R5bGUgdHlwZT0idGV4dC9jc3MiPi5zdDB7ZmlsbC1ydWxlOmV2ZW5vZGQ7Y2xpcC1ydWxlOmV2ZW5vZGQ7ZmlsbDojNTM4MkExO30gLnN0MXtmaWxsLXJ1bGU6ZXZlbm9kZDtjbGlwLXJ1bGU6ZXZlbm9kZDtmaWxsOiNFNzZGMDA7fTwvc3R5bGU+PGc+PHBhdGggZD0iTTI5LjE5LDk1LjAzYzAsMC00LjcsMi43MywzLjM0LDMuNjVjOS43NCwxLjExLDE0LjcxLDAuOTUsMjUuNDQtMS4wOGMwLDAsMi44MiwxLjc3LDYuNzYsMy4zIEM0MC42OCwxMTEuMjIsMTAuMjksMTAwLjMxLDI5LjE5LDk1LjAzTDI5LjE5LDk1LjAzeiIgY2xhc3M9InN0MCIvPjxwYXRoIGQ9Ik0yNi4yNSw4MS41OGMwLDAtNS4yNywzLjksMi43OCw0LjczYzEwLjQsMS4wNywxOC42MiwxLjE2LDMyLjgzLTEuNThjMCwwLDEuOTcsMS45OSw1LjA2LDMuMDggQzM3LjgzLDk2LjMyLDUuNDMsODguNDgsMjYuMjUsODEuNThMMjYuMjUsODEuNTh6IiBjbGFzcz0ic3QwIi8+PHBhdGggZD0iTTUxLjAzLDU4Ljc2YzUuOTMsNi44Mi0xLjU2LDEyLjk2LTEuNTYsMTIuOTZzMTUuMDUtNy43Nyw4LjE0LTE3LjVDNTEuMTUsNDUuMTUsNDYuMiw0MC42NCw3MywyNS4xIEM3MywyNS4xLDMwLjk0LDM1LjYsNTEuMDMsNTguNzZMNTEuMDMsNTguNzZ6IiBjbGFzcz0ic3QxIi8+PHBhdGggZD0iTTgyLjg0LDEwNC45OGMwLDAsMy40NywyLjg2LTMuODMsNS4wOGMtMTMuODgsNC4yMS01Ny43OSw1LjQ4LTY5Ljk5LDAuMTdjLTQuMzgtMS45MSwzLjg0LTQuNTUsNi40Mi01LjExIGMyLjctMC41OSw0LjI0LTAuNDgsNC4yNC0wLjQ4Yy00Ljg4LTMuNDMtMzEuNTIsNi43NC0xMy41Myw5LjY2QzU1LjIsMTIyLjI1LDk1LjU2LDExMC43Miw4Mi44NCwxMDQuOThMODIuODQsMTA0Ljk4eiIgY2xhc3M9InN0MCIvPjxwYXRoIGQ9Ik0zMS40NSw2Ny42NGMwLDAtMjIuMzMsNS4zLTcuOTEsNy4yM2M2LjA5LDAuODIsMTguMjMsMC42MywyOS41NC0wLjMyYzkuMjQtMC43OCwxOC41Mi0yLjQ0LDE4LjUyLTIuNDQgcy0zLjI2LDEuNC01LjYyLDMuMDFjLTIyLjY4LDUuOTYtNjYuNDksMy4xOS01My44OC0yLjkxQzIyLjc3LDY3LjA1LDMxLjQ1LDY3LjY0LDMxLjQ1LDY3LjY0TDMxLjQ1LDY3LjY0eiIgY2xhc3M9InN0MCIvPjxwYXRoIGQ9Ik03MS41MSw5MC4wM2MyMy4wNS0xMS45OCwxMi4zOS0yMy40OSw0Ljk1LTIxLjk0Yy0xLjgyLDAuMzgtMi42NCwwLjcxLTIuNjQsMC43MXMwLjY4LTEuMDYsMS45Ny0xLjUyIGMxNC43Mi01LjE3LDI2LjA0LDE1LjI2LTQuNzUsMjMuMzZDNzEuMDUsOTAuNjQsNzEuNCw5MC4zMiw3MS41MSw5MC4wM0w3MS41MSw5MC4wM3oiIGNsYXNzPSJzdDAiLz48cGF0aCBkPSJNNTcuNjEsMGMwLDAsMTIuNzcsMTIuNzctMTIuMTEsMzIuNDFjLTE5Ljk1LDE1Ljc1LTQuNTUsMjQuNzQtMC4wMSwzNUMzMy44NSw1Ni45MSwyNS4zLDQ3LjY2LDMxLjAzLDM5LjA1IEMzOS40NSwyNi40MSw2Mi43NiwyMC4yOSw1Ny42MSwwTDU3LjYxLDB6IiBjbGFzcz0ic3QxIi8+PHBhdGggZD0iTTMzLjcxLDEyMi40OWMyMi4xMywxLjQyLDU2LjExLTAuNzksNTYuOTItMTEuMjZjMCwwLTEuNTUsMy45Ny0xOC4yOSw3LjEyYy0xOC44OSwzLjU1LTQyLjE4LDMuMTQtNTYsMC44NiBDMTYuMzQsMTE5LjIyLDE5LjE3LDEyMS41NiwzMy43MSwxMjIuNDlMMzMuNzEsMTIyLjQ5eiIgY2xhc3M9InN0MCIvPjwvZz48L3N2Zz4=;" vertex="1" parent="1">
                    <mxGeometry x="950" y="517.6" width="81.57" height="110.25" as="geometry"/>
                </mxCell>
                <mxCell id="36" value="" style="shape=image;verticalLabelPosition=bottom;labelBackgroundColor=default;verticalAlign=top;aspect=fixed;imageAspect=0;image=data:image/svg+xml,PHN2ZyB4bWxucz0iaHR0cDovL3d3dy53My5vcmcvMjAwMC9zdmciIHZpZXdCb3g9IjAgMCAyNCAyNCIgcm9sZT0iaW1nIj48dGl0bGU+U3ByaW5nIEJvb3Q8L3RpdGxlPjxwYXRoIGQ9Im0yMy42OTMgMTAuNzA1OC00LjczLTguMTg0NGMtLjQwOTQtLjcxMDYtMS40MTY2LTEuMjk0Mi0yLjI0MDItMS4yOTQySDcuMjcyNWMtLjgxOSAwLTEuODMwOC41ODM2LTIuMjQwMiAxLjI5NDJMLjMwNyAxMC43MDU4Yy0uNDA5NS43MTA2LS40MDk1IDEuODczIDAgMi41ODM3bDQuNzI1MiA4LjE4OWMuNDA5NC43MTA3IDEuNDE2NiAxLjI5NDMgMi4yNDAyIDEuMjk0M2g5LjQ1NWMuODE5IDAgMS44MjYtLjU4MzYgMi4yNDAyLTEuMjk0Mmw0LjcyNTItOC4xODljLjQwOTUtLjcxMDcuNDA5NS0xLjg3MzIgMC0yLjU4Mzh6TTEwLjk3NjMgNS43NTQ3YzAtLjUzNjUuNDM3Ny0uOTc0Mi45NzQyLS45NzQycy45NzQyLjQzNzcuOTc0Mi45NzQydjUuODIxN2MwIC41MzY2LS40Mzc3Ljk3NDItLjk3NDIuOTc0MnMtLjk3NDItLjQzNzYtLjk3NDItLjk3NDJ6bS45NzQyIDEyLjQyOTRjLTMuNjQyNyAwLTYuNjA3Ny0yLjk2NS02LjYwNzctNi42MDc3LjAwNDctMi4wODk2Ljk5My00LjA1MjEgMi42Njg1LTUuMzA0YS44NjU3Ljg2NTcgMCAwIDEgMS4yMTQyLjE3ODguODY1Ny44NjU3IDAgMCAxLS4xNzg4IDEuMjE0M2MtMi4xNjAyIDEuNjA0OC0yLjYxMiA0LjY1OTItMS4wMDcyIDYuODE5NCAxLjYwNDkgMi4xNjAzIDQuNjU5MyAyLjYxMiA2LjgxOTUgMS4wMDcyIDEuMjM3OC0uOTE3NyAxLjk2NzMtMi4zNzIgMS45NjczLTMuOTE1N2E0Ljg5NzIgNC44OTcyIDAgMCAwLTEuOTg2MS0zLjkyNWMtLjM4Ni0uMjgyNC0uNDY2LS44Mjg0LS4xODM2LTEuMjE0My4yODI0LS4zODYuODI4My0uNDY2IDEuMjE0My0uMTgzNSAxLjY4OTUgMS4yNDcxIDIuNjgyNiAzLjIyMzggMi42ODczIDUuMzIyOCAwIDMuNjQ3NC0yLjk2NSA2LjYwNzctNi42MDc3IDYuNjA3N3oiLz48L3N2Zz4=;" vertex="1" parent="1">
                    <mxGeometry x="1077" y="550" width="74" height="74" as="geometry"/>
                </mxCell>
                <mxCell id="37" value="" style="rounded=1;whiteSpace=wrap;html=1;" vertex="1" parent="1">
                    <mxGeometry x="1510" y="365" width="120" height="280" as="geometry"/>
                </mxCell>
                <mxCell id="39" value="" style="shape=image;verticalLabelPosition=bottom;labelBackgroundColor=default;verticalAlign=top;aspect=fixed;imageAspect=0;image=data:image/svg+xml,PHN2ZyB4bWxuczp4bGluaz0iaHR0cDovL3d3dy53My5vcmcvMTk5OS94bGluayIgeG1sbnM9Imh0dHA6Ly93d3cudzMub3JnLzIwMDAvc3ZnIiB4bWw6c3BhY2U9InByZXNlcnZlIiBzdHlsZT0iZW5hYmxlLWJhY2tncm91bmQ6bmV3IDAgMCAxMjIuODggODguMTciIHZpZXdCb3g9IjAgMCAxMjIuODggODguMTciIHk9IjBweCIgeD0iMHB4IiBpZD0iTGF5ZXJfMSIgdmVyc2lvbj0iMS4xIj48c3R5bGUgdHlwZT0idGV4dC9jc3MiPi5zdDB7ZmlsbDojMDA5MUUyO308L3N0eWxlPjxnPjxwYXRoIGQ9Ik0xMjEuNjgsMzMuMzRjLTAuMzQtMC4yOC0zLjQyLTIuNjItMTAuMDMtMi42MmMtMS43MSwwLTMuNDgsMC4xNy01LjE5LDAuNDZjLTEuMjUtOC43Mi04LjQ5LTEyLjk0LTguNzgtMTMuMTYgbC0xLjc3LTEuMDNsLTEuMTQsMS42NWMtMS40MiwyLjIyLTIuNTEsNC43My0zLjEzLDcuMjljLTEuMiw0Ljk2LTAuNDYsOS42MywyLjA1LDEzLjYyYy0zLjAyLDEuNzEtNy45MiwyLjExLTguOTUsMi4xN2wtODAuOTMsMCBjLTIuMTEsMC0zLjgyLDEuNzEtMy44MiwzLjgyYy0wLjExLDcuMDcsMS4wOCwxNC4xMywzLjUzLDIwLjhjMi43OSw3LjI5LDYuOTUsMTIuNzEsMTIuMzEsMTYuMDFjNi4wNCwzLjcsMTUuOSw1LjgxLDI3LjAxLDUuODEgYzUuMDEsMCwxMC4wMy0wLjQ2LDE0Ljk5LTEuMzdjNi45LTEuMjUsMTMuNTEtMy42NSwxOS42LTcuMTJjNS4wMi0yLjkxLDkuNTItNi42MSwxMy4zNC0xMC45NGM2LjQ0LTcuMjQsMTAuMjYtMTUuMzMsMTMuMDUtMjIuNTEgYzAuNCwwLDAuNzQsMCwxLjE0LDBjNy4wMSwwLDExLjM0LTIuNzksMTMuNzMtNS4xOWMxLjYtMS40OCwyLjc5LTMuMzEsMy42NS01LjM2bDAuNTEtMS40OEwxMjEuNjgsMzMuMzRMMTIxLjY4LDMzLjM0eiBNNzEuNTksMzkuMzhoMTAuODNjMC41MSwwLDAuOTctMC40LDAuOTctMC45N3YtOS42OWMwLTAuNTEtMC40LTAuOTctMC45Ny0wLjk3bDAsMGwtMTAuODMsMGMtMC41MSwwLTAuOTcsMC40LTAuOTcsMC45N2wwLDB2OS42OSBDNzAuNjgsMzguOTgsNzEuMDgsMzkuMzgsNzEuNTksMzkuMzhMNzEuNTksMzkuMzh6IE01Ni40OSwxMS42M2gxMC44M2MwLjUxLDAsMC45Ny0wLjQsMC45Ny0wLjk3VjAuOTdjMC0wLjUxLTAuNDYtMC45Ny0wLjk3LTAuOTcgTDU2LjQ5LDBjLTAuNTEsMC0wLjk3LDAuNC0wLjk3LDAuOTdsMCwwdjkuNjlDNTUuNTIsMTEuMTcsNTUuOTcsMTEuNjMsNTYuNDksMTEuNjNMNTYuNDksMTEuNjN6IE01Ni40OSwyNS41M2gxMC44MyBjMC41MSwwLDAuOTctMC40NiwwLjk3LTAuOTd2LTkuNjljMC0wLjUxLTAuNDYtMC45Ny0wLjk3LTAuOTdINTYuNDljLTAuNTEsMC0wLjk3LDAuNC0wLjk3LDAuOTdsMCwwdjkuNjkgQzU1LjUyLDI1LjA4LDU1Ljk3LDI1LjUzLDU2LjQ5LDI1LjUzTDU2LjQ5LDI1LjUzeiBNNDEuNSwyNS41M2gxMC44M2MwLjUxLDAsMC45Ny0wLjQ2LDAuOTctMC45N3YtOS42OWMwLTAuNTEtMC40LTAuOTctMC45Ny0wLjk3IGwwLDBINDEuNWMtMC41MSwwLTAuOTcsMC40LTAuOTcsMC45N2wwLDB2OS42OUM0MC41MywyNS4wOCw0MC45MywyNS41Myw0MS41LDI1LjUzTDQxLjUsMjUuNTN6IE0yNi4yOCwyNS41M2gxMC44MyBjMC41MSwwLDAuOTctMC40NiwwLjk3LTAuOTd2LTkuNjljMC0wLjUxLTAuNC0wLjk3LTAuOTctMC45N2wwLDBIMjYuMjhjLTAuNTEsMC0wLjk3LDAuNC0wLjk3LDAuOTd2OS42OSBDMjUuMzcsMjUuMDgsMjUuNzcsMjUuNTMsMjYuMjgsMjUuNTNMMjYuMjgsMjUuNTN6IE01Ni40OSwzOS4zOGgxMC44M2MwLjUxLDAsMC45Ny0wLjQsMC45Ny0wLjk3di05LjY5YzAtMC41MS0wLjQtMC45Ny0wLjk3LTAuOTcgbDAsMGwtMTAuODMsMGMtMC41MSwwLTAuOTcsMC40LTAuOTcsMC45N2wwLDB2OS42OUM1NS41MiwzOC45OCw1NS45NywzOS4zOCw1Ni40OSwzOS4zOEw1Ni40OSwzOS4zOEw1Ni40OSwzOS4zOHogTTQxLjUsMzkuMzggaDEwLjgzYzAuNTEsMCwwLjk3LTAuNCwwLjk3LTAuOTdsMCwwdi05LjY5YzAtMC41MS0wLjQtMC45Ny0wLjk3LTAuOTdsMCwwbC0xMC44MywwYy0wLjUxLDAtMC45NywwLjQtMC45NywwLjk3bDAsMHY5LjY5IEM0MC41MywzOC45OCw0MC45MywzOS4zOCw0MS41LDM5LjM4TDQxLjUsMzkuMzhMNDEuNSwzOS4zOHogTTI2LjI4LDM5LjM4aDEwLjgzYzAuNTEsMCwwLjk3LTAuNCwwLjk3LTAuOTdsMCwwdi05LjY5IGMwLTAuNTEtMC40LTAuOTctMC45Ny0wLjk3bDAsMGwtMTAuODMsMGMtMC41MSwwLTAuOTcsMC40LTAuOTcsMC45N3Y5LjY5QzI1LjM3LDM4Ljk4LDI1Ljc3LDM5LjM4LDI2LjI4LDM5LjM4TDI2LjI4LDM5LjM4eiBNMTEuMzUsMzkuMzhoMTAuODNjMC41MSwwLDAuOTctMC40LDAuOTctMC45N2wwLDB2LTkuNjljMC0wLjUxLTAuNC0wLjk3LTAuOTctMC45N2wwLDBsLTEwLjgzLDBjLTAuNTEsMC0wLjk3LDAuNC0wLjk3LDAuOTdsMCwwIHY5LjY5QzEwLjQ0LDM4Ljk4LDEwLjg0LDM5LjM4LDExLjM1LDM5LjM4TDExLjM1LDM5LjM4TDExLjM1LDM5LjM4eiIgY2xhc3M9InN0MCIvPjwvZz48L3N2Zz4=;imageBackground=default;" vertex="1" parent="1">
                    <mxGeometry x="1527" y="555" width="103" height="73.69" as="geometry"/>
                </mxCell>
                <mxCell id="41" value="" style="shape=image;verticalLabelPosition=bottom;labelBackgroundColor=default;verticalAlign=top;aspect=fixed;imageAspect=0;image=data:image/svg+xml,PHN2ZyB4bWxucz0iaHR0cDovL3d3dy53My5vcmcvMjAwMC9zdmciIHZpZXdCb3g9IjAgMCAxMDEuMTUgMTIyLjg4IiBkYXRhLW5hbWU9IkxheWVyIDEiIGlkPSJMYXllcl8xIj48dGl0bGU+ZGF0YWJhc2U8L3RpdGxlPjxwYXRoIGQ9Ik0xOCwyNy4xOWM4LjI2LDIuNzYsMTkuNzYsNC40NiwzMi41Myw0LjQ2Uzc0LjgzLDMwLDgzLjA5LDI3LjE5YzcuMjUtMi40MiwxMS43My01LjM1LDExLjczLTguMjJzLTQuNDgtNS43OS0xMS43My04LjIxQzc0LjgzLDgsNjMuMzMsNi4yOSw1MC41Niw2LjI5UzI2LjI5LDgsMTgsMTAuNzZDMi42NSwxNS44OSwyLjIyLDIxLjkxLDE4LDI3LjE5Wm02Miw3MC41YTUsNSwwLDEsMS00Ljk0LDUsNC45NCw0Ljk0LDAsMCwxLDQuOTQtNVptMC0yOGE0Ljk1LDQuOTUsMCwxLDEtNC45NCw1LDQuOTQsNC45NCwwLDAsMSw0Ljk0LTVabTAtMjkuMTNhNC45NSw0Ljk1LDAsMSwxLTQuOTQsNC45NUE0Ljk0LDQuOTQsMCwwLDEsODAsNDAuNTlabTE0LjgsNDVhMzkuNDUsMzkuNDUsMCwwLDEtOS43Niw0LjYyQzc2LjE4LDkzLjE4LDY0LDk1LDUwLjU2LDk1UzI0Ljk0LDkzLjE4LDE2LDkwLjIxYTM5Ljg3LDM5Ljg3LDAsMCwxLTkuNjgtNC41NVYxMDQuNWMuNTcsMi42OCw0LjkyLDUuMzcsMTEuNjcsNy42Miw4LjI2LDIuNzYsMTkuNzYsNC40NywzMi41Myw0LjQ3czI0LjI3LTEuNzEsMzIuNTMtNC40N2M1LTEuNjcsOC42OS0zLjU4LDEwLjQ5LTUuNTUsMS40OS0xLjYzLDEuMjYtMi43LDEuMjYtNC42NFY4NS41OVpNMCwxOUMwLDEzLjEsNi4xMyw4LjEyLDE2LDQuODEsMjQuOTQsMS44NCwzNy4xNSwwLDUwLjU2LDBTNzYuMTgsMS44NCw4NS4wOCw0LjgxLDEwMCwxMi4yMiwxMDEsMTcuNDFhMy4xMSwzLjExLDAsMCwxLC4xOCwxLjA2djg2Ljc0YzAsNi0xMS40OSwxMS4zMy0xNi4wNywxMi44Ni04LjksMy0yMS4xMSw0LjgxLTM0LjUyLDQuODFTMjQuOTQsMTIxLDE2LDExOC4wN2MtNC42OS0xLjU2LTE2LTYuNzEtMTYtMTIuODZ2LTJRLjA3LDYxLjA5LDAsMTlaTTYuMzYsNzYuNjRDNi45Myw3OS4zMiwxMS4yOCw4MiwxOCw4NC4yNmM4LjI2LDIuNzYsMTkuNzYsNC40NywzMi41Myw0LjQ3Uzc0LjgzLDg3LDgzLjA5LDg0LjI2YzcuMjUtMi40MiwxMS43My01LjM1LDExLjczLTguMjFoMFY1Ny43M2EzOS43OSwzOS43OSwwLDAsMS05Ljc4LDQuNjJjLTguOSwzLTIxLjExLDQuODEtMzQuNTIsNC44MVMyNC45NCw2NS4zMiwxNiw2Mi4zNUEzOS44NywzOS44NywwLDAsMSw2LjM2LDU3LjhWNzYuNjRabTAtMjcuODZjLjU3LDIuNjgsNC45Miw1LjM3LDExLjY3LDcuNjIsOC4yNiwyLjc2LDE5Ljc2LDQuNDcsMzIuNTMsNC40N3MyNC4yNy0xLjcxLDMyLjUzLTQuNDdjNy4yNS0yLjQyLDExLjczLTUuMzUsMTEuNzMtOC4yMWgwVjI4LjUyYTQwLjE1LDQwLjE1LDAsMCwxLTkuNzgsNC42MkM3Ni4xOCwzNi4xMSw2NCwzOCw1MC41NiwzOFMyNC45NCwzNi4xMSwxNiwzMy4xNGEzOS44NywzOS44NywwLDAsMS05LjY4LTQuNTZ2MjAuMloiLz48L3N2Zz4=;" vertex="1" parent="1">
                    <mxGeometry x="1529.5" y="380" width="81" height="98.64" as="geometry"/>
                </mxCell>
                <mxCell id="42" value="" style="shape=image;verticalLabelPosition=bottom;labelBackgroundColor=default;verticalAlign=top;aspect=fixed;imageAspect=0;image=data:image/svg+xml,PHN2ZyB4bWxucz0iaHR0cDovL3d3dy53My5vcmcvMjAwMC9zdmciIGNsaXAtcnVsZT0iZXZlbm9kZCIgZmlsbC1ydWxlPSJldmVub2RkIiBpbWFnZS1yZW5kZXJpbmc9Im9wdGltaXplUXVhbGl0eSIgdGV4dC1yZW5kZXJpbmc9Imdlb21ldHJpY1ByZWNpc2lvbiIgc2hhcGUtcmVuZGVyaW5nPSJnZW9tZXRyaWNQcmVjaXNpb24iIHZpZXdCb3g9IjAgMCA1OTguODggMTMzMy4zMyI+PGcgZmlsbC1ydWxlPSJub256ZXJvIj48cGF0aCBmaWxsPSIjNTk5NjM2IiBkPSJNMjk1LjI3IDMuNjVsMzUuNTggNjYuODNjOCAxMi4zMyAxNi42NyAyMy4yNSAyNi44NyAzMy40MiAyOS43OSAyOS43OSA1OC4wOCA2MC45OSA4My41IDk0LjQxIDYwLjI4IDc5LjE2IDEwMC45NSAxNjcuMDcgMTI5Ljk4IDI2Mi4xNCAxNy40MiA1OC4wOCAyNi44NyAxMTcuNjYgMjcuNTggMTc3LjkgMi45MSAxODAuMTEtNTguODMgMzM0Ljc2LTE4My4zMSA0NjMuMjgtMjAuMzMgMjAuMzMtNDIuMDggMzkuMTYtNjUuNDEgNTUuOTEtMTIuMzMgMC0xOC4xNy05LjQ2LTIzLjI1LTE4LjE2LTkuNDUtMTUuOTYtMTUuMjUtMzQuMTctMTguMTYtNTIuMjktNC4zOC0yMS44LTcuMjUtNDMuNTgtNS44My02Ni4wOHYtMTAuMTZjLTEtMi4xNy0xMS44Ny0xMDAyLjA3LTcuNTQtMTAwNy4xOXYuMDF6Ii8+PHBhdGggZmlsbD0iIzZjYWM0OCIgZD0iTTI5NS4yNyAxLjQzYy0xLjQ2LTIuOTEtMi45MS0uNzEtNC4zOC43MS43MSAxNC41OC00LjM4IDI3LjU4LTEyLjMzIDQwLTguNzUgMTIuMzMtMjAuMzMgMjEuOC0zMS45NiAzMS45Ni02NC41NyA1NS45MS0xMTUuNCAxMjMuNDUtMTU2LjExIDE5OC45OEMzNi4zMyAzNzQuNzQgOC40MSA0ODMuNjguNSA1OTguMzhjLTMuNjIgNDEuMzcgMTMuMDkgMTg3LjM2IDI2LjEzIDIyOS40OCAzNS41OCAxMTEuODIgOTkuNDkgMjA1LjUyIDE4Mi4yNyAyODYuODQgMjAuMzMgMTkuNTggNDIuMDggMzcuNzQgNjQuNTggNTUuMiA2LjU0IDAgNy4yNS01LjgzIDguNzQtMTAuMTcgMi44NS05LjI4IDUuMDYtMTguNzYgNi41NC0yOC4zNGwxNC41OC0xMDguOUwyOTUuMjYgMS40M3oiLz48cGF0aCBmaWxsPSIjYzJiZmJmIiBkPSJNMzMwLjg1IDEyMDEuNzdjMS40Ni0xNi42NyA5LjQ2LTMwLjUgMTguMTctNDQuMjktOC43NS0zLjYyLTE1LjI1LTEwLjgzLTIwLjMzLTE4Ljg3LTQuMzgtNy4yNS04LTE1Ljk2LTEwLjgzLTIzLjk2LTEwLjE3LTMwLjUtMTIuMzMtNjIuNS0xNS4yNS05My42NnYtMTguODdjLTMuNjIgMi45MS00LjM4IDI3LjU4LTQuMzggMzEuMjUtMi4wMyAzMi44NS02LjU0IDY1LjgtMTMuMDggOTguMDUtMi4xNyAxMy4wOC0zLjYyIDI2LjEyLTExLjY3IDM3Ljc0IDAgMS40NiAwIDIuOTEuNzEgNS4wOSAxMy4wOCAzOC41IDE2LjY3IDc3LjcgMTguODcgMTE3LjY2djE0LjU4YzAgMTcuNDEtLjcxIDEzLjc0IDEzLjc1IDE5LjU4IDUuODMgMi4xNyAxMi4zMyAyLjkxIDE4LjE2IDcuMjUgNC4zOCAwIDUuMDktMy42MiA1LjA5LTYuNTRsLTIuMTctMjMuOTZ2LTY2LjgzYy0uNzEtMTEuNjcgMS40Ni0yMy4yNSAyLjkxLTM0LjE2bC4wNS0uMDZ6Ii8+PC9nPjwvc3ZnPg==;" vertex="1" parent="1">
                    <mxGeometry x="1548" y="462.22" width="44" height="97.78" as="geometry"/>
                </mxCell>
                <mxCell id="44" value="&lt;span style=&quot;color: rgb(0, 0, 0); font-family: Helvetica; font-size: 24px; font-style: normal; font-variant-ligatures: normal; font-variant-caps: normal; font-weight: 700; letter-spacing: normal; orphans: 2; text-align: center; text-indent: 0px; text-transform: none; widows: 2; word-spacing: 0px; -webkit-text-stroke-width: 0px; background-color: rgb(251, 251, 251); text-decoration-thickness: initial; text-decoration-style: initial; text-decoration-color: initial; float: none; display: inline !important;&quot;&gt;z&lt;/span&gt;" style="rounded=1;whiteSpace=wrap;html=1;" vertex="1" parent="1">
                    <mxGeometry x="1720" y="365" width="500" height="270" as="geometry"/>
                </mxCell>
                <mxCell id="45" value="" style="shape=image;verticalLabelPosition=bottom;labelBackgroundColor=default;verticalAlign=top;aspect=fixed;imageAspect=0;image=data:image/svg+xml,PHN2ZyB4bWxucz0iaHR0cDovL3d3dy53My5vcmcvMjAwMC9zdmciIHZpZXdCb3g9IjAgMCA0NTAgNTExLjk5IiBjbGlwLXJ1bGU9ImV2ZW5vZGQiIGZpbGwtcnVsZT0iZXZlbm9kZCIgaW1hZ2UtcmVuZGVyaW5nPSJvcHRpbWl6ZVF1YWxpdHkiIHRleHQtcmVuZGVyaW5nPSJnZW9tZXRyaWNQcmVjaXNpb24iIHNoYXBlLXJlbmRlcmluZz0iZ2VvbWV0cmljUHJlY2lzaW9uIj48cGF0aCBkPSJtMzA3LjI4IDM5Ni4wNi0uMDkgMTUuNzVjLS4wNCA3LjM3LTYuMDYgMTMuMzYtMTMuNDEgMTMuMzRsLTE0LjYyLS4wN2MtMi4xNyA3LjE0LTUuMjQgMTMuODktOS4xNCAyMC4wOGwxMC43NyAxMC44OGM1LjE5IDUuMjQgNS4xNiAxMy43NS0uMDUgMTguOTRsLTExLjE4IDExLjFjLTUuMjYgNS4xNy0xMy43NyA1LjE0LTE4Ljk2LS4xTDIzOSA0NzQuMjlhODMuMDI2IDgzLjAyNiAwIDAgMS0xOS4zMiA3LjU3bC0uMDkgMTYuODFjLS4wMyA3LjM1LTYuMDcgMTMuMzYtMTMuNDUgMTMuMzJsLTE1Ljc0LS4wNmMtNy4zNS0uMDItMTMuMzYtNi4wOS0xMy4zMi0xMy40NWwuMDYtMTYuOTZhODQuMjQ3IDg0LjI0NyAwIDAgMS0xOS4wOC03LjhsLTExLjkxIDExLjgxYy01LjIgNS4xOS0xMy43MiA1LjE2LTE4LjkxLS4wOGwtMTEuMDktMTEuMmMtNS4xOS01LjIxLTUuMTYtMTMuNzIuMDYtMTguOTFsMTEuMjgtMTEuMTVhODMuOTUyIDgzLjk1MiAwIDAgMS04LjgtMTkuNzlsLTE1LjE1LS4wN2MtNy4zNy0uMDMtMTMuMzgtNi4xLTEzLjM0LTEzLjQ1bC4wOC0xNS43NGMuMDQtNy4zOCA2LjA3LTEzLjM5IDEzLjQyLTEzLjM1bDEzLjczLjA2YTgyLjE4IDgyLjE4IDAgMCAxIDguMzYtMjEuNzdsLTkuMTEtOS4xOGMtNS4xOS01LjIxLTUuMTUtMTMuNzYuMDctMTguOTVsMTEuMTgtMTEuMDZjNS4yNS01LjE5IDEzLjc1LTUuMTYgMTguOTQuMDdsOC4zIDguMzhjNi45NS00LjMxIDE0LjU5LTcuNTcgMjIuNjYtOS43bC4wNi0xMS4zOWMuMDMtNy4zNSA2LjA5LTEzLjM0IDEzLjQ0LTEzLjMxbDE1Ljc1LjA3YzcuMzYuMDIgMTMuMzYgNi4wOCAxMy4zMyAxMy40NGwtLjA0IDExLjIxYzguMTQgMi4xMyAxNS44MSA1LjUgMjIuNzkgOS44M2w4LjE3LTguMWM1LjIxLTUuMTUgMTMuNzItNS4xMiAxOC45MS4xbDExLjA4IDExLjE4YzUuMTkgNS4yMiA1LjE2IDEzLjc3LS4wNSAxOC45NGwtOC44MyA4LjcyYzMuOCA2Ljg3IDYuNjUgMTQuMzUgOC4zOCAyMi4yNGwxMy4xMS4wNmM3LjM4LjA0IDEzLjM5IDYuMDYgMTMuMzUgMTMuNDN6TTE0NS41OCA4Ni43OWMzMS40Ni45OCA1Ni4xOCAyNy4yOCA1NS4xOCA1OC43OS0uOTYgMzEuNDYtMjcuMjggNTYuMTgtNTguNzcgNTUuMjItMzEuNDYtMS01Ni4xOS0yNy4zMi01NS4yLTU4LjgxLjk4LTMxLjQ2IDI3LjI4LTU2LjIgNTguNzktNTUuMnptOTYuMjggMzE2Ljg4Yy0uMSAyMy43OS0xOS41MSA0My4wNC00My4zIDQyLjktMjMuODQtLjEtNDMuMDYtMTkuNDctNDIuOTQtNDMuMjcuMDktMjMuODQgMTkuNTEtNDMuMDQgNDMuMy00Mi45NCAyMy44My4wOSA0My4wNSAxOS40OCA0Mi45NCA0My4zMXptMTEyLjgyLTE3NS4yMWMxOS4yMi0zLjU1IDM3LjY1IDkuMTMgNDEuMjEgMjguMzUgMy41NyAxOS4yLTkuMTUgMzcuNjUtMjguMzUgNDEuMjQtMTkuMjIgMy41NC0zNy42Ni05LjE1LTQxLjIxLTI4LjM2LTMuNTQtMTkuMjIgOS4xNS0zNy42OSAyOC4zNS00MS4yM3pNMTM3Ljg3LjAxbDIwLjgyLjY3YzkuNzEuMzEgMTcuNDQgOC41MSAxNy4xMiAxOC4yNWwtLjU5IDE5LjI2YzkuMzYgMy4xNCAxOC4xNiA3LjQ4IDI2LjIxIDEyLjg1bDE0Ljc5LTEzLjg4YzcuMS02LjY3IDE4LjM2LTYuMzIgMjUuMDEuNzhsMTQuMjcgMTUuMThjNi42OSA3LjA5IDYuMzEgMTguMzgtLjc4IDI1LjA0bC0xNS44NyAxNC45YzQuMTEgOC4xIDcuMjkgMTYuNzcgOS4zMyAyNS44NWwyMi4yMS43YzkuNzUuMyAxNy40NSA4LjUxIDE3LjE3IDE4LjI2bC0uNjcgMjAuODJjLS4zMSA5LjcxLTguNTEgMTcuNDQtMTguMjYgMTcuMTJsLTIyLjQ0LS42OGMtMi42MyA4LjgyLTYuMzQgMTcuMTgtMTAuOTYgMjQuOTJsMTUuMTggMTYuMTdjNi42NiA3LjEgNi4zMiAxOC4zNi0uNzggMjUuMDFsLTE1LjE4IDE0LjI3Yy03LjEgNi42Ni0xOC4zOCA2LjMxLTI1LjA1LS43OGwtMTQuMzMtMTUuMjdjLTguMjMgNC43MS0xNy4xMSA4LjQyLTI2LjQ4IDEwLjlsLS42MyAyMC4wNGMtLjMxIDkuNzUtOC41MSAxNy40NS0xOC4yNiAxNy4xN2wtMjAuNzktLjY3Yy05Ljc1LS4zMS0xNy40Ny04LjUxLTE3LjE3LTE4LjI2bC41OC0xOC4xYTExMC42MTUgMTEwLjYxNSAwIDAgMS0yOC41MS0xMS44NGwtMTIuNDcgMTEuNzJjLTcuMDcgNi42Ni0xOC4zNSA2LjMyLTI1LjAyLS43OGwtMTQuMjUtMTUuMThjLTYuNjYtNy4xLTYuMzItMTguMzUuNzgtMjUuMDVsMTEuMzctMTAuNjhhMTA4LjkgMTA4LjkgMCAwIDEtMTItMzAuMjlsLTE1LjA2LS40N0M3LjQzIDE2Ny42NS0uMjcgMTU5LjQ1LjAxIDE0OS43bC42Ny0yMC44M2MuMzEtOS43MSA4LjUxLTE3LjQzIDE4LjI1LTE3LjEzbDE0LjgzLjQ4YzMuMTEtMTAuNzEgNy44LTIwLjc0IDEzLjc5LTI5LjgyTDM3LjE2IDcxLjM0Yy02LjY3LTcuMDctNi4zMi0xOC4zNS43OC0yNS4wMmwxNS4xOC0xNC4yNWM3LjA5LTYuNjYgMTguMzUtNi4zMiAyNS4wNC43OGwxMS4yMSAxMS45NGM5LjI0LTQuNzcgMTkuMjEtOC4yNyAyOS43LTEwLjI4bC41NC0xNy4zNWMuMy05LjczIDguNTEtMTcuNDMgMTguMjYtMTcuMTV6bTIwMC42NyAxNzYuODcgMTIuNzQtMi4zNWM1Ljk0LTEuMSAxMS42OCAyLjg2IDEyLjc4IDguOGwyLjE3IDExLjc4YzYuMDkuNjYgMTIgMi4xMyAxNy42IDQuMzFsNy4xMi0xMC4zOGMzLjQzLTQuOTYgMTAuMjgtNi4yMiAxNS4yNy0yLjhsMTAuNjYgNy4zMmM0Ljk2IDMuNDMgNi4yMiAxMC4yOCAyLjgzIDE1LjI3bC03LjY3IDExLjEzYzMuNTggNC4zNyA2LjY0IDkuMjEgOS4wNSAxNC40MmwxMy41Ny0yLjUxYzUuOTQtMS4xIDExLjcgMi44OSAxMi44IDguODNsMi4zNiAxMi42OWMxLjA5IDUuOTQtMi44NiAxMS42OS04LjggMTIuNzlsLTEzLjcxIDIuNTVhNjcuMTA4IDY3LjEwOCAwIDAgMS0zLjM2IDE2LjU1bDExLjM1IDcuOGM0Ljk2IDMuNDMgNi4yNSAxMC4zMSAyLjgyIDE1LjI3bC03LjMyIDEwLjY2Yy0zLjQyIDQuOTYtMTAuMzEgNi4yNC0xNS4yNyAyLjgzbC0xMC43Mi03LjM3Yy00LjM2IDMuOTQtOS4yNyA3LjMyLTE0LjYxIDEwLjFsMi4yNyAxMi4yMmMxLjA5IDUuOTQtMi44NyAxMS43My04LjggMTIuODFsLTEyLjczIDIuMzZjLTUuOSAxLjEtMTEuNjktMi44Ni0xMi43OS04LjgzbC0yLjAzLTExLjAzYTY3Ljk3NiA2Ny45NzYgMCAwIDEtMTguODMtMy40MmwtNi4wMiA4LjczYy0zLjQxIDUtMTAuMjggNi4yNS0xNS4yOCAyLjg0bC0xMC42NS03LjMyYy00Ljk3LTMuNDQtNi4yNi0xMC4yOC0yLjgzLTE1LjI4bDUuNDktNy45N2E2OC4yMSA2OC4yMSAwIDAgMS0xMS4yOC0xNi43OGwtOS4xNiAxLjY5Yy01Ljk0IDEuMS0xMS43LTIuODYtMTIuOC04LjhsLTIuMzYtMTIuNjljLTEuMDktNS45NCAyLjg2LTExLjcyIDguOC0xMi44Mmw5LjA1LTEuNjdjLjQ3LTYuODggMi4wMS0xMy41NyA0LjQzLTE5Ljg2bC03Ljc2LTUuMzRjLTQuOTctMy40Mi02LjI1LTEwLjMxLTIuODItMTUuMjdsNy4zMi0xMC42NGMzLjQyLTUuMDEgMTAuMzEtNi4yNiAxNS4yNy0yLjg0bDguMzggNS43NWM0Ljk3LTQuMDkgMTAuNTYtNy41NSAxNi42My0xMC4xNWwtMS45Ni0xMC41NmMtMS4xLTUuOTcgMi44Ni0xMS43MSA4LjgtMTIuODJ6Ii8+PC9zdmc+;imageBorder=none;" vertex="1" parent="1">
                    <mxGeometry x="1760" y="385" width="112.15" height="127.6" as="geometry"/>
                </mxCell>
                <mxCell id="46" value="" style="shape=image;verticalLabelPosition=bottom;labelBackgroundColor=default;verticalAlign=top;aspect=fixed;imageAspect=0;image=data:image/svg+xml,PHN2ZyB4bWxuczp4bGluaz0iaHR0cDovL3d3dy53My5vcmcvMTk5OS94bGluayIgeG1sbnM9Imh0dHA6Ly93d3cudzMub3JnLzIwMDAvc3ZnIiB4bWw6c3BhY2U9InByZXNlcnZlIiBzdHlsZT0iZW5hYmxlLWJhY2tncm91bmQ6bmV3IDAgMCA5MC42MyAxMjIuODgiIHZpZXdCb3g9IjAgMCA5MC42MyAxMjIuODgiIHk9IjBweCIgeD0iMHB4IiBpZD0iTGF5ZXJfMSIgdmVyc2lvbj0iMS4xIj48c3R5bGUgdHlwZT0idGV4dC9jc3MiPi5zdDB7ZmlsbC1ydWxlOmV2ZW5vZGQ7Y2xpcC1ydWxlOmV2ZW5vZGQ7ZmlsbDojNTM4MkExO30gLnN0MXtmaWxsLXJ1bGU6ZXZlbm9kZDtjbGlwLXJ1bGU6ZXZlbm9kZDtmaWxsOiNFNzZGMDA7fTwvc3R5bGU+PGc+PHBhdGggZD0iTTI5LjE5LDk1LjAzYzAsMC00LjcsMi43MywzLjM0LDMuNjVjOS43NCwxLjExLDE0LjcxLDAuOTUsMjUuNDQtMS4wOGMwLDAsMi44MiwxLjc3LDYuNzYsMy4zIEM0MC42OCwxMTEuMjIsMTAuMjksMTAwLjMxLDI5LjE5LDk1LjAzTDI5LjE5LDk1LjAzeiIgY2xhc3M9InN0MCIvPjxwYXRoIGQ9Ik0yNi4yNSw4MS41OGMwLDAtNS4yNywzLjksMi43OCw0LjczYzEwLjQsMS4wNywxOC42MiwxLjE2LDMyLjgzLTEuNThjMCwwLDEuOTcsMS45OSw1LjA2LDMuMDggQzM3LjgzLDk2LjMyLDUuNDMsODguNDgsMjYuMjUsODEuNThMMjYuMjUsODEuNTh6IiBjbGFzcz0ic3QwIi8+PHBhdGggZD0iTTUxLjAzLDU4Ljc2YzUuOTMsNi44Mi0xLjU2LDEyLjk2LTEuNTYsMTIuOTZzMTUuMDUtNy43Nyw4LjE0LTE3LjVDNTEuMTUsNDUuMTUsNDYuMiw0MC42NCw3MywyNS4xIEM3MywyNS4xLDMwLjk0LDM1LjYsNTEuMDMsNTguNzZMNTEuMDMsNTguNzZ6IiBjbGFzcz0ic3QxIi8+PHBhdGggZD0iTTgyLjg0LDEwNC45OGMwLDAsMy40NywyLjg2LTMuODMsNS4wOGMtMTMuODgsNC4yMS01Ny43OSw1LjQ4LTY5Ljk5LDAuMTdjLTQuMzgtMS45MSwzLjg0LTQuNTUsNi40Mi01LjExIGMyLjctMC41OSw0LjI0LTAuNDgsNC4yNC0wLjQ4Yy00Ljg4LTMuNDMtMzEuNTIsNi43NC0xMy41Myw5LjY2QzU1LjIsMTIyLjI1LDk1LjU2LDExMC43Miw4Mi44NCwxMDQuOThMODIuODQsMTA0Ljk4eiIgY2xhc3M9InN0MCIvPjxwYXRoIGQ9Ik0zMS40NSw2Ny42NGMwLDAtMjIuMzMsNS4zLTcuOTEsNy4yM2M2LjA5LDAuODIsMTguMjMsMC42MywyOS41NC0wLjMyYzkuMjQtMC43OCwxOC41Mi0yLjQ0LDE4LjUyLTIuNDQgcy0zLjI2LDEuNC01LjYyLDMuMDFjLTIyLjY4LDUuOTYtNjYuNDksMy4xOS01My44OC0yLjkxQzIyLjc3LDY3LjA1LDMxLjQ1LDY3LjY0LDMxLjQ1LDY3LjY0TDMxLjQ1LDY3LjY0eiIgY2xhc3M9InN0MCIvPjxwYXRoIGQ9Ik03MS41MSw5MC4wM2MyMy4wNS0xMS45OCwxMi4zOS0yMy40OSw0Ljk1LTIxLjk0Yy0xLjgyLDAuMzgtMi42NCwwLjcxLTIuNjQsMC43MXMwLjY4LTEuMDYsMS45Ny0xLjUyIGMxNC43Mi01LjE3LDI2LjA0LDE1LjI2LTQuNzUsMjMuMzZDNzEuMDUsOTAuNjQsNzEuNCw5MC4zMiw3MS41MSw5MC4wM0w3MS41MSw5MC4wM3oiIGNsYXNzPSJzdDAiLz48cGF0aCBkPSJNNTcuNjEsMGMwLDAsMTIuNzcsMTIuNzctMTIuMTEsMzIuNDFjLTE5Ljk1LDE1Ljc1LTQuNTUsMjQuNzQtMC4wMSwzNUMzMy44NSw1Ni45MSwyNS4zLDQ3LjY2LDMxLjAzLDM5LjA1IEMzOS40NSwyNi40MSw2Mi43NiwyMC4yOSw1Ny42MSwwTDU3LjYxLDB6IiBjbGFzcz0ic3QxIi8+PHBhdGggZD0iTTMzLjcxLDEyMi40OWMyMi4xMywxLjQyLDU2LjExLTAuNzksNTYuOTItMTEuMjZjMCwwLTEuNTUsMy45Ny0xOC4yOSw3LjEyYy0xOC44OSwzLjU1LTQyLjE4LDMuMTQtNTYsMC44NiBDMTYuMzQsMTE5LjIyLDE5LjE3LDEyMS41NiwzMy43MSwxMjIuNDlMMzMuNzEsMTIyLjQ5eiIgY2xhc3M9InN0MCIvPjwvZz48L3N2Zz4=;" vertex="1" parent="1">
                    <mxGeometry x="1760" y="508.75000000000006" width="81.57" height="110.25" as="geometry"/>
                </mxCell>
                <mxCell id="47" value="" style="shape=image;verticalLabelPosition=bottom;labelBackgroundColor=default;verticalAlign=top;aspect=fixed;imageAspect=0;image=data:image/svg+xml,PHN2ZyB4bWxucz0iaHR0cDovL3d3dy53My5vcmcvMjAwMC9zdmciIHZpZXdCb3g9IjAgMCAyNCAyNCIgcm9sZT0iaW1nIj48dGl0bGU+U3ByaW5nIEJvb3Q8L3RpdGxlPjxwYXRoIGQ9Im0yMy42OTMgMTAuNzA1OC00LjczLTguMTg0NGMtLjQwOTQtLjcxMDYtMS40MTY2LTEuMjk0Mi0yLjI0MDItMS4yOTQySDcuMjcyNWMtLjgxOSAwLTEuODMwOC41ODM2LTIuMjQwMiAxLjI5NDJMLjMwNyAxMC43MDU4Yy0uNDA5NS43MTA2LS40MDk1IDEuODczIDAgMi41ODM3bDQuNzI1MiA4LjE4OWMuNDA5NC43MTA3IDEuNDE2NiAxLjI5NDMgMi4yNDAyIDEuMjk0M2g5LjQ1NWMuODE5IDAgMS44MjYtLjU4MzYgMi4yNDAyLTEuMjk0Mmw0LjcyNTItOC4xODljLjQwOTUtLjcxMDcuNDA5NS0xLjg3MzIgMC0yLjU4Mzh6TTEwLjk3NjMgNS43NTQ3YzAtLjUzNjUuNDM3Ny0uOTc0Mi45NzQyLS45NzQycy45NzQyLjQzNzcuOTc0Mi45NzQydjUuODIxN2MwIC41MzY2LS40Mzc3Ljk3NDItLjk3NDIuOTc0MnMtLjk3NDItLjQzNzYtLjk3NDItLjk3NDJ6bS45NzQyIDEyLjQyOTRjLTMuNjQyNyAwLTYuNjA3Ny0yLjk2NS02LjYwNzctNi42MDc3LjAwNDctMi4wODk2Ljk5My00LjA1MjEgMi42Njg1LTUuMzA0YS44NjU3Ljg2NTcgMCAwIDEgMS4yMTQyLjE3ODguODY1Ny44NjU3IDAgMCAxLS4xNzg4IDEuMjE0M2MtMi4xNjAyIDEuNjA0OC0yLjYxMiA0LjY1OTItMS4wMDcyIDYuODE5NCAxLjYwNDkgMi4xNjAzIDQuNjU5MyAyLjYxMiA2LjgxOTUgMS4wMDcyIDEuMjM3OC0uOTE3NyAxLjk2NzMtMi4zNzIgMS45NjczLTMuOTE1N2E0Ljg5NzIgNC44OTcyIDAgMCAwLTEuOTg2MS0zLjkyNWMtLjM4Ni0uMjgyNC0uNDY2LS44Mjg0LS4xODM2LTEuMjE0My4yODI0LS4zODYuODI4My0uNDY2IDEuMjE0My0uMTgzNSAxLjY4OTUgMS4yNDcxIDIuNjgyNiAzLjIyMzggMi42ODczIDUuMzIyOCAwIDMuNjQ3NC0yLjk2NSA2LjYwNzctNi42MDc3IDYuNjA3N3oiLz48L3N2Zz4=;" vertex="1" parent="1">
                    <mxGeometry x="1872.15" y="545" width="74" height="74" as="geometry"/>
                </mxCell>
                <mxCell id="70" value="" style="edgeStyle=none;html=1;" edge="1" parent="1" source="49" target="14">
                    <mxGeometry relative="1" as="geometry"/>
                </mxCell>
                <mxCell id="71" value="" style="edgeStyle=none;html=1;" edge="1" parent="1" source="49" target="14">
                    <mxGeometry relative="1" as="geometry"/>
                </mxCell>
                <mxCell id="49" value="Data Collection tier" style="text;strokeColor=none;fillColor=none;html=1;fontSize=24;fontStyle=1;verticalAlign=middle;align=center;strokeWidth=3;" vertex="1" parent="1">
                    <mxGeometry x="300" y="320" width="100" height="40" as="geometry"/>
                </mxCell>
                <mxCell id="53" value="Message Queing&lt;br&gt;tier" style="text;strokeColor=none;fillColor=none;html=1;fontSize=24;fontStyle=1;verticalAlign=middle;align=center;strokeWidth=3;" vertex="1" parent="1">
                    <mxGeometry x="710" y="320" width="100" height="40" as="geometry"/>
                </mxCell>
                <mxCell id="54" value="" style="shape=image;verticalLabelPosition=bottom;labelBackgroundColor=default;verticalAlign=top;aspect=fixed;imageAspect=0;image=data:image/svg+xml,PHN2ZyB4bWxucz0iaHR0cDovL3d3dy53My5vcmcvMjAwMC9zdmciIHZpZXdCb3g9IjAgMCAzOTggNTExLjM2IiBjbGlwLXJ1bGU9ImV2ZW5vZGQiIGZpbGwtcnVsZT0iZXZlbm9kZCIgaW1hZ2UtcmVuZGVyaW5nPSJvcHRpbWl6ZVF1YWxpdHkiIHRleHQtcmVuZGVyaW5nPSJnZW9tZXRyaWNQcmVjaXNpb24iIHNoYXBlLXJlbmRlcmluZz0iZ2VvbWV0cmljUHJlY2lzaW9uIj48cGF0aCBkPSJNMjYwLjg5IDUxMS4zNkgxMjguMjNWMzkwLjU4TDEwLjM1IDI1MC43MWMtNC42Ni01Ljc5LTcuODctMTEuOC05LjM0LTE3LjM1LTEuNC01LjIyLTEuMzctMTAuMzIuMjUtMTQuODQgMS44LTUuMDEgNS4zOS05LjA0IDEwLjgyLTExLjU4IDMuNzQtMS43NSA4LjM3LTIuNzQgMTMuODgtMi43Nmw1OC4zMi0uMDFWNDMuODdjMC0xMi4wOCA0Ljk1LTIzLjA2IDEyLjg4LTMwLjk5bC42OS0uNjNDMTA1Ljc1IDQuNjggMTE2LjQ2IDAgMTI4LjE2IDBoMTE3LjM2YzMuMjYgMCA2LjE2IDEuNTggNy45OCA0LjAxbDczLjY5IDc5LjdhOS44ODIgOS44ODIgMCAwIDEgMi42NCA2Ljc0bC4wNiAxMTMuNjhoMzcuNTZjNi4xNy0uMjIgMTEuNjIuNzQgMTYuMTIgMi42OCA1LjQ2IDIuMzEgOS41NSA2LjExIDEyLjAxIDExLjAxIDIuMzcgNC43NCAzLjA1IDEwLjMxIDEuODEgMTYuMzctMS4xNiA1LjYzLTQuMDEgMTEuNzUtOC44IDE4TDI3MC40OCAzOTAuNjR2MTIwLjcyaC05LjU5em03NC4zMy0yNTguMjctNTMuNzcgNjMtMTQuNTEtMTIuNDQgNTMuNzYtNjMgMTQuNTIgMTIuNDR6bS02NS45MyA3Ny4yNi0xOSAyMi4yOC0xNC41Mi0xMi40NSAxOS4wMS0yMi4yOCAxNC41MSAxMi40NXpNMTU2LjMxIDEzNS4yNmMtNC43MSAwLTguNTQtMy44My04LjU0LTguNTQgMC00LjcxIDMuODMtOC41NCA4LjU0LTguNTRoMTAxLjU3YzQuNzEgMCA4LjU0IDMuODMgOC41NCA4LjU0IDAgNC43MS0zLjgzIDguNTQtOC41NCA4LjU0SDE1Ni4zMXptMi42OSA0My44MWMtNC43MiAwLTguNTUtMy44My04LjU1LTguNTQgMC00LjcyIDMuODMtOC41NCA4LjU1LTguNTRoOTYuMThjNC43MSAwIDguNTQgMy44MiA4LjU0IDguNTQgMCA0LjcxLTMuODMgOC41NC04LjU0IDguNTRIMTU5em05MC44Mi0xNDkuODJ2MjkuNDdjLjY3IDguNzMgMy43MSAxNS41OCA5LjA1IDIwLjE0IDUuNTIgNC43MSAxMy44IDcuMzggMjQuNzYgNy41OGwxOS4wNC0uMDMtNTIuODUtNTcuMTZ6bTYwLjExIDc0LjI0LTI2LjQzLS4wNGMtMTUuMTgtLjI0LTI3LjEzLTQuMzItMzUuNzEtMTEuNjUtOC45My03LjYzLTEzLjk1LTE4LjQ1LTE0Ljk3LTMxLjg2bC0uMDktMzkuOThIMTI4LjE2Yy02LjM1IDAtMTIuMTYgMi41LTE2LjQxIDYuNTNsLS40Ny41Yy00LjMzIDQuMzMtNy4wNCAxMC4zMy03LjA0IDE2Ljg4djE2MC4zbDIwNS42OS0uMDNWMTAzLjQ5ek05Ny4yOSAyMjMuM2MtLjk1LjMxLTEuOTguNDctMy4wMy40Ny0xLjA0IDAtMi4wNy0uMTYtMy4wMi0uNDdsLTY1LjI0LjAxYy0yLjYtLjAzLTQuNTQuMzItNS44NC45Mi0uNTMuMjUtLjg0LjUxLS45Mi43Mi0uMjQuNzEtLjE1IDEuOTIuMjYgMy40Ny44MiAzLjA3IDIuODEgNi42NSA1Ljc0IDEwLjMybDExOS44OSAxNDIuMjcgMi4yOCA2LjE0djEwNS4wM0gyNTEuM1YzODcuMTVsMi4zMy02LjIyIDExOS44NC0xNDAuNDZjMi45NC0zLjg3IDQuNjItNy4yOSA1LjIxLTEwLjEzLjM2LTEuNzEuMjctMy4wOC0uMTktMy45OS0uMzctLjc1LTEuMjItMS40NS0yLjQ3LTEuOTgtMS45Ny0uODgtNC43MS0xLjI3LTguMTItMS4xbC0yNzAuNjEuMDN6IiBmaWxsLXJ1bGU9Im5vbnplcm8iLz48L3N2Zz4=;" vertex="1" parent="1">
                    <mxGeometry x="180" y="262.09" width="72.15" height="92.64" as="geometry"/>
                </mxCell>
                <mxCell id="55" value="Data Analysis tier" style="text;strokeColor=none;fillColor=none;html=1;fontSize=24;fontStyle=1;verticalAlign=middle;align=center;strokeWidth=3;" vertex="1" parent="1">
                    <mxGeometry x="1170" y="320" width="100" height="40" as="geometry"/>
                </mxCell>
                <mxCell id="60" value="Data storage" style="text;strokeColor=none;fillColor=none;html=1;fontSize=24;fontStyle=1;verticalAlign=middle;align=center;strokeWidth=6;" vertex="1" parent="1">
                    <mxGeometry x="1520" y="320" width="100" height="40" as="geometry"/>
                </mxCell>
                <mxCell id="61" value="" style="shape=image;verticalLabelPosition=bottom;labelBackgroundColor=default;verticalAlign=top;aspect=fixed;imageAspect=0;image=data:image/svg+xml,PHN2ZyB4bWxucz0iaHR0cDovL3d3dy53My5vcmcvMjAwMC9zdmciIHZpZXdCb3g9IjAgMCAxMDcuMjIgMTIyLjg4IiBkYXRhLW5hbWU9IkxheWVyIDEiIGlkPSJMYXllcl8xIj48dGl0bGU+YW5hbHl0aWNzPC90aXRsZT48cGF0aCBkPSJNOTIuMzYsMjkuMzh2NjAuMmExLjg4LDEuODgsMCwwLDEsMCwuMzRjMCwuNjUsMCwxLjI4LS4wNiwxLjg4djQuMzRhMTEuNDEsMTEuNDEsMCwwLDEtMy4zOSw3LjY0LDEwLjM1LDEwLjM1LDAsMCwxLTcuNCwzLjE0SDgxYTUzLjg2LDUzLjg2LDAsMCwxLTguMjksMEgyM3Y1LjE0QTQuODgsNC44OCwwLDAsMCwyNy44OCwxMTdIOTYuNDRhNC45LDQuOSwwLDAsMCw0Ljg4LTQuODhWMzQuMjZhNC45Miw0LjkyLDAsMCwwLTQuODgtNC44OFpNNDcuNzgsNzcuMjZsMTQuOTUuMjVhMTUuMzgsMTUuMzgsMCwwLDEtNywxMi44N0w0Ny43OCw3Ny4yNlpNNDcsNzIuODIsNDYuNzgsNTZWNTQuODRsMS4xNS4wOWgwYTIxLjU5LDIxLjU5LDAsMCwxLDQuMTMuNjgsMTkuOTIsMTkuOTIsMCwwLDEsMy43OCwxLjQ1QTE5LjM0LDE5LjM0LDAsMCwxLDY2LjQ4LDczLjI1bC4wOSwxLjExSDY1LjQzTDQ4LjEsNzMuODVoLTFsLS4xNy0xWk00OC45LDU3bC4xNywxNC44MywxNS4yMS40M2ExNy40NCwxNy40NCwwLDAsMC05LjQxLTEzLjQ3LDIyLDIyLDAsMCwwLTMuMzQtMS4yOGMtMS0uMTctMS43Ni0uMzQtMi42My0uNTFaTTQyLjc3LDc1Ljc1LDUxLjMsOTAuMDdhMTcuNjQsMTcuNjQsMCwwLDEtOC41MywyLjIyLDE2LjU0LDE2LjU0LDAsMSwxLS43LTMzLjA3bC43LDE2LjUzWm0uNy01My42M2g0Ljg3YS40LjQsMCwwLDEsLjQzLjQzVjM1LjQ5YS40LjQsMCwwLDEtLjQzLjQzSDQzLjQ3YS40LjQsMCwwLDEtLjQzLS40M1YyMi41NWEuNDYuNDYsMCwwLDEsLjQzLS40M1ptMjUuNywwSDc0YS40LjQsMCwwLDEsLjQzLjQzVjM1LjQ5YS40LjQsMCwwLDEtLjQzLjQzSDY5LjE3YS40LjQsMCwwLDEtLjQzLS40M1YyMi41NWEuNDYuNDYsMCwwLDEsLjQzLS40M1pNNTYuMzIsMTIuOTFoNC44N2EuNC40LDAsMCwxLC40My40M1YzNS40OWEuNC40LDAsMCwxLS40My40M0g1Ni4zMmEuNC40LDAsMCwxLS40My0uNDNWMTMuMzRhLjQuNCwwLDAsMSwuNDMtLjQzWm0tMzguNTQsMy4zaDQuODdhLjQxLjQxLDAsMCwxLC40My40NFYzNS40OWEuNC40LDAsMCwxLS40My40M0gxNy43OGEuNC40LDAsMCwxLS40My0uNDNWMTYuNjVjLS4wOS0uMjcuMTctLjQ0LjQzLS40NFptMTIuODQtMy4zaDQuODdhLjQuNCwwLDAsMSwuNDMuNDNWMzUuNDlhLjQuNCwwLDAsMS0uNDMuNDNIMzAuNjJhLjQuNCwwLDAsMS0uNDMtLjQzVjEzLjM0YS40LjQsMCwwLDEsLjQzLS40M1pNMTAuNzksMGg3MC43YTEwLjcyLDEwLjcyLDAsMCwxLDcuNjIsMy4xN2wuMTcuMTlhMTAuNzEsMTAuNzEsMCwwLDEsMyw3LjQzVjIzLjQ3aDQuMTZhMTAuODEsMTAuODEsMCwwLDEsMTAuNzgsMTAuNzl2NzcuODNhMTAuODEsMTAuODEsMCwwLDEtMTAuNzgsMTAuNzlIMjcuODhhMTAuODIsMTAuODIsMCwwLDEtMTAuNzktMTAuNzl2LTUuMTdoLTYuM2ExMC43NiwxMC43NiwwLDAsMS03LjYyLTMuMTdoMEExMC43NCwxMC43NCwwLDAsMSwwLDk2LjE0VjEwLjc5QTEwLjgyLDEwLjgyLDAsMCwxLDEwLjc5LDBabTcwLjcsNS45MUgxMC43OWE0Ljg4LDQuODgsMCwwLDAtNC44OCw0Ljg4VjQwLjkySDg2LjM3VjEwLjc5YTQuODcsNC44NywwLDAsMC0xLjMxLTMuMzNsLS4xMi0uMTJhNC45LDQuOSwwLDAsMC0zLjQ1LTEuNDNaTTUuOTEsNDYuODNWOTYuMTRhNC44Niw0Ljg2LDAsMCwwLDEuNDMsMy40NGgwQTQuODcsNC44NywwLDAsMCwxMC43OSwxMDFIODEuMTJhNi4xMSw2LjExLDAsMCwwLDMuMzMtMS4yNmMxLjI2LTEuMTQsMS43Mi0zLjU1LDEuOTItNy41M1Y0Ni44M1oiLz48L3N2Zz4=;" vertex="1" parent="1">
                    <mxGeometry x="1000" y="266.22" width="77" height="88.51" as="geometry"/>
                </mxCell>
                <mxCell id="62" value="Data Access tier" style="text;strokeColor=none;fillColor=none;html=1;fontSize=24;fontStyle=1;verticalAlign=middle;align=center;strokeWidth=6;" vertex="1" parent="1">
                    <mxGeometry x="2010" y="300" width="100" height="40" as="geometry"/>
                </mxCell>
                <mxCell id="64" value="" style="shape=image;verticalLabelPosition=bottom;labelBackgroundColor=default;verticalAlign=top;aspect=fixed;imageAspect=0;image=data:image/svg+xml,PHN2ZyB4bWxuczp4bGluaz0iaHR0cDovL3d3dy53My5vcmcvMTk5OS94bGluayIgeG1sbnM9Imh0dHA6Ly93d3cudzMub3JnLzIwMDAvc3ZnIiB4bWw6c3BhY2U9InByZXNlcnZlIiBzdHlsZT0iZW5hYmxlLWJhY2tncm91bmQ6bmV3IDAgMCAxMjIuODggMTAwLjMzIiB2aWV3Qm94PSIwIDAgMTIyLjg4IDEwMC4zMyIgeT0iMHB4IiB4PSIwcHgiIGlkPSJMYXllcl8xIiB2ZXJzaW9uPSIxLjEiPjxzdHlsZSB0eXBlPSJ0ZXh0L2NzcyI+Cgkuc3Qwe2ZpbGwtcnVsZTpldmVub2RkO2NsaXAtcnVsZTpldmVub2RkO30KPC9zdHlsZT48Zz48cGF0aCBkPSJNMTAyLjc5LDcuMTFsMi41OSwzLjQxYzAuNjgsMC45LDAuNTEsMi4xOS0wLjM5LDIuODdsLTIuNzUsMi4wOWMwLjUsMS4zMywwLjgyLDIuNzUsMC45NSw0LjJsMy4xMywwLjQzIGMxLjEyLDAuMTUsMS45LDEuMTksMS43NSwyLjMxbC0wLjU4LDQuMjVjLTAuMTUsMS4xMi0xLjE5LDEuOTEtMi4zMSwxLjc1bC0zLjQyLTAuNDdjLTAuNjEsMS4zMy0xLjM5LDIuNTUtMi4zMSwzLjY0bDEuOTIsMi41MiBjMC42OCwwLjksMC41LDIuMTktMC40LDIuODdsLTMuNDEsMi41OWMtMC45LDAuNjgtMi4xOSwwLjUtMi44Ny0wLjM5bC0yLjA5LTIuNzVjLTEuMzQsMC41LTIuNzUsMC44Mi00LjIxLDAuOTVsLTAuNDMsMy4xMyBjLTAuMTUsMS4xMi0xLjE5LDEuOS0yLjMxLDEuNzVsLTQuMjUtMC41OGMtMS4xMi0wLjE1LTEuOS0xLjE5LTEuNzUtMi4zMWwwLjQ3LTMuNDJjLTEuMzItMC42MS0yLjU1LTEuMzktMy42NC0yLjNsLTIuNTIsMS45MSBjLTAuOSwwLjY4LTIuMTksMC41MS0yLjg3LTAuMzlsLTIuNTktMy40MWMtMC42OC0wLjktMC41MS0yLjE5LDAuMzktMi44N2wyLjc1LTIuMDljLTAuNS0xLjM0LTAuODItMi43NS0wLjk1LTQuMmwtMy4xMy0wLjQzIGMtMS4xMi0wLjE1LTEuOTEtMS4xOS0xLjc1LTIuMzFsMC41OC00LjI1YzAuMTYtMS4xMiwxLjE5LTEuOSwyLjMxLTEuNzVsMy40MiwwLjQ3YzAuNjEtMS4zMiwxLjM5LTIuNTUsMi4zLTMuNjRsLTEuOTEtMi41MiBDNzEuODMsNy4yOCw3Miw1Ljk5LDcyLjksNS4zMWwzLjQxLTIuNTljMC45LTAuNjgsMi4xOS0wLjUxLDIuODcsMC4zOWwyLjA5LDIuNzVjMS4zMy0wLjUsMi43NS0wLjgyLDQuMi0wLjk1bDAuNDMtMy4xMyBjMC4xNS0xLjEyLDEuMTktMS45MSwyLjMxLTEuNzZsNC4yNSwwLjU4YzEuMTIsMC4xNSwxLjkxLDEuMTksMS43NSwyLjMxbC0wLjQ3LDMuNDJjMS4zMywwLjYxLDIuNTUsMS4zOSwzLjY1LDIuMzFsMi41Mi0xLjkxIEMxMDAuODEsNi4wNCwxMDIuMSw2LjIxLDEwMi43OSw3LjExTDEwMi43OSw3LjExTDEwMi43OSw3LjExeiBNMjkuNjcsNjcuMTJ2LTE2LjVoOC41YzEuNTgsMCwyLjc4LDAuMTMsMy42MSwwLjQxIGMwLjgzLDAuMjcsMS41MSwwLjc3LDIuMDEsMS41YzAuNTEsMC43NCwwLjc3LDEuNjMsMC43NywyLjY4YzAsMC45MS0wLjIsMS43MS0wLjU5LDIuMzdjLTAuMzksMC42Ny0wLjkzLDEuMjEtMS42MSwxLjYyIGMtMC40MywwLjI2LTEuMDMsMC40OC0xLjc5LDAuNjVjMC42MSwwLjIxLDEuMDUsMC40LDEuMzIsMC42MWMwLjE5LDAuMTQsMC40NiwwLjQzLDAuODEsMC44N2MwLjM1LDAuNDQsMC41OSwwLjc5LDAuNzEsMS4wMyBsMi40OCw0Ljc3aC01Ljc2bC0yLjcyLTUuMDNjLTAuMzUtMC42NS0wLjY1LTEuMDgtMC45Mi0xLjI3Yy0wLjM3LTAuMjUtMC43OS0wLjM4LTEuMjUtMC4zOGgtMC40NXY2LjY4SDI5LjY3TDI5LjY3LDY3LjEyeiBNNDcuNjUsOTUuODVoLTkuNTJsLTEuMzcsNC40OGgtOC41OGwxMC4yMy0yNy4xOWg5LjJsMTAuMTksMjcuMTloLTguOEw0Ny42NSw5NS44NUw0Ny42NSw5NS44NXogTTQ1Ljg3LDg5Ljk2bC0yLjk3LTkuNzggbC0yLjk4LDkuNzhINDUuODdMNDUuODcsODkuOTZ6IE01OS43OCw3My4xNGgxMy45OGMzLjA1LDAsNS4zMywwLjcyLDYuODQsMi4xN2MxLjUxLDEuNDUsMi4yNywzLjUyLDIuMjcsNi4xOSBjMCwyLjc1LTAuODMsNC45LTIuNDgsNi40NWMtMS42NSwxLjU1LTQuMTgsMi4zMi03LjU3LDIuMzJoLTQuNjF2MTAuMDZoLTguNDNWNzMuMTRMNTkuNzgsNzMuMTR6IE02OC4yMSw4NC43NmgyLjA3IGMxLjYzLDAsMi43OC0wLjI4LDMuNDQtMC44NWMwLjY2LTAuNTYsMC45OS0xLjI5LDAuOTktMi4xNmMwLTAuODUtMC4yOS0xLjU4LTAuODYtMi4xN2MtMC41Ny0wLjU5LTEuNjUtMC44OS0zLjIzLTAuODloLTIuNDEgVjg0Ljc2TDY4LjIxLDg0Ljc2eiBNODYuMjcsNzMuMTRoOC40M3YyNy4xOWgtOC40M1Y3My4xNEw4Ni4yNyw3My4xNHogTTM0Ljc5LDU3LjMyaDIuMTVjMC4yMywwLDAuNjgtMC4wOCwxLjM1LTAuMjMgYzAuMzQtMC4wNywwLjYyLTAuMjQsMC44My0wLjUyYzAuMjItMC4yOCwwLjMyLTAuNiwwLjMyLTAuOTZjMC0wLjUzLTAuMTctMC45NS0wLjUxLTEuMjNjLTAuMzQtMC4yOS0wLjk3LTAuNDMtMS45LTAuNDNoLTIuMjQgVjU3LjMyTDM0Ljc5LDU3LjMyeiBNNDYuODcsNTAuNjJoMTMuNjV2My41MmgtOC41M3YyLjYzaDcuOTF2My4zNmgtNy45MXYzLjI1aDguNzh2My43M2gtMTMuOVY1MC42Mkw0Ni44Nyw1MC42MnogTTYxLjk4LDYxLjY2IGw0Ljg0LTAuM2MwLjEsMC43OSwwLjMyLDEuMzgsMC42NCwxLjc5YzAuNTMsMC42NiwxLjI4LDEsMi4yNSwxYzAuNzIsMCwxLjI5LTAuMTcsMS42OC0wLjUxYzAuMzktMC4zNCwwLjU5LTAuNzQsMC41OS0xLjE5IGMwLTAuNDMtMC4xOS0wLjgxLTAuNTYtMS4xNWMtMC4zNy0wLjM0LTEuMjQtMC42NS0yLjYxLTAuOTZjLTIuMjMtMC41LTMuODItMS4xNy00Ljc4LTJjLTAuOTYtMC44My0xLjQ0LTEuODktMS40NC0zLjE4IGMwLTAuODUsMC4yNS0xLjY1LDAuNzQtMi40YzAuNDktMC43NSwxLjIzLTEuMzUsMi4yMi0xLjc4YzAuOTktMC40MywyLjM0LTAuNjQsNC4wNi0wLjY0YzIuMTEsMCwzLjcxLDAuMzksNC44MiwxLjE4IGMxLjEsMC43OSwxLjc2LDIuMDMsMS45NywzLjc1bC00Ljc5LDAuMjljLTAuMTMtMC43NS0wLjQtMS4zLTAuOC0xLjYzYy0wLjQxLTAuMzQtMC45OC0wLjUxLTEuNjktMC41MSBjLTAuNTksMC0xLjA0LDAuMTMtMS4zNCwwLjM4Yy0wLjMsMC4yNS0wLjQ1LDAuNTYtMC40NSwwLjkyYzAsMC4yNiwwLjEzLDAuNDksMC4zNywwLjcxYzAuMjQsMC4yMSwwLjgsMC40MiwxLjcsMC42MSBjMi4yMywwLjQ4LDMuODMsMC45Nyw0Ljc5LDEuNDZjMC45NiwwLjQ5LDEuNjcsMS4xLDIuMSwxLjgzYzAuNDQsMC43MiwwLjY2LDEuNTQsMC42NiwyLjQ0YzAsMS4wNi0wLjI5LDIuMDMtMC44OCwyLjkyIGMtMC41OCwwLjg5LTEuNCwxLjU3LTIuNDUsMi4wM2MtMS4wNSwwLjQ2LTIuMzcsMC42OS0zLjk3LDAuNjljLTIuOCwwLTQuNzUtMC41NC01LjgzLTEuNjJDNjIuNzQsNjQuNjksNjIuMTMsNjMuMzIsNjEuOTgsNjEuNjYgTDYxLjk4LDYxLjY2eiBNNzcuNjksNTAuNjJoMTUuNTF2NC4wOEg4OHYxMi40Mkg4Mi45VjU0LjdoLTUuMjFWNTAuNjJMNzcuNjksNTAuNjJ6IE02MC41MywxMS40NmMtMS44My0wLjE0LTMuNjgtMC4xMi01LjUxLDAuMDYgYy01LjYzLDAuNTQtMTEuMSwyLjU5LTE1LjYyLDYuMWMtNS4yMyw0LjA1LTkuMiwxMC4xMS0xMC43MywxOC4xNGwtMC40OCwyLjUxbC0yLjUsMC40NGMtMi40NSwwLjQzLTQuNjQsMS4wMi02LjU2LDEuNzcgYy0xLjg2LDAuNzItMy41MiwxLjYxLTQuOTcsMi42NmMtMS4xNiwwLjg0LTIuMTYsMS43OC0zLjAxLDIuOGMtMi42MywzLjE1LTMuODUsNy4xLTMuODIsMTEuMWMwLjAzLDQuMDYsMS4zNSw4LjE2LDMuNzksMTEuNTMgYzAuOTEsMS4yNSwxLjk2LDIuNCwzLjE2LDMuNGMxLjIyLDEuMDEsMi41OSwxLjg1LDQuMTMsMi40OGMwLjg3LDAuMzYsMS44LDAuNjYsMi43NywwLjl2Ny40OWMtMi0wLjM2LTMuODQtMC45LTUuNTYtMS42MSBjLTIuMjctMC45NC00LjI4LTIuMTUtNi4wNS0zLjYzYy0xLjY4LTEuNC0zLjE1LTIuOTktNC40LTQuNzJDMS44NCw2OC4yOCwwLjA0LDYyLjY2LDAsNTcuMDZjLTAuMDQtNS42NiwxLjcyLTExLjI5LDUuNTItMTUuODUgYzEuMjMtMS40OCwyLjY4LTIuODQsNC4zNC00LjA0YzEuOTMtMS40LDQuMTQtMi41OCw2LjY0LTMuNTVjMS43Mi0wLjY3LDMuNTYtMS4yMyw1LjUtMS42OGMyLjItOC43NCw2Ljg5LTE1LjQ3LDEyLjkyLTIwLjE0IGM1LjY0LTQuMzcsMTIuNDMtNi45MiwxOS40Mi03LjU5YzMuNjctMC4zNSw3LjM5LTAuMTksMTEuMDMsMC40OWMtMC4wOCwwLjMzLTAuMTUsMC42Ni0wLjE5LDFsLTAuMDEsMC4wNiBjLTAuMDcsMC41Ny0wLjEsMS4xNC0wLjA3LDEuNzJjLTAuNzcsMC4zLTEuNDksMC43MS0yLjE0LDEuMjFsLTAuMDMsMC4wMkM2MS45Niw5LjQ0LDYxLjE0LDEwLjM4LDYwLjUzLDExLjQ2TDYwLjUzLDExLjQ2eiBNMTEzLjQ0LDMwLjY2YzAuNTYsMC41MSwxLjEsMS4wNCwxLjYzLDEuNjFjMS4wNywxLjE1LDIuMDgsMi40NSwzLjAzLDMuOWMzLjIsNC45Miw0Ljg0LDExLjQ5LDQuNzcsMTcuOTIgYy0wLjA3LDYuMzEtMS43NywxMi41OS01LjI1LDE3LjIxYy0yLjI3LDMuMDEtNS4xOCw1LjQ3LTguNjcsNy40MmMtMi4zOSwxLjM0LTUuMDgsMi40NS04LjAxLDMuMzV2LTcuNzUgYzEuNTgtMC41OSwzLjA1LTEuMjUsNC40LTJjMi42My0xLjQ3LDQuNzgtMy4yNiw2LjM5LTUuNDFjMi41LTMuMzMsMy43My04LjA0LDMuNzgtMTIuODdjMC4wNi01LjA3LTEuMTgtMTAuMTYtMy41OS0xMy44NiBjLTAuNjktMS4wNy0xLjQ1LTIuMDMtMi4yNS0yLjg5Yy0wLjMxLTAuMzMtMC42Mi0wLjY0LTAuOTQtMC45NGMwLjA1LTAuNSwwLjA3LTEuMDEsMC4wNC0xLjUyYzAuNzctMC4zLDEuNDktMC43MSwyLjE0LTEuMjEgbDAuMDMtMC4wMkMxMTEuOTcsMzIuODEsMTEyLjgzLDMxLjgxLDExMy40NCwzMC42NkwxMTMuNDQsMzAuNjZ6IE04OC4wOCwxMi44YzQuNjEsMC42Myw3LjgzLDQuODgsNy4yLDkuNDkgYy0wLjYzLDQuNjEtNC44OCw3Ljg0LTkuNDksNy4yMWMtNC42MS0wLjYzLTcuODQtNC44OC03LjItOS40OUM3OS4yMywxNS40LDgzLjQ3LDEyLjE3LDg4LjA4LDEyLjhMODguMDgsMTIuOEw4OC4wOCwxMi44eiIgY2xhc3M9InN0MCIvPjwvZz48L3N2Zz4=;" vertex="1" parent="1">
                    <mxGeometry x="1892.67" y="430" width="87.33" height="71" as="geometry"/>
                </mxCell>
                <mxCell id="65" value="" style="line;strokeWidth=4;direction=south;html=1;perimeter=backbonePerimeter;points=[];outlineConnect=0;" vertex="1" parent="1">
                    <mxGeometry x="2010" y="420" width="10" height="160" as="geometry"/>
                </mxCell>
                <mxCell id="66" value="" style="shape=image;verticalLabelPosition=bottom;labelBackgroundColor=default;verticalAlign=top;aspect=fixed;imageAspect=0;image=data:image/svg+xml,PHN2ZyB4bWxuczp4bGluaz0iaHR0cDovL3d3dy53My5vcmcvMTk5OS94bGluayIgeG1sbnM9Imh0dHA6Ly93d3cudzMub3JnLzIwMDAvc3ZnIiB4bWw6c3BhY2U9InByZXNlcnZlIiBzdHlsZT0iZW5hYmxlLWJhY2tncm91bmQ6bmV3IDAgMCA5NiA4NS44OCIgdmlld0JveD0iMCAwIDk2IDg1Ljg4IiB5PSIwcHgiIHg9IjBweCIgaWQ9IkxheWVyXzEiIHZlcnNpb249IjEuMSI+PGc+PHBhdGggZD0iTTkwLjIxLDUwLjkzYy0xLjg3LDkuOTItNy4xNiwxOC42NC0xNC41OSwyNC44OWMtNy40Nyw2LjI4LTE3LjEsMTAuMDYtMjcuNiwxMC4wNmMtOS44NywwLTE4Ljk3LTMuMzQtMjYuMjMtOC45NSBDMTQuMzgsNzEuMiw4Ljg5LDYzLjEsNi40Niw1My43Nmw1LjM2LTEuMzljMi4xMSw4LjEzLDYuODksMTUuMTksMTMuMzUsMjAuMThjNi4zMSw0Ljg4LDE0LjIzLDcuNzgsMjIuODQsNy43OCBjOS4xNywwLDE3LjU1LTMuMjksMjQuMDQtOC43NGM2LjIxLTUuMjIsMTAuNy0xMi40MywxMi40OS0yMC42NWgtNS43Mmw4LjU5LTEwLjQ2TDk2LDUwLjkzTDkwLjIxLDUwLjkzTDkwLjIxLDUwLjkzTDkwLjIxLDUwLjkzeiBNNjEuMzUsMjcuMjNjLTAuMDUtMC4wNS0wLjA5LTAuMDgtMC4xMy0wLjExYy0wLjA0LTAuMDMtMC4wOS0wLjA1LTAuMTMtMC4wN2wtMC4wMS0wLjAxYy0wLjAzLTAuMDItMC4wNy0wLjAzLTAuMTItMC4wNGwwLDAgQzYwLjkyLDI3LDYwLjg3LDI3LDYwLjgxLDI3Yy0wLjA2LDAtMC4xMiwwLTAuMTcsMC4wMWMtMC4wNSwwLjAxLTAuMDksMC4wMi0wLjEyLDAuMDRsLTAuMDIsMC4wMWMtMC4wMywwLjAyLTAuMDcsMC4wNC0wLjExLDAuMDYgYy0wLjA0LDAuMDMtMC4wOCwwLjA2LTAuMTMsMC4xMWwtMi4zMiwyLjMyYy0wLjI0LDAuMjQtMC41NCwwLjM3LTAuODUsMC40Yy0wLjMxLDAuMDMtMC42My0wLjA1LTAuOS0wLjI0IGMtMC4xMi0wLjA4LTAuMjYtMC4xNi0wLjQtMC4yNGwwLDBjLTAuMTctMC4xLTAuMzEtMC4xOC0wLjQzLTAuMjRsLTAuMDItMC4wMWMtMC4xNC0wLjA4LTAuMjktMC4xNi0wLjQ0LTAuMjMgYy0wLjE1LTAuMDgtMC4zMS0wLjE1LTAuNDYtMC4yMWwtMC4wMS0wLjAxYy0wLjE0LTAuMDctMC4zLTAuMTQtMC40Ny0wLjIxYy0wLjE3LTAuMDctMC4zMy0wLjEzLTAuNDktMC4xOWwtMC4wMy0wLjAxIGMtMC4yLTAuMDgtMC40NS0wLjE2LTAuNzEtMC4yNUw1Mi40NywyOGMtMC4yOC0wLjA5LTAuNTEtMC4yNy0wLjY2LTAuNDljLTAuMTctMC4yMy0wLjI2LTAuNTItMC4yNi0wLjgxdi0zLjU1IGMwLTAuMDYsMC0wLjEyLTAuMDEtMC4xN2wwLTAuMDFjLTAuMDEtMC4wNC0wLjAyLTAuMDgtMC4wMy0wLjEyYy0wLjAyLTAuMDQtMC4wNC0wLjA5LTAuMDctMC4xM2MtMC4wMy0wLjA0LTAuMDYtMC4wOC0wLjEtMC4xMiBzLTAuMDgtMC4wNy0wLjEyLTAuMWMtMC4wNC0wLjAzLTAuMDgtMC4wNS0wLjEzLTAuMDdsMCwwYy0wLjA0LTAuMDItMC4wOC0wLjAzLTAuMTMtMC4wNGMtMC4wNS0wLjAxLTAuMS0wLjAxLTAuMTctMC4wMWgtNC40NSBjLTAuMDYsMC0wLjExLDAtMC4xNiwwLjAxYy0wLjA0LDAuMDEtMC4wOCwwLjAyLTAuMTIsMC4wNGwtMC4wMiwwLjAxYy0wLjA0LDAuMDItMC4wOCwwLjA0LTAuMTEsMC4wNiBjLTAuMDQsMC4wMy0wLjA5LDAuMDYtMC4xMywwLjExYy0wLjA0LDAuMDQtMC4wNywwLjA4LTAuMSwwLjEyYy0wLjAzLDAuMDQtMC4wNSwwLjA4LTAuMDcsMC4xM2MtMC4wMiwwLjA0LTAuMDMsMC4wOC0wLjA0LDAuMTIgYy0wLjAxLDAuMDUtMC4wMSwwLjEtMC4wMSwwLjE3djMuMjRjMCwwLjMzLTAuMTIsMC42NC0wLjMyLDAuODhjLTAuMiwwLjI0LTAuNDksMC40Mi0wLjgxLDAuNDdjLTAuMjcsMC4wNi0wLjUyLDAuMTMtMC43NSwwLjIgbC0wLjIyLDAuMDZjLTAuMzEsMC4wOS0wLjYzLDAuMjEtMC45NSwwLjMzbC0wLjAzLDAuMDFjLTAuMDIsMC4wMS0wLjA0LDAuMDEtMC4wNywwLjAyYy0wLjE3LDAuMDYtMC4zNCwwLjE0LTAuNTIsMC4yMiBjLTAuMTIsMC4wNS0wLjIzLDAuMS0wLjM1LDAuMTVjLTAuMzEsMC4xNC0wLjYsMC4yOS0wLjg2LDAuNDNjLTAuMjcsMC4xNS0wLjU3LDAuMi0wLjg1LDAuMTZjLTAuMjktMC4wNC0wLjU3LTAuMTctMC43OC0wLjM5IGMtMC44LTAuODYtMS43NC0xLjcyLTIuNTgtMi41NmMtMC4wNC0wLjA0LTAuMDktMC4wOC0wLjEzLTAuMTFsLTAuMDItMC4wMWMtMC4wMi0wLjAxLTAuMDQtMC4wMi0wLjA1LTAuMDMgYy0wLjAyLTAuMDEtMC4wMy0wLjAxLTAuMDUtMC4wMmwwLDBjLTAuMDItMC4wMS0wLjA2LTAuMDItMC4wOS0wLjAzYy0wLjA0LTAuMDEtMC4xLTAuMDEtMC4xNS0wLjAxYy0wLjA2LDAtMC4xMSwwLTAuMTYsMC4wMSBsLTAuMDEsMGMtMC4wNCwwLjAxLTAuMDgsMC4wMi0wLjExLDAuMDNsLTAuMDEsMC4wMWMtMC4wNCwwLjAyLTAuMDgsMC4wNC0wLjEyLDAuMDdjLTAuMDUsMC4wNC0wLjEsMC4wOC0wLjE2LDAuMTRsLTMuMDksMy4xMSBjLTAuMDUsMC4wNS0wLjEsMC4xLTAuMTMsMC4xNGMtMC4wMywwLjA0LTAuMDUsMC4wOC0wLjA3LDAuMTJsLTAuMDEsMC4wMmMtMC4wMSwwLjAzLTAuMDIsMC4wNy0wLjAzLDAuMTFsMCwwIGMtMC4wMSwwLjA1LTAuMDEsMC4xLTAuMDEsMC4xNmMwLDAuMTIsMC4wMiwwLjIxLDAuMDUsMC4yOWMwLjA0LDAuMDgsMC4xLDAuMTcsMC4xOSwwLjI2bDIuMzIsMi4zMmMwLjI0LDAuMjQsMC4zNywwLjU0LDAuNCwwLjg1IGMwLjAzLDAuMzEtMC4wNSwwLjYzLTAuMjQsMC45Yy0wLjA4LDAuMTMtMC4xNiwwLjI2LTAuMjQsMC40bDAsMGMtMC4xLDAuMTctMC4xOCwwLjMxLTAuMjQsMC40M2wtMC4wMSwwLjAyIGMtMC4wOCwwLjE0LTAuMTYsMC4yOS0wLjIzLDAuNDRjLTAuMDgsMC4xNS0wLjE0LDAuMzEtMC4yMSwwLjQ2bC0wLjAxLDAuMDFjLTAuMDcsMC4xNC0wLjE0LDAuMy0wLjIxLDAuNDcgYy0wLjA3LDAuMTctMC4xMywwLjMzLTAuMTksMC40OWwtMC4wMSwwLjAzYy0wLjA4LDAuMi0wLjE2LDAuNDUtMC4yNSwwLjcxbC0wLjA5LDAuMjZjLTAuMDksMC4yOS0wLjI3LDAuNTItMC41LDAuNjggYy0wLjIzLDAuMTctMC41MiwwLjI2LTAuODEsMC4yNmgtMy41NWMtMC4wNywwLTAuMTIsMC0wLjE3LDAuMDFjLTAuMDQsMC4wMS0wLjA5LDAuMDItMC4xMywwLjA0Yy0wLjA0LDAuMDItMC4wOSwwLjA0LTAuMTMsMC4wNyBjLTAuMDQsMC4wMy0wLjA4LDAuMDYtMC4xMiwwLjFjLTAuMDQsMC4wNC0wLjA3LDAuMDgtMC4xLDAuMTJjLTAuMDMsMC4wNC0wLjA1LDAuMDgtMC4wNywwLjEyYy0wLjAyLDAuMDUtMC4wMywwLjA5LTAuMDQsMC4xNCBjLTAuMDEsMC4wNS0wLjAxLDAuMS0wLjAxLDAuMTd2NC40NWMwLDAuMSwwLjAyLDAuMiwwLjA1LDAuMjdjMC4wMiwwLjA0LDAuMDQsMC4wOSwwLjA4LDAuMTRoMGMwLjAzLDAuMDUsMC4wNywwLjA5LDAuMTEsMC4xM2gwIGMwLjA0LDAuMDQsMC4wOCwwLjA3LDAuMTIsMC4xYzAuMDQsMC4wMywwLjA4LDAuMDUsMC4xMywwLjA3YzAuMDQsMC4wMiwwLjA4LDAuMDMsMC4xMiwwLjA0bDAuMDEsMGMwLjA1LDAuMDEsMC4xLDAuMDEsMC4xNiwwLjAxIGgzLjI0YzAuMzMsMCwwLjY0LDAuMTIsMC44OCwwLjMyYzAuMjQsMC4yLDAuNDIsMC40OSwwLjQ3LDAuODFjMC4wNiwwLjI3LDAuMTMsMC41MiwwLjIsMC43NWwwLjA2LDAuMjEgYzAuMDQsMC4xNCwwLjA5LDAuMywwLjE1LDAuNDZjMC4wNywwLjE5LDAuMTIsMC4zNCwwLjE4LDAuNDhjMC4wNiwwLjE2LDAuMTMsMC4zMSwwLjE5LDAuNDhjMC4wNiwwLjE2LDAuMTQsMC4zMiwwLjIxLDAuNSBjMC4xLDAuMjMsMC4yLDAuNDQsMC4zLDAuNjNsMC4xNiwwLjMyYzAuMTMsMC4yNiwwLjE3LDAuNTUsMC4xMywwLjgyYy0wLjA0LDAuMjktMC4xOCwwLjU1LTAuMzksMC43NiBjLTAuNzksMC43My0xLjgyLDEuNzQtMi41NCwyLjUzYy0wLjA1LDAuMDUtMC4wOSwwLjA5LTAuMTIsMC4xM2MtMC4wMiwwLjAzLTAuMDQsMC4wNS0wLjA0LDAuMDdjLTAuMDEsMC4wMi0wLjAxLDAuMDMtMC4wMiwwLjA1IGMtMC4wMSwwLjAyLTAuMDIsMC4wNS0wLjAzLDAuMDlsLTAuMDEsMC4wMmMtMC4wMSwwLjA0LTAuMDEsMC4wOC0wLjAxLDAuMTNjMCwwLjA2LDAsMC4xMSwwLjAxLDAuMTZsMCwwLjAxIGMwLjAxLDAuMDQsMC4wMiwwLjA3LDAuMDMsMC4xMWwwLjAxLDAuMDJjMC4wMSwwLjAzLDAuMDQsMC4wNywwLjA3LDAuMTFjMC4wNCwwLjA1LDAuMDgsMC4xMSwwLjE0LDAuMTdsMy4wNiwzLjExIGMwLjA1LDAuMDQsMC4xLDAuMDgsMC4xNCwwLjExYzAuMDQsMC4wMywwLjA5LDAuMDUsMC4xMywwLjA3bDAsMGMwLjA1LDAuMDIsMC4wOSwwLjAzLDAuMTQsMC4wNGMwLjA1LDAuMDEsMC4xMSwwLjAxLDAuMTcsMC4wMSBjMC4wNywwLDAuMTMsMCwwLjE4LTAuMDFsMC4wMSwwYzAuMDQtMC4wMSwwLjA4LTAuMDIsMC4xMS0wLjAzYzAuMDQtMC4wMiwwLjA5LTAuMDQsMC4xNC0wLjA3YzAuMDQtMC4wMywwLjA4LTAuMDYsMC4xMy0wLjEgbDIuMjgtMi4zMmMwLjIzLTAuMjQsMC41NC0wLjM4LDAuODUtMC40MWMwLjMyLTAuMDMsMC42NCwwLjA1LDAuOTEsMC4yNGMwLjEzLDAuMDgsMC4yNiwwLjE2LDAuNCwwLjI0bDAsMCBjMC4xNywwLjEsMC4zMSwwLjE4LDAuNDMsMC4yNGwwLjAyLDAuMDFjMC4yOSwwLjE3LDAuNTksMC4zMSwwLjksMC40NGwwLjAzLDAuMDFjMC4xNCwwLjA3LDAuMjksMC4xMywwLjQ1LDAuMiBjMC4xNywwLjA3LDAuMzMsMC4xMywwLjQ5LDAuMTlsMC4wMywwLjAxYzAuMiwwLjA4LDAuNDUsMC4xNywwLjcxLDAuMjVsMC4yNSwwLjA5YzAuMjksMC4wOSwwLjUyLDAuMjcsMC42OCwwLjUgYzAuMTcsMC4yMywwLjI2LDAuNTIsMC4yNiwwLjgxdjMuNTVjMCwwLjEyLDAuMDIsMC4yMiwwLjA1LDAuMzFjMC4wMiwwLjA0LDAuMDQsMC4wOCwwLjA3LDAuMTJjMC4wMywwLjA0LDAuMDYsMC4wOCwwLjEsMC4xMiBjMC4wOCwwLjA4LDAuMTYsMC4xMywwLjI0LDAuMTdjMC4wOSwwLjA0LDAuMTksMC4wNSwwLjMsMC4wNWg0LjQ1YzAuMSwwLDAuMi0wLjAyLDAuMjctMC4wNWMwLjA0LTAuMDIsMC4wOS0wLjA0LDAuMTQtMC4wOCBjMC4wNC0wLjAzLDAuMDktMC4wNiwwLjEzLTAuMTFjMC4wNC0wLjA0LDAuMDctMC4wOCwwLjEtMC4xMmMwLjAzLTAuMDQsMC4wNS0wLjA4LDAuMDctMC4xM2MwLjAyLTAuMDQsMC4wMy0wLjA4LDAuMDQtMC4xMiBjMC4wMS0wLjA1LDAuMDEtMC4xLDAuMDEtMC4xN3YtMy4yNGMwLTAuMzMsMC4xMi0wLjY0LDAuMzItMC44OGMwLjItMC4yNCwwLjQ5LTAuNDIsMC44MS0wLjQ4YzAuMjctMC4wNiwwLjUyLTAuMTMsMC43NS0wLjIgbDAuMjEtMC4wNmMwLjMxLTAuMDksMC42My0wLjIxLDAuOTUtMC4zM2MwLjMxLTAuMTIsMC42My0wLjI2LDAuOTctMC40MWMwLjIzLTAuMSwwLjQ0LTAuMiwwLjYzLTAuM2wwLjMyLTAuMTYgYzAuMjYtMC4xMywwLjU1LTAuMTcsMC44Mi0wLjEzYzAuMjksMC4wNCwwLjU1LDAuMTgsMC43NiwwLjM5YzAuNzMsMC43OSwxLjc0LDEuODIsMi41MywyLjU0YzAuMDUsMC4wNSwwLjA5LDAuMDksMC4xMywwLjEyIGMwLjAzLDAuMDIsMC4wNSwwLjA0LDAuMDcsMC4wNGMwLjAyLDAuMDEsMC4wMywwLjAxLDAuMDUsMC4wMmMwLjAyLDAuMDEsMC4wNSwwLjAyLDAuMDksMC4wM2MwLjA1LDAuMDEsMC4xLDAuMDEsMC4xNywwLjAxIGMwLjA2LDAsMC4xMiwwLDAuMTctMC4wMWMwLjA0LTAuMDEsMC4wNy0wLjAyLDAuMDktMC4wM2wwLjAyLTAuMDFjMC4wMy0wLjAyLDAuMDctMC4wNCwwLjEtMC4wNnYwYzAuMDQtMC4wMywwLjA4LTAuMDcsMC4xMi0wLjEgYzAsMCwyLjg4LTIuODQsMy4xNS0zLjExYzAuMDQtMC4wNSwwLjA4LTAuMSwwLjExLTAuMTRjMC4wMy0wLjA0LDAuMDUtMC4wOSwwLjA3LTAuMTNsMCwwYzAuMDItMC4wNSwwLjAzLTAuMDksMC4wNC0wLjE0IGMwLjAxLTAuMDUsMC4wMS0wLjExLDAuMDEtMC4xN2MwLTAuMTItMC4wMi0wLjIzLTAuMDUtMC4zYy0wLjAyLTAuMDQtMC4wNC0wLjA5LTAuMDctMC4xNGMtMC4wMy0wLjA0LTAuMDYtMC4wOC0wLjEtMC4xMyBsLTIuMzItMi4yOGMtMC4yNC0wLjIzLTAuMzgtMC41NC0wLjQxLTAuODVjLTAuMDMtMC4zMiwwLjA1LTAuNjQsMC4yNC0wLjkxYzAuMDgtMC4xMywwLjE2LTAuMjYsMC4yNC0wLjQgYzAuMDktMC4xNSwwLjE3LTAuMywwLjI0LTAuNDNsMC4wMS0wLjAyYzAuMTctMC4yOSwwLjMxLTAuNTksMC40NC0wLjlsMC4wMS0wLjAzYzAuMDctMC4xNCwwLjEzLTAuMjksMC4yLTAuNDUgYzAuMDctMC4xNywwLjEzLTAuMzMsMC4xOS0wLjQ5bDAuMDEtMC4wM2MwLjA4LTAuMiwwLjE2LTAuNDUsMC4yNS0wLjcxbDAuMDktMC4yNmMwLjA5LTAuMjksMC4yNy0wLjUyLDAuNS0wLjY4IGMwLjIzLTAuMTcsMC41Mi0wLjI2LDAuODEtMC4yNmgzLjU1YzAuMTIsMCwwLjIyLTAuMDIsMC4zMS0wLjA1YzAuMDQtMC4wMiwwLjA4LTAuMDQsMC4xMi0wLjA3YzAuMDQtMC4wMywwLjA4LTAuMDYsMC4xMi0wLjEgYzAuMDQtMC4wNCwwLjA3LTAuMDgsMC4xLTAuMTJjMC4wMy0wLjA0LDAuMDUtMC4wOCwwLjA3LTAuMTNsMCwwYzAuMDItMC4wNCwwLjAzLTAuMDgsMC4wNC0wLjEybDAsMGMwLjAxLTAuMDUsMC4wMS0wLjEsMC4wMS0wLjE3IHYtNC40NWMwLTAuMDYsMC0wLjExLTAuMDEtMC4xNmMtMC4wMS0wLjA0LTAuMDItMC4wOC0wLjAzLTAuMTJsLTAuMDEtMC4wMmMtMC4wMi0wLjA0LTAuMDQtMC4wOC0wLjA3LTAuMTJsLTAuMDEtMC4wMiBjLTAuMDMtMC4wNC0wLjA2LTAuMDctMC4xLTAuMTFjLTAuMDQtMC4wNC0wLjA4LTAuMDctMC4xMi0wLjFjLTAuMDQtMC4wMy0wLjA4LTAuMDUtMC4xMy0wLjA3Yy0wLjA0LTAuMDItMC4wOC0wLjAzLTAuMTItMC4wNCBjLTAuMDUtMC4wMS0wLjEtMC4wMS0wLjE3LTAuMDFoLTMuMjRjLTAuMzQsMC0wLjY1LTAuMTMtMC44OS0wLjMzYy0wLjI0LTAuMjEtMC40MS0wLjQ5LTAuNDctMC44MWMtMC4wOC0wLjMxLTAuMTYtMC42Mi0wLjI1LTAuOTMgYy0wLjA0LTAuMTMtMC4wOS0wLjI5LTAuMTUtMC40N2MtMC4wNi0wLjE3LTAuMTItMC4zMy0wLjE4LTAuNDlsLTAuMDEtMC4wM2MtMC4wMS0wLjAyLTAuMDItMC4wNS0wLjAyLTAuMDggYy0wLjEtMC4yNi0wLjIyLTAuNTMtMC4zMy0wLjc5bC0wLjA0LTAuMDljLTAuMTMtMC4zLTAuMjctMC41OC0wLjQzLTAuODZsLTAuMDEtMC4wMmMtMC4xNC0wLjI3LTAuMTktMC41Ni0wLjE1LTAuODQgYzAuMDQtMC4yOSwwLjE3LTAuNTcsMC4zOS0wLjc4YzAuODUtMC44NiwxLjctMS43MywyLjU2LTIuNThjMC4wNS0wLjA1LDAuMDktMC4wOSwwLjEyLTAuMTNsMC4wMS0wLjAyIGMwLjAxLTAuMDIsMC4wMi0wLjA0LDAuMDMtMC4wNWMwLjAxLTAuMDIsMC4wMS0wLjAzLDAuMDItMC4wNWMwLjAxLTAuMDIsMC4wMi0wLjA1LDAuMDMtMC4wOWMwLjAxLTAuMDQsMC4wMS0wLjEsMC4wMS0wLjE1IGMwLTAuMDYsMC0wLjExLTAuMDEtMC4xNmwwLTAuMDFjLTAuMDEtMC4wNC0wLjAyLTAuMDctMC4wMy0wLjExbC0wLjAxLTAuMDFjLTAuMDItMC4wNC0wLjA0LTAuMDgtMC4wNy0wLjEyIGMtMC4wNC0wLjA1LTAuMDgtMC4xLTAuMTQtMC4xNkw2MS4zNSwyNy4yM0w2MS4zNSwyNy4yM3ogTTYyLjE2LDI0LjVjMC4yMSwwLjA5LDAuNDEsMC4xOSwwLjYsMC4zMmMwLjE5LDAuMTMsMC4zNywwLjI4LDAuNTQsMC40NSBsMy4xMywzLjEzYzAuMTcsMC4xNywwLjMyLDAuMzUsMC40NSwwLjU0YzAuMTMsMC4xOSwwLjI0LDAuMzksMC4zMiwwLjZsMCwwLjAxYzAuMDksMC4yMSwwLjE2LDAuNDIsMC4yLDAuNjUgYzAuMDUsMC4yMywwLjA3LDAuNDYsMC4wNywwLjY5YzAsMC4yMy0wLjAyLDAuNDctMC4wNywwLjdjLTAuMDUsMC4yMy0wLjEyLDAuNDUtMC4yMSwwLjY2bDAsMGMtMC4wOSwwLjIxLTAuMiwwLjQtMC4zNCwwLjU5IGMtMC4xMywwLjE5LTAuMjgsMC4zNi0wLjQ1LDAuNTJMNjQuNiwzNS4yYzAuMDIsMC4wNSwwLjA1LDAuMSwwLjA3LDAuMTRsMCwwYzAuMTQsMC4zLDAuMjcsMC42MSwwLjM5LDAuOTFsMC4wNCwwLjEgYzAuMDMsMC4wNCwwLjA0LDAuMDksMC4wNSwwLjE0bDAsMC4wMmMwLjA2LDAuMTYsMC4xMiwwLjMzLDAuMTgsMC41YzAuMDYsMC4xOCwwLjEzLDAuMzgsMC4xOSwwLjU5YzAuMDEsMC4wNCwwLjAzLDAuMDgsMC4wNCwwLjEyIGgyLjE5YzAuMjMsMCwwLjQ2LDAuMDIsMC42OSwwLjA3YzAuMjMsMC4wNCwwLjQ1LDAuMTEsMC42NiwwLjJjMC4yMSwwLjA5LDAuNDEsMC4xOSwwLjYsMC4zM2MwLjE5LDAuMTMsMC4zNiwwLjI4LDAuNTMsMC40NCBsMC4wMywwLjAzbDAuMDIsMC4wM2MwLjE1LDAuMTYsMC4zLDAuMzQsMC40MiwwLjUyYzAuMTMsMC4xOSwwLjIzLDAuMzksMC4zMSwwLjU5YzAuMDksMC4yMSwwLjE1LDAuNDMsMC4yLDAuNjUgYzAuMDQsMC4yMiwwLjA3LDAuNDQsMC4wNywwLjY3djQuNDVjMCwwLjI0LTAuMDIsMC40Ny0wLjA3LDAuNjljLTAuMDQsMC4yMi0wLjExLDAuNDQtMC4xOSwwLjY1bDAsMCBjLTAuMDksMC4yMS0wLjE5LDAuNDEtMC4zMiwwLjZjLTAuMTMsMC4xOS0wLjI4LDAuMzctMC40NSwwLjU0Yy0wLjE3LDAuMTctMC4zNSwwLjMyLTAuNTQsMC40NWMtMC4xOSwwLjEzLTAuMzksMC4yNC0wLjYsMC4zMiBjLTAuMjEsMC4wOC0wLjQyLDAuMTUtMC42NSwwLjE5Yy0wLjIzLDAuMDQtMC40NiwwLjA3LTAuNywwLjA3aC0yLjU3Yy0wLjAyLDAuMDYtMC4wNCwwLjExLTAuMDYsMC4xNyBjLTAuMTIsMC4zMS0wLjI2LDAuNjMtMC40LDAuOTVjLTAuMDcsMC4xNS0wLjE0LDAuMzMtMC4yMiwwLjQ3Yy0wLjEzLDAuMjctMC4yNSwwLjUzLTAuMzksMC43OWwtMC4wNSwwLjA5IGMwLjU0LDAuNTMsMS4wOSwxLjA2LDEuNjIsMS42YzAuMTYsMC4xNywwLjMsMC4zNCwwLjQyLDAuNTNjMC4xMywwLjE5LDAuMjMsMC4zOSwwLjMxLDAuNmMwLjA4LDAuMiwwLjE0LDAuNDIsMC4xOSwwLjY0IGMwLjA0LDAuMjMsMC4wNiwwLjQ2LDAuMDYsMC42OGMwLDAuMjMtMC4wMiwwLjQ2LTAuMDYsMC42OGMtMC4wNCwwLjIyLTAuMSwwLjQ0LTAuMTksMC42NGMtMC4wOCwwLjItMC4xOCwwLjQtMC4zLDAuNTlsMCwwIGMtMC4xMSwwLjE4LTAuMjUsMC4zNi0wLjQsMC41MmMtMC4wNCwwLjA2LTAuMDcsMC4xLTAuMTMsMC4xM2wtMy4wNiwzLjAyYy0wLjE2LDAuMTctMC4zNCwwLjMzLTAuNTQsMC40NiBjLTAuMTksMC4xMy0wLjM5LDAuMjQtMC42LDAuMzNsLTAuMDEsMGMtMC4yLDAuMDktMC40MiwwLjE1LTAuNjQsMC4yYy0wLjIzLDAuMDUtMC40NywwLjA3LTAuNzEsMC4wN2MtMC4yMywwLTAuNDctMC4wMi0wLjctMC4wNyBjLTAuMjMtMC4wNS0wLjQ1LTAuMTItMC42Ny0wLjIxYy0wLjIxLTAuMDktMC40Mi0wLjItMC42MS0wLjM0bDAsMGMtMC4xOC0wLjEzLTAuMzYtMC4yOC0wLjUyLTAuNDRsLTEuODEtMS44MWwtMC4xNSwwLjA3djAgYy0wLjM0LDAuMTUtMC43MSwwLjMtMS4xLDAuNDZsLTAuMDMsMC4wMWMtMC4xOCwwLjA3LTAuMzYsMC4xMy0wLjU0LDAuMmMtMC4yMSwwLjA3LTAuNDEsMC4xNC0wLjU5LDAuMTlsLTAuMTEsMC4wNHYyLjE5IGMwLDAuMjMtMC4wMiwwLjQ2LTAuMDcsMC42OWMtMC4wNCwwLjIzLTAuMTEsMC40NS0wLjIsMC42NmMtMC4wOSwwLjIxLTAuMTksMC40MS0wLjMzLDAuNmMtMC4xMywwLjE5LTAuMjgsMC4zNi0wLjQ0LDAuNTMgbC0wLjA1LDAuMDVjLTAuMTYsMC4xNS0wLjM0LDAuMjktMC41MiwwLjQxYy0wLjE5LDAuMTItMC4zOCwwLjIzLTAuNTgsMC4zMmwwLDBjLTAuMjEsMC4wOS0wLjQzLDAuMTUtMC42NSwwLjIgYy0wLjIyLDAuMDQtMC40NCwwLjA3LTAuNjcsMC4wN2gtNC40NWMtMC40OSwwLTAuOTQtMC4wOS0xLjM2LTAuMjZjLTAuNDItMC4xNy0wLjc5LTAuNDMtMS4xMy0wLjc3IGMtMC4xNy0wLjE3LTAuMzItMC4zNS0wLjQ1LTAuNTRjLTAuMTMtMC4xOS0wLjI0LTAuMzktMC4zMi0wLjZjLTAuMDgtMC4yMS0wLjE1LTAuNDItMC4xOS0wLjY1Yy0wLjA0LTAuMjMtMC4wNy0wLjQ2LTAuMDctMC43IHYtMi41N2MtMC4wNi0wLjAyLTAuMTEtMC4wNC0wLjE3LTAuMDZjLTAuMzItMC4xMi0wLjYzLTAuMjYtMC45NS0wLjRjLTAuMTYtMC4wNy0wLjMxLTAuMTQtMC40Ni0wLjIybDAsMCBjLTAuMjctMC4xMy0wLjU0LTAuMjUtMC44LTAuMzlMMzkuMjUsNTljLTAuNTMsMC41NC0xLjA2LDEuMDktMS42LDEuNjJjLTAuMTcsMC4xNi0wLjM0LDAuMy0wLjUzLDAuNDIgYy0wLjE5LDAuMTMtMC4zOSwwLjIzLTAuNiwwLjMxYy0wLjIsMC4wOC0wLjQyLDAuMTQtMC42NCwwLjE5Yy0wLjIzLDAuMDQtMC40NiwwLjA2LTAuNjgsMC4wNnMtMC40Ni0wLjAyLTAuNjgtMC4wNiBjLTAuMjItMC4wNC0wLjQ0LTAuMS0wLjY0LTAuMTljLTAuMi0wLjA4LTAuNC0wLjE4LTAuNTktMC4zbC0wLjAzLTAuMDJjLTAuMTgtMC4xMS0wLjM0LTAuMjQtMC40OS0wLjM4IGMtMC4wNi0wLjA0LTAuMS0wLjA3LTAuMTMtMC4xM2wtMy4wNC0zLjA4Yy0wLjE3LTAuMTctMC4zMi0wLjM1LTAuNDUtMC41NGMtMC4xMy0wLjE5LTAuMjQtMC4zOS0wLjMyLTAuNmwwLTAuMDEgYy0wLjA5LTAuMjEtMC4xNi0wLjQyLTAuMi0wLjY0Yy0wLjA1LTAuMjMtMC4wNy0wLjQ2LTAuMDctMC43YzAtMC4yMywwLjAyLTAuNDcsMC4wNy0wLjdjMC4wNS0wLjIzLDAuMTItMC40NSwwLjIxLTAuNjZsMCwwIGMwLjA5LTAuMjEsMC4yLTAuNCwwLjM0LTAuNTljMC4xMy0wLjE4LDAuMjgtMC4zNiwwLjQ0LTAuNTFsMS44MS0xLjgxbC0wLjA3LTAuMTVoMGMtMC4wOC0wLjE4LTAuMTYtMC4zNi0wLjIzLTAuNTNsLTAuMDEtMC4wMiBjLTAuMDctMC4xOC0wLjE1LTAuMzYtMC4yMi0wLjU1bC0wLjAxLTAuMDNjLTAuMDctMC4xOC0wLjEzLTAuMzYtMC4yLTAuNTRjLTAuMDctMC4yMS0wLjE0LTAuNDEtMC4xOS0wLjU5IGMtMC4wMS0wLjA0LTAuMDItMC4wNy0wLjAzLTAuMTFoLTIuMTljLTAuMjMsMC0wLjQ2LTAuMDItMC42OS0wLjA3Yy0wLjIzLTAuMDQtMC40NS0wLjExLTAuNjYtMC4yYy0wLjIxLTAuMDktMC40MS0wLjItMC42LTAuMzMgYy0wLjE5LTAuMTMtMC4zNi0wLjI4LTAuNTMtMC40NGwtMC4wMy0wLjAzYy0wLjE2LTAuMTctMC4zLTAuMzUtMC40My0wLjU0Yy0wLjEyLTAuMTktMC4yMy0wLjM4LTAuMzItMC41OGwwLDAgYy0wLjA5LTAuMjEtMC4xNS0wLjQzLTAuMi0wLjY1Yy0wLjA0LTAuMjItMC4wNy0wLjQ0LTAuMDctMC42N3YtNC40NWMwLTAuMjQsMC4wMi0wLjQ3LDAuMDctMC42OWMwLjA0LTAuMjIsMC4xMS0wLjQ0LDAuMTktMC42NSBsMCwwYzAuMDktMC4yMSwwLjE5LTAuNDEsMC4zMi0wLjZjMC4xMy0wLjE5LDAuMjgtMC4zNywwLjQ1LTAuNTRjMC4zNC0wLjM0LDAuNzItMC42LDEuMTQtMC43N2MwLjIxLTAuMDgsMC40Mi0wLjE1LDAuNjUtMC4xOSBjMC4yMy0wLjA0LDAuNDYtMC4wNywwLjctMC4wN2gyLjU3YzAuMDItMC4wNiwwLjA0LTAuMTEsMC4wNi0wLjE3YzAuMTItMC4zMiwwLjI2LTAuNjMsMC40LTAuOTVjMC4wNy0wLjE2LDAuMTQtMC4zMSwwLjIyLTAuNDcgbDAsMGMwLjEzLTAuMjcsMC4yNi0wLjU0LDAuMzktMC44bDAuMDUtMC4wOWwtMS41NS0xLjU1Yy0wLjE2LTAuMTYtMC4zMS0wLjM0LTAuNDQtMC41M2MtMC4xMy0wLjE5LTAuMjQtMC4zOS0wLjM0LTAuNmwwLDAgYy0wLjA5LTAuMjEtMC4xNi0wLjQzLTAuMjEtMC42NmMtMC4wNS0wLjIzLTAuMDctMC40Ni0wLjA3LTAuNjljMC0wLjIzLDAuMDItMC40NywwLjA3LTAuN2MwLjA1LTAuMjMsMC4xMi0wLjQ1LDAuMjEtMC42NiBjMC4wOS0wLjIyLDAuMi0wLjQyLDAuMzMtMC42YzAuMTMtMC4xOSwwLjI4LTAuMzYsMC40NS0wLjUzYzEuMDMtMS4wMywyLjA5LTIuMTcsMy4xNS0zLjE1YzAuMTYtMC4xNiwwLjM0LTAuMzEsMC41Mi0wLjQzIGMwLjE5LTAuMTMsMC4zOS0wLjI0LDAuNi0wLjMybDAuMDEsMGMwLjIxLTAuMDksMC40Mi0wLjE2LDAuNjUtMC4yYzAuMjMtMC4wNSwwLjQ2LTAuMDcsMC42OS0wLjA3YzAuMjMsMCwwLjQ3LDAuMDIsMC43LDAuMDcgYzAuMjMsMC4wNSwwLjQ1LDAuMTIsMC42NiwwLjIxYzAuMjEsMC4wOSwwLjQxLDAuMjEsMC41OSwwLjM0bDAuMDIsMC4wMmMwLjE4LDAuMTMsMC4zNCwwLjI3LDAuNSwwLjQzbDEuODQsMS44IGMwLjA0LTAuMDIsMC4wOC0wLjA0LDAuMTUtMC4wN2wwLjEyLTAuMDZjMC4yOC0wLjEyLDAuNTctMC4yNSwwLjg2LTAuMzdjMC4wNy0wLjA1LDAuMTItMC4wNiwwLjE5LTAuMDcgYzAuMTYtMC4wNiwwLjMzLTAuMTIsMC41LTAuMThjMC4yMS0wLjA3LDAuNDEtMC4xNCwwLjU5LTAuMTlsMC4xMS0wLjA0VjIzLjJjMC0wLjIzLDAuMDItMC40NiwwLjA3LTAuNjkgYzAuMDQtMC4yMywwLjExLTAuNDUsMC4yLTAuNjZjMC4wOS0wLjIxLDAuMTktMC40MSwwLjMzLTAuNmMwLjEzLTAuMTksMC4yOC0wLjM2LDAuNDQtMC41M2wwLjA0LTAuMDMgYzAuMTctMC4xNiwwLjM1LTAuMywwLjUzLTAuNDNjMC4xOS0wLjEyLDAuMzgtMC4yMywwLjU4LTAuMzJsMCwwYzAuMjEtMC4wOSwwLjQzLTAuMTUsMC42NS0wLjJjMC4yMi0wLjA0LDAuNDQtMC4wNywwLjY3LTAuMDcgaDQuNDVjMC4yNCwwLDAuNDcsMC4wMiwwLjY5LDAuMDdjMC4yMiwwLjA0LDAuNDQsMC4xMSwwLjY1LDAuMTlsMCwwYzAuMjEsMC4wOCwwLjQxLDAuMTksMC42LDAuMzJjMC4xOSwwLjEzLDAuMzcsMC4yOCwwLjU1LDAuNDUgbDAuMDEsMC4wMWMwLjE3LDAuMTcsMC4zMiwwLjM1LDAuNDUsMC41NGMwLjEzLDAuMTksMC4yNCwwLjM5LDAuMzIsMC42YzAuMDgsMC4yMSwwLjE1LDAuNDIsMC4xOSwwLjY1IGMwLjA0LDAuMjMsMC4wNywwLjQ2LDAuMDcsMC43djIuNTdjMC4wNiwwLjAyLDAuMTEsMC4wNCwwLjE3LDAuMDZjMC4xOSwwLjA3LDAuMzgsMC4xNCwwLjU3LDAuMjNsMC4wMiwwLjAxIGMwLjE5LDAuMDgsMC4zNywwLjE2LDAuNTUsMC4yNWwwLjI5LDAuMTRjMC4yNywwLjEzLDAuNTMsMC4yNSwwLjc5LDAuMzlsMC4wOSwwLjA1bDEuNTUtMS41NWMwLjE2LTAuMTYsMC4zNC0wLjMxLDAuNTMtMC40NCBjMC4xOS0wLjEzLDAuMzktMC4yNCwwLjYtMC4zNGwwLDBjMC4yMS0wLjA5LDAuNDMtMC4xNiwwLjY2LTAuMjFjMC4yMy0wLjA1LDAuNDYtMC4wNywwLjctMC4wN2MwLjIzLDAsMC40NywwLjAyLDAuNjksMC4wNyBjMC4xNSwwLjAzLDAuMywwLjA3LDAuNDUsMC4xMkM2Mi4wNSwyNC40Nyw2Mi4xLDI0LjQ4LDYyLjE2LDI0LjVMNjIuMTYsMjQuNXogTTQ4LDMyLjc5YzAuMzMsMCwwLjY3LDAuMDIsMS4wMiwwLjA1IGMwLjM0LDAuMDMsMC42NywwLjA4LDAuOTksMC4xNWwwLDBjMC4zMiwwLjA2LDAuNjQsMC4xNSwwLjk3LDAuMjVjMC4zMiwwLjEsMC42NCwwLjIyLDAuOTUsMC4zNWwwLjAyLDAuMDEgYzAuMywwLjEzLDAuNiwwLjI3LDAuODgsMC40M2MwLjI4LDAuMTUsMC41NSwwLjMyLDAuODEsMC41MWwwLjAxLDAuMDFjMC41NCwwLjM2LDEuMDEsMC43NiwxLjQ2LDEuMmwwLjAxLDAuMDEgYzAuMjMsMC4yMywwLjQ0LDAuNDcsMC42NCwwLjcxYzAuMiwwLjI1LDAuMzksMC41MSwwLjU3LDAuNzdsMC4wMiwwLjAzYzAuMTcsMC4yNywwLjM0LDAuNTMsMC40OCwwLjggYzAuMTYsMC4yOCwwLjMsMC41NywwLjQ0LDAuODdjMC4wMSwwLjAyLDAuMDIsMC4wNCwwLjAzLDAuMDZjMC4wMSwwLjAyLDAuMDIsMC4wNSwwLjAyLDAuMDdjMC4yNSwwLjYsMC40MywxLjIsMC41NCwxLjggYzAuMDYsMC4zMiwwLjExLDAuNjUsMC4xNSwwLjk5YzAuMDMsMC4zNCwwLjA1LDAuNjgsMC4wNSwxLjAyYzAsMC4zMy0wLjAyLDAuNjctMC4wNSwxLjAyYy0wLjAzLDAuMzQtMC4wOCwwLjY3LTAuMTUsMC45OWwwLDAgYy0wLjA2LDAuMzItMC4xNSwwLjY0LTAuMjUsMC45N2MtMC4xLDAuMzItMC4yMiwwLjY0LTAuMzUsMC45NWwtMC4wMSwwLjAyYy0wLjI2LDAuNTktMC41NywxLjE2LTAuOTMsMS42OWwtMC4wMSwwLjAyIGMtMC4xOCwwLjI3LTAuMzcsMC41Mi0wLjU2LDAuNzZjLTAuMiwwLjI0LTAuNDEsMC40OC0wLjY0LDAuNzFMNTUuMSw1MGMtMC4yMywwLjIzLTAuNDcsMC40NC0wLjcxLDAuNjQgYy0wLjI1LDAuMjEtMC41MSwwLjM5LTAuNzcsMC41N2wtMC4wMywwLjAyYy0wLjI3LDAuMTctMC41MywwLjM0LTAuOCwwLjQ4Yy0wLjI4LDAuMTYtMC41NywwLjMtMC44NywwLjQ0bC0wLjAxLDAuMDEgYy0wLjA0LDAuMDItMC4wOCwwLjA0LTAuMTMsMC4wNWMtMC42LDAuMjUtMS4xOSwwLjQyLTEuOCwwLjU0Yy0wLjMyLDAuMDYtMC42NSwwLjExLTAuOTksMC4xNWMtMC4zNCwwLjAzLTAuNjgsMC4wNS0xLjAyLDAuMDUgYy0wLjMzLDAtMC42Ny0wLjAyLTEuMDItMC4wNWMtMC4zNC0wLjAzLTAuNjctMC4wOC0wLjk5LTAuMTVsMCwwYy0wLjMyLTAuMDYtMC42NC0wLjE1LTAuOTctMC4yNWMtMC4zMi0wLjEtMC42NC0wLjIyLTAuOTUtMC4zNSBsLTAuMDItMC4wMWMtMC41OS0wLjI2LTEuMTYtMC41Ny0xLjY5LTAuOTNsLTAuMDItMC4wMWMtMC4yNy0wLjE4LTAuNTItMC4zNy0wLjc2LTAuNTZjLTAuMjQtMC4yLTAuNDgtMC40MS0wLjcxLTAuNjRsLTAuMDEtMC4wMSBjLTAuMjMtMC4yMy0wLjQ0LTAuNDctMC42NC0wLjcxYy0wLjItMC4yNS0wLjM5LTAuNTEtMC41Ny0wLjc3bC0wLjAyLTAuMDNjLTAuMzUtMC41My0wLjY2LTEuMDktMC45Mi0xLjY3bC0wLjAxLTAuMDEgYy0wLjAyLTAuMDQtMC4wNC0wLjA4LTAuMDUtMC4xM2MtMC4xMi0wLjI5LTAuMjMtMC41OC0wLjMxLTAuODdjLTAuMDktMC4zLTAuMTctMC42MS0wLjIyLTAuOTJjLTAuMDYtMC4zMi0wLjExLTAuNjUtMC4xNS0wLjk5IGMtMC4wMy0wLjM0LTAuMDUtMC42OC0wLjA1LTEuMDJjMC0wLjMzLDAuMDItMC42NywwLjA1LTEuMDJjMC4wMy0wLjM0LDAuMDgtMC42NywwLjE1LTAuOTlsMCwwYzAuMDYtMC4zMiwwLjE1LTAuNjQsMC4yNS0wLjk3IGMwLjEtMC4zMiwwLjIyLTAuNjQsMC4zNS0wLjk1bDAuMDEtMC4wMmMwLjEzLTAuMjksMC4yNy0wLjU4LDAuNDItMC44NmMwLjE2LTAuMjksMC4zMy0wLjU2LDAuNTEtMC44M2wwLjAxLTAuMDIgYzAuMzYtMC41NCwwLjc2LTEuMDEsMS4yLTEuNDZsMC4wMS0wLjAxYzAuMjMtMC4yMywwLjQ3LTAuNDQsMC43MS0wLjY0YzAuMjUtMC4yLDAuNTEtMC4zOSwwLjc3LTAuNTdsMC4wMy0wLjAyIGMwLjI3LTAuMTcsMC41My0wLjM0LDAuOC0wLjQ4YzAuMjgtMC4xNiwwLjU3LTAuMywwLjg3LTAuNDRsMC4wMS0wLjAxYzAuMDQtMC4wMiwwLjA4LTAuMDQsMC4xMy0wLjA1IGMwLjI5LTAuMTIsMC41Ny0wLjIyLDAuODctMC4zMWMwLjMxLTAuMDksMC42MS0wLjE3LDAuOTMtMC4yM2wwLDBjMC4zMi0wLjA2LDAuNjUtMC4xMSwwLjk5LTAuMTUgQzQ3LjMzLDMyLjgxLDQ3LjY2LDMyLjc5LDQ4LDMyLjc5TDQ4LDMyLjc5eiBNNDkuMzksMzUuNjdjLTAuMjItMC4wNC0wLjQzLTAuMDctMC42NS0wLjA5Yy0wLjIzLTAuMDItMC40OC0wLjA0LTAuNzQtMC4wNCBjLTAuMjYsMC0wLjUxLDAuMDEtMC43NSwwLjA0Yy0wLjI0LDAuMDItMC40OSwwLjA2LTAuNzMsMC4xMWMtMC4yNCwwLjA1LTAuNDcsMC4xLTAuNjgsMC4xN2MtMC4yLDAuMDYtMC40LDAuMTMtMC42LDAuMjEgYy0wLjAyLDAuMDEtMC4wNSwwLjAyLTAuMDcsMC4wM2wtMC4wMiwwLjAxYy0wLjIyLDAuMS0wLjQ0LDAuMi0wLjY1LDAuMzFsLTAuMDIsMC4wMWMtMC4yMSwwLjExLTAuNDEsMC4yMy0wLjYsMC4zNmwtMC4wMSwwLjAxIGMtMC4xOSwwLjEzLTAuMzcsMC4yNi0wLjU1LDAuNHYwYy0wLjE5LDAuMTUtMC4zNiwwLjMtMC41MywwLjQ2Yy0wLjE2LDAuMTYtMC4zMSwwLjMzLTAuNDYsMC41MWwtMC4wMiwwLjAyIGMtMC4xNCwwLjE3LTAuMjcsMC4zNS0wLjQsMC41NGwtMC4wMSwwLjAyYy0wLjEyLDAuMTgtMC4yNCwwLjM4LTAuMzUsMC41OWMtMC4xMiwwLjIyLTAuMjIsMC40NC0wLjMyLDAuNjdsMCwwLjAxIGMtMC4wOSwwLjIyLTAuMTcsMC40NC0wLjI0LDAuNjZjLTAuMDcsMC4yMy0wLjEzLDAuNDYtMC4xNywwLjdsMCwwYy0wLjA1LDAuMjUtMC4wOCwwLjQ5LTAuMTEsMC43NCBjLTAuMDIsMC4yMy0wLjAzLDAuNDgtMC4wMywwLjc0YzAsMC4yNiwwLjAxLDAuNTEsMC4wNCwwLjc1YzAuMDIsMC4yNCwwLjA2LDAuNDksMC4xMSwwLjczYzAuMDUsMC4yNCwwLjEsMC40NiwwLjE3LDAuNjggYzAuMDYsMC4yMSwwLjEzLDAuNDEsMC4yMSwwLjYyYzAuMDEsMC4wMiwwLjAyLDAuMDUsMC4wMywwLjA3bDAuMDEsMC4wMmMwLjEsMC4yMiwwLjIsMC40NCwwLjMxLDAuNjVsMC4wMSwwLjAyIGMwLjExLDAuMiwwLjIzLDAuNDEsMC4zNiwwLjZsMC4wMSwwLjAxYzAuMTMsMC4xOSwwLjI2LDAuMzcsMC40MSwwLjU1YzAuMTUsMC4xOCwwLjMsMC4zNSwwLjQ3LDAuNTIgYzAuMTcsMC4xNywwLjM1LDAuMzMsMC41MywwLjQ3YzAuMTgsMC4xNCwwLjM2LDAuMjgsMC41NSwwLjRsMC4wMiwwLjAxYzAuMTgsMC4xMiwwLjM4LDAuMjQsMC41OSwwLjM1IGMwLjIyLDAuMTIsMC40NCwwLjIyLDAuNjcsMC4zMmwwLjAxLDAuMDFjMC4yMiwwLjA5LDAuNDQsMC4xNywwLjY2LDAuMjRjMC4yMywwLjA3LDAuNDYsMC4xMywwLjcsMC4xN2wwLDAgYzAuMjUsMC4wNSwwLjQ5LDAuMDgsMC43NCwwLjExYzAuMjMsMC4wMiwwLjQ4LDAuMDMsMC43NCwwLjAzYzAuMjYsMCwwLjUxLTAuMDEsMC43NS0wLjA0YzAuMjQtMC4wMiwwLjQ5LTAuMDYsMC43My0wLjExIGMwLjI0LTAuMDUsMC40Ny0wLjEsMC42OC0wLjE3YzAuMi0wLjA2LDAuNC0wLjEzLDAuNTktMC4yMWMwLjAzLTAuMDIsMC4wNS0wLjAyLDAuMDctMC4wM2wwLjAyLTAuMDFjMC4yMi0wLjEsMC40NC0wLjIsMC42NS0wLjMxIGwwLjAyLTAuMDFjMC4yLTAuMTEsMC40MS0wLjIzLDAuNi0wLjM2bDAuMDEtMC4wMWMwLjE5LTAuMTMsMC4zNy0wLjI2LDAuNTUtMC40djBjMC4xOS0wLjE1LDAuMzYtMC4zLDAuNTMtMC40NiBjMC4xNi0wLjE2LDAuMzEtMC4zMywwLjQ2LTAuNTFsMC4wMi0wLjAyYzAuMTQtMC4xNywwLjI3LTAuMzUsMC40LTAuNTRMNTQuMTIsNDdjMC4xMi0wLjE4LDAuMjQtMC4zOCwwLjM1LTAuNTlsMCwwIGMwLjEyLTAuMjIsMC4yMi0wLjQ0LDAuMzItMC42N2wwLjAxLTAuMDFjMC4wOS0wLjIyLDAuMTctMC40NCwwLjI0LTAuNjZjMC4wNy0wLjIzLDAuMTMtMC40NiwwLjE3LTAuN2wwLDAgYzAuMDUtMC4yNSwwLjA4LTAuNDksMC4xMS0wLjc0YzAuMDItMC4yMywwLjAzLTAuNDgsMC4wMy0wLjc0YzAtMC4yNi0wLjAxLTAuNTEtMC4wNC0wLjc1Yy0wLjAyLTAuMjQtMC4wNi0wLjQ5LTAuMTEtMC43MyBjLTAuMDUtMC4yNC0wLjEtMC40Ny0wLjE3LTAuNjhjLTAuMDYtMC4yLTAuMTMtMC40LTAuMjEtMC42Yy0wLjAyLTAuMDMtMC4wMi0wLjA1LTAuMDMtMC4wN2wtMC4wMS0wLjAyIGMtMC4xLTAuMjItMC4yLTAuNDQtMC4zMS0wLjY1bC0wLjAxLTAuMDJjLTAuMTEtMC4yMS0wLjIzLTAuNDEtMC4zNi0wLjZsLTAuMDEtMC4wMWMtMC4xMy0wLjE5LTAuMjYtMC4zNy0wLjQxLTAuNTUgYy0wLjE1LTAuMTgtMC4zLTAuMzUtMC40Ny0wLjUyYy0wLjE3LTAuMTctMC4zNS0wLjMzLTAuNTMtMC40N2MtMC4xOC0wLjE0LTAuMzYtMC4yOC0wLjU1LTAuNGwtMC4wMi0wLjAxIGMtMC4xOC0wLjEzLTAuMzgtMC4yNC0wLjU5LTAuMzVsMCwwYy0wLjIyLTAuMTItMC40NC0wLjIyLTAuNjctMC4zMmwtMC4wMS0wLjAxYy0wLjIyLTAuMDktMC40NC0wLjE3LTAuNjYtMC4yNCBjLTAuMjMtMC4wNy0wLjQ2LTAuMTMtMC43LTAuMTdDNDkuNDUsMzUuNyw0OS40MiwzNS42OSw0OS4zOSwzNS42N0w0OS4zOSwzNS42N3ogTTUuODMsMzQuOTVjMS44NS05LjgzLDcuMDYtMTguNDgsMTQuMzgtMjQuNzEgQzI3LjcxLDMuODUsMzcuNDIsMCw0OC4wMiwwQzU3LjM0LDAsNjUuOTYsMi45Nyw3Myw4LjAyYzcuMjIsNS4xOCwxMi43OCwxMi41NSwxNS42OSwyMS4xNGwtMi42MywwLjg5bC0yLjYzLDAuODkgYy0wLjA3LTAuMjItMC4xNS0wLjQ0LTAuMjMtMC42NWMtMi41OS03LjE5LTcuMzMtMTMuMzctMTMuNDQtMTcuNzVjLTYuMTMtNC4zOS0xMy42NC02Ljk3LTIxLjc1LTYuOTcgYy05LjI1LDAtMTcuNzEsMy4zNS0yNC4yMiw4Ljg5Yy02LjEyLDUuMjEtMTAuNTQsMTIuMzYtMTIuMzEsMjAuNWg1LjY5TDguNTksNDUuNDFMMCwzNC45NUw1LjgzLDM0Ljk1TDUuODMsMzQuOTVMNS44MywzNC45NXoiLz48L2c+PC9zdmc+;" vertex="1" parent="1">
                    <mxGeometry x="340" y="545" width="96" height="86" as="geometry"/>
                </mxCell>
                <mxCell id="67" value="" style="shape=image;verticalLabelPosition=bottom;labelBackgroundColor=default;verticalAlign=top;aspect=fixed;imageAspect=0;image=data:image/svg+xml,PHN2ZyB4bWxuczp4bGluaz0iaHR0cDovL3d3dy53My5vcmcvMTk5OS94bGluayIgeG1sbnM9Imh0dHA6Ly93d3cudzMub3JnLzIwMDAvc3ZnIiB4bWw6c3BhY2U9InByZXNlcnZlIiBzdHlsZT0iZW5hYmxlLWJhY2tncm91bmQ6bmV3IDAgMCAxMjIuODggOTQuMTIiIHZpZXdCb3g9IjAgMCAxMjIuODggOTQuMTIiIHk9IjBweCIgeD0iMHB4IiBpZD0iTGF5ZXJfMSIgdmVyc2lvbj0iMS4xIj48c3R5bGUgdHlwZT0idGV4dC9jc3MiPi5zdDB7ZmlsbC1ydWxlOmV2ZW5vZGQ7Y2xpcC1ydWxlOmV2ZW5vZGQ7fTwvc3R5bGU+PGc+PHBhdGggZD0iTTYuMzMsMGg5MS4xNmMzLjQ2LDAsNi4zMywyLjg3LDYuMzMsNi4zNHYzMy4xNmMtMS45Ni0wLjcxLTQuMDMtMS4yLTYuMTYtMS40NVYxMS45MWwwLDBsMCwwSDYuMDh2NTQuNDEgaDYxLjAzYzAuMDgsMi4wNywwLjM4LDQuMDcsMC44OSw2SDYuMzNDMi44Nyw3Mi4zMiwwLDY5LjQ1LDAsNjUuOThWNi4zNEMwLDIuODcsMi44NywwLDYuMzMsMEw2LjMzLDBMNi4zMywweiBNOTUuODYsNDUuMzYgYzUuODcsMCwxMS4xOSwyLjM5LDE1LjA1LDYuMjNjMy44NSwzLjg2LDYuMjMsOS4xNiw2LjIzLDE1LjA1YzAsNC4yOS0xLjI4LDguMy0zLjQ2LDExLjY0bDkuMjEsMTAuMDRsLTYuMzUsNS44MWwtOC44OC05Ljc3IGMtMy4zNywyLjI1LTcuNDMsMy41Ni0xMS43OCwzLjU2Yy01Ljg3LDAtMTEuMTktMi4zOS0xNS4wNC02LjIzYy0zLjg2LTMuODYtNi4yMy05LjE2LTYuMjMtMTUuMDRjMC01Ljg3LDIuMzktMTEuMTksNi4yMy0xNS4wNSBDODQuNjcsNDcuNzMsODkuOTgsNDUuMzYsOTUuODYsNDUuMzZMOTUuODYsNDUuMzZMOTUuODYsNDUuMzZ6IE0xMDcuMTcsNTUuMzJjLTIuODktMi44OS02LjktNC42OS0xMS4zMS00LjY5IGMtNC40MSwwLTguNDIsMS44LTExLjMxLDQuNjljLTIuODksMi44OS00LjY5LDYuOS00LjY5LDExLjMxYzAsNC40MSwxLjgsOC40Miw0LjY5LDExLjMxYzIuODksMi44OSw2LjksNC42OSwxMS4zMSw0LjY5IGM0LjQxLDAsOC40Mi0xLjgsMTEuMzEtNC42OWMyLjg5LTIuODksNC42OS02LjksNC42OS0xMS4zMUMxMTEuODYsNjIuMjIsMTEwLjA3LDU4LjIyLDEwNy4xNyw1NS4zMkwxMDcuMTcsNTUuMzJMMTA3LjE3LDU1LjMyIEwxMDcuMTcsNTUuMzJ6IE01OS4wNSw1My40OGgxMC42OWMtMC41MiwxLjA5LTAuOTcsMi4yMi0xLjM0LDMuMzhoLTkuMzRWNTMuNDhMNTkuMDUsNTMuNDhMNTkuMDUsNTMuNDh6IE01OS4wNSw0NC44NmgxNy4xNCBjLTEuMTUsMS4wMy0yLjIyLDIuMTctMy4xOCwzLjM4SDU5LjA1VjQ0Ljg2TDU5LjA1LDQ0Ljg2TDU5LjA1LDQ0Ljg2eiBNNzcuODEsMjkuNTdoNC43M2MwLjI1LDAsMC40MiwwLjE3LDAuNDIsMC40MnY5LjI5IGMwLDAuMjUtMC4xNywwLjQyLTAuNDIsMC40MmgtNC43M2MtMC4yNSwwLTAuNDItMC4xNy0wLjQyLTAuNDJ2LTkuMjlDNzcuMzgsMjkuODIsNzcuNTUsMjkuNTcsNzcuODEsMjkuNTdMNzcuODEsMjkuNTcgTDc3LjgxLDI5LjU3TDc3LjgxLDI5LjU3eiBNNTkuNTYsMjMuOTFoNC43M2MwLjI1LDAsMC40MiwwLjE3LDAuNDIsMC40M3YxNS4wNGMwLDAuMjUtMC4xNywwLjQyLTAuNDIsMC40MmgtNC43MyBjLTAuMjUsMC0wLjQyLTAuMTctMC40Mi0wLjQyVjI0LjMzQzU5LjA1LDI0LjA4LDU5LjMxLDIzLjkxLDU5LjU2LDIzLjkxTDU5LjU2LDIzLjkxTDU5LjU2LDIzLjkxTDU5LjU2LDIzLjkxTDU5LjU2LDIzLjkxeiBNNjguNjgsMjAuN2g0LjczYzAuMjUsMCwwLjQyLDAuMTcsMC40MiwwLjQydjE4LjI1YzAsMC4yNS0wLjE3LDAuNDItMC40MiwwLjQyaC00LjczYy0wLjI1LDAtMC40Mi0wLjE3LTAuNDItMC40MlYyMS4xMiBDNjguMjYsMjAuODcsNjguNDMsMjAuNyw2OC42OCwyMC43TDY4LjY4LDIwLjdMNjguNjgsMjAuN0w2OC42OCwyMC43eiBNMzMuMiw0MC43MmwxNC4zNiwwLjI1YzAsNS4xNS0yLjUzLDkuODgtNi43NiwxMi43NiBMMzMuMiw0MC43MkwzMy4yLDQwLjcyTDMzLjIsNDAuNzJMMzMuMiw0MC43MnogTTMxLjc2LDM4LjI3bC0wLjE3LTE2Ljczdi0xLjFsMS4xLDAuMDhsMCwwbDAsMGMxLjM1LDAuMDgsMi43LDAuMzQsMy45NywwLjY4IGMxLjI3LDAuMzQsMi40NSwwLjg0LDMuNjMsMS40NGM1LjgzLDMuMDQsOS44OCw5LjEyLDEwLjIyLDE2LjA1bDAuMDgsMS4xaC0xLjFsLTE2LjY0LTAuNTFoLTAuOTNMMzEuNzYsMzguMjdMMzEuNzYsMzguMjcgTDMxLjc2LDM4LjI3TDMxLjc2LDM4LjI3eiBNMzMuNjIsMjIuNTZsMC4xNywxNC43bDE0LjYyLDAuNDJjLTAuNTktNS43NS00LjE0LTEwLjczLTkuMDQtMTMuMzVjLTEuMDEtMC41MS0yLjExLTAuOTMtMy4yMS0xLjI3IEMzNS4yMywyMi45LDM0LjQ3LDIyLjczLDMzLjYyLDIyLjU2TDMzLjYyLDIyLjU2TDMzLjYyLDIyLjU2TDMzLjYyLDIyLjU2eiBNMzAuMzMsMzkuODhsOC4xOSwxNC4xOWMtMi41MywxLjQ0LTUuMzIsMi4yLTguMTksMi4yIGMtOS4wNCwwLTE2LjM5LTcuMzUtMTYuMzktMTYuMzljMC04Ljc5LDYuOTMtMTYuMDUsMTUuNzEtMTYuMzlMMzAuMzMsMzkuODhMMzAuMzMsMzkuODhMMzAuMzMsMzkuODhMMzAuMzMsMzkuODh6IiBjbGFzcz0ic3QwIi8+PC9nPjwvc3ZnPg==;" vertex="1" parent="1">
                    <mxGeometry x="1840" y="279.1" width="106.15" height="81.12" as="geometry"/>
                </mxCell>
                <mxCell id="68" value="Spring batch" style="text;strokeColor=none;fillColor=none;html=1;fontSize=24;fontStyle=1;verticalAlign=middle;align=center;strokeWidth=6;" vertex="1" parent="1">
                    <mxGeometry x="470" y="580" width="100" height="40" as="geometry"/>
                </mxCell>
                <mxCell id="69" value="" style="shape=image;verticalLabelPosition=bottom;labelBackgroundColor=default;verticalAlign=top;aspect=fixed;imageAspect=0;image=data:image/svg+xml,PHN2ZyB4bWxuczp4bGluaz0iaHR0cDovL3d3dy53My5vcmcvMTk5OS94bGluayIgeG1sbnM9Imh0dHA6Ly93d3cudzMub3JnLzIwMDAvc3ZnIiB4bWw6c3BhY2U9InByZXNlcnZlIiBzdHlsZT0iZW5hYmxlLWJhY2tncm91bmQ6bmV3IDAgMCAxMTQuNCAxMjIuODgiIHZpZXdCb3g9IjAgMCAxMTQuNCAxMjIuODgiIHk9IjBweCIgeD0iMHB4IiBpZD0iTGF5ZXJfMSIgdmVyc2lvbj0iMS4xIj48c3R5bGUgdHlwZT0idGV4dC9jc3MiPi5zdDB7ZmlsbC1ydWxlOmV2ZW5vZGQ7Y2xpcC1ydWxlOmV2ZW5vZGQ7ZmlsbDojREQwMDMxO30gLnN0MXtmaWxsLXJ1bGU6ZXZlbm9kZDtjbGlwLXJ1bGU6ZXZlbm9kZDtmaWxsOiNDMzAwMkY7fSAuc3Qye2ZpbGwtcnVsZTpldmVub2RkO2NsaXAtcnVsZTpldmVub2RkO2ZpbGw6I0ZGRkZGRjt9PC9zdHlsZT48Zz48cG9seWdvbiBwb2ludHM9IjU3LjIsMCA1Ny4yLDAgNTcuMiwwIDAsMjAuNCA4LjcyLDk2LjAzIDU3LjIsMTIyLjg4IDU3LjIsMTIyLjg4IDU3LjIsMTIyLjg4IDEwNS42OCw5Ni4wMyAxMTQuNCwyMC40IDU3LjIsMCIgY2xhc3M9InN0MCIvPjxwb2x5Z29uIHBvaW50cz0iNTcuMiwwIDU3LjIsMTMuNjQgNTcuMiwxMy41OCA1Ny4yLDc1LjgyIDU3LjIsNzUuODIgNTcuMiwxMjIuODggNTcuMiwxMjIuODggMTA1LjY4LDk2LjAzIDExNC40LDIwLjQgNTcuMiwwIiBjbGFzcz0ic3QxIi8+PHBhdGggZD0iTTU3LjIsMTMuNThMMjEuNDQsOTMuNzZsMCwwaDEzLjMzbDAsMGw3LjE5LTE3Ljk0aDMwLjM1bDcuMTksMTcuOTRsMCwwaDEzLjMzbDAsMEw1Ny4yLDEzLjU4TDU3LjIsMTMuNTggTDU3LjIsMTMuNThMNTcuMiwxMy41OEw1Ny4yLDEzLjU4TDU3LjIsMTMuNTh6IE02Ny42NSw2NC43Nkg0Ni43Nkw1Ny4yLDM5LjYzTDY3LjY1LDY0Ljc2TDY3LjY1LDY0Ljc2eiIgY2xhc3M9InN0MiIvPjwvZz48L3N2Zz4=;" vertex="1" parent="1">
                    <mxGeometry x="2068" y="437" width="114" height="123" as="geometry"/>
                </mxCell>
                <mxCell id="72" value="&amp;nbsp; &amp;nbsp;Microservice: m01" style="text;strokeColor=none;fillColor=none;html=1;fontSize=24;fontStyle=1;verticalAlign=middle;align=center;strokeWidth=6;" vertex="1" parent="1">
                    <mxGeometry x="300" y="478.64" width="100" height="40" as="geometry"/>
                </mxCell>
                <mxCell id="73" value="" style="shape=image;verticalLabelPosition=bottom;labelBackgroundColor=default;verticalAlign=top;aspect=fixed;imageAspect=0;image=data:image/png,iVBORw0KGgoAAAANSUhEUgAAAgAAAAIACAYAAAD0eNT6AAAABHNCSVQICAgIfAhkiAAAIABJREFUeJzs3XecVcX5P/DPM3POvVtoAipIkyYgilJ3aWLDFltiSSzRmKIm1kRjT4zGxBrzTWzRaKLGEvWniZqosSt9aYoVpAioiBSBXXb33ntmnt8fZxcQQXbv3u2f9+vFS9i995w5d9czz5l55hmAiIiIiIiIiIiIiIiIiIiIiIiIiIiIiIiIiIiIiIiIiIiIiIiIiIiIiIiIiIiIiIiIiIiIiIiIiIiIiIiIiIiIiIiIiIiIiIiIiIiIiIiIiIiIiIiIiIiIiIiIiIiIiIiIiIiIiIiIiIiIiIiIiIiIiIiIiIiIiIiIiIiIiIiIiIiIiIiIiIiIiIiIiIiIiIiIiIiIiIiIiIiIiIiIiIiIiIiIiIiIiIiIiIiIiIiIiIiIiIiIiIiIiIiIiIiIiIiIiIiIiIiIiIiIiIiIiIiIiIiIiIiIiIiIiIiIiIiIiIiIiIiIiIiIiIiIiIiIiIiIiIiIiIiIiIiIiIiIiIiIiIiIiIiIiIiIiIiIiIiIiIiIiIiIiIiIiIiIiIiIiIiIiIiIiIiIiIiIiIiIiIiIiIiIiIiIiIiIiIiIiIiIiIiIiIiIiIiIiIiIiIiIiIiIiIiIiIiIiIiIiIiIiIiIiIiIiIiIiIiIiIiIiIiIiIiIiIiIiIiIiIiIiIiIiIiIiIiIiIiIiIiIiIiIiIiIiIiIiIiIiIiIiIiIiIiIiIiIiIiIiIiIiIiIiIiIiIiIiIiIiIiIiIiIiIiIiIiIiIiIiIiIiIiIiIiIiIiIiIiIiIiIiIiIiIiIiIiIiIiIiIiIiIiIiIiIiIiIiIiIiIiIiIiIiIiIiIiIiIiIiIiIiIiIiIiIiIiIiIiIiIiIiIiIiIiIiKhGpLEbQERETY0CNwAoAJAEkAJwPsAuo2XhT5OIiAAosByY9e+zBu68YvpEE63fz0eZNjCCUKQ0FXacUtZ5zyl7d390Fk5k19ES8KdIRNTa3ahYbI85JfFZyQ+g2idAppsVJJ0EsHCAKpzXDGC/SNv8/5V3HPD4wFEv/Q8T2YU0Z/zpERG1Yreqtjv+kn43JKK1J6nN7yDqYH0GHoCTAAqBisAoECACVOEha70tePqz8x66ckSv/VY09jVQdhgAEBG1Un/XL9sdfNHed4S+7CRjrI07d4NIAggUFhEUAoECEHhYKIAQDl69T5uC592Ag67qfeb9b7E7aX74EyMiaoX+qNru+Iu63RFo+ruRTYbGRwAAA/+N71MIDDwECicBUhpOx4CJF/Y+628z2KU0L/xpERG1NjMUHz/W87akVvw0bQts0pUj0DQik4DuoFsQ9VAIvAQwcAjg4L2bvXbkj88adMofZjfQFVAOmMZuABERNSTFJ08NvKat+/JHMNYmXDkMHMptW3jYHb9bDCACqRop8Ap4mzd8p1kP/fZO1bb13XrKHQYAREStyOL/+96RYXrlmamgTb5XwMIjIwlYjWA1s8P3x3kAAqvxlEEkIVQViuiggy7f+1I8p/V9CZQjDACIiFqLuYpw2aSfigm6eMTz/U4sDDwMPLzseATAwEGgm15r4GE1ghibaJteedaCeUd+q56vgnKEAQARUaug+Pg/+59hkRkL9Qj9jp/2a3ZUQUYSEO8gqp0Lvpj7o39xKqBZYABARNQaXA2YLz86PkSmfaXkwUvucsCtOiiAyOYh0MpvDb1yyPkApwKaOgYAREStwIdtjjrKICpWGBhVaI5u/xKvCYCKgfgIMGEiWf7pyW/96zd75OQEVG8YABARtXQnKApWzT8mgO/oYBHUINmvNlQMFBIfVz1UzJ6dpj7wKzzOUYCmjAEAEVEL9/J9n3Uy0YZ9TNWwv0p1db/cEWhVIADABAgyG46Y/9FhJ3IqoOliAEBE1ML1vu0HE61GA765xl/uGJ+BGNsxf828i1YsfrVXA52WaokBABFRi6ZIbPi4SIC22kAP46aqtoBRPyr663k/4yhA08QAgIioJbsbMJkNg4xpuMrvTgJYzSBpHKRy1Qkf3vvTsQ12cqoxBgBERC3Ysv639YVqf9+At3tRhVGHSAEr6F344X8vxMMcBWhqGAAQEbVgZdNfHGDE79yQw/AqVXsGQGAEsK7ikCVLDzidUwFNCwMAIqIWS5FfsaKneJ/XsH3v5ukGr0Bg0C5v9TsXzJ//Uu+GbAV9MwYAREQtmE2tHywGYUP2/1pVHmjTvxXwaock//7zc/AzjgI0FQwAiIhaqtcA41N7mK065IalUAUCgc2rXPm9BSPOLWqkhtBWGAAQEbVQD++/vr341E7xkHzDBQBSNQaw6V8i8FCoMd2S7//3QiznKEBTwACAiKiFGnT3pf0B7eYBCBqqDNC2eRg4CVCYWX30or+N/ykTAhsfAwAiohZqpy8+2BOqOzXe8P9mViNYzSAdFBYE6xf9YJKWdWrsNrV2DACIiFokRV7Fl4MMkFeXAECQm47CSQDrI4gqAu9G9rqi6BLcyFGAxsQAgIioJZoAuPT6Xs4mxWa5+59AESFYC/WfGHUQRdbJhAKFMxaAIrAqiYqV33u/w1lMCGxEDACIiFqiqwDRdJdQM3ASZHUII4CX4M28Y675YaUkF8AARrPLJYiTAqt2I1QgMkHPNh89f3HLTgjUb/jT+LL7rSAioibtI3tPX9HM7gEcKpAPi6jWx3BeIPltV7bf/5yXllx6z+2Z6PPr8xEVZurYdSiABDKIvD9i8b1jf9wHem9DrlKoPwrMBVbMPn2/8s8+7o7UvruY9MZ+Rp2FwISa8V7ynOS1XVzW7qi3BnR95lWcCjTWtTMAICJqgSrnvjKgHVznCAEMXK3fLwKo+lRFXuc5gKD3BL3t45d7HBIJjszFE2yEAKH4Ardh8Tmfv/3EK132wZI6H7TBKTAPWDjnguHhktmjTUXffdxD0R7OVw4qENdePayx1ioMPAyMOlhfAVe23rcrXfbl0hXd5rjLO76QOu4fjw4aceqKhg4EGAAQEbU4ikTZhK6qJuFNAOvT8FW1+WvyXkAg8d82+LZd3gMAHCHw1x10f2bNvNH54jtlYKFQiAog2QUETgVJpPYsffSaUwH9bdMfBVDgDuCtgQ92K5jx8NC8L/tPsPeXjgR8HwPd1UATFoqMCQC1MEahqgAcQp+CkwAeFka8MYJO+ZKe6Cs/nRA8eukxi6+77899/qNPYnrDfQYMAIiIWqD8jZ8PUDFJ6OaCPDsiGlcMUEFVAGDXtRk89gvgcQBAn3YvP7m0dPejXar8NG8sIBlYr/CSXadlNEJkkonC1IrTXn3oV48feCrmZ3WgeqPACcDb5z7Ru3Da/SMLS/ceW7akvEve4oq9Eq68h4ptCxNWfVYCr1XVFqo+8y3Douo8DInDJjgIoICYIJGP9H6ZNe/1/ejQccn+0/WRhgqEmnq4RUREtaZY/svd/5p0ZT+OENS4CFB1hr9AYQVIIfFSj1M/OQRDN3cVCx84Z3Ty7X89FCLq46EwqtAsAoBIAiRdJZwJIN5p2hbe1/OwZT/BxMbulhRPKTqNuO2E4cnP5+8fpb/sIVHlMBH0jCRsk6epuLKhWHit7vrrPiVi4QGX/nj1wONO2/On90+q+3XsGFcBEBG1MKX6eWd1mX2rcu5r/L7qAMCog1PAmeQCDP3qa/qdfvs0n9/xLusqKw1sPNydBasO8UOwQRTkS+jLTlo6efS5DZ4h/zPFaRs0f+GdPx6+6Oris5dd0vvesb/o+Eq4+LV/pitXXW41faq1sqcRbZPQFCIJkEICGY0DK6O1z6/YlkhCiEns3m7xqz/A1Q3zGXAKgIiohVl7z9U9LVy3eDZfIeqhsuPnPYHCVL3WwQKJNl9u61U3Xad3XfGLLkdamAmhVkJha91GgSIjCVg4iHMwJiw0ZR//cMkHL/yn9yB8XOsD1pgCy4Glr18yrGLZnH3z1+0xIrx63XAH6WYEOwuQUJMEVBHAAd7DiYXAVI2kKAJEqM6VqMnnWrNmxSMpNrOx6LV9b9j9ANTnZxBjAEBE1MKk13zavQ1cgYoBFDXupAQekYRIagoqbt2Gwt2mbWum+A6RjRffcOidBStmDoE1O2X7vFqVaAgB4KEQj30T959/FqCX526GWoH7gOeOWLhz/7//dHThhj33j/64fliATL+kup0hNiFGYKFxJwwB1G0KmlTi7H0VgZN4RYVkOe3xTUzViAhEevR85/kxYABARES1o5CKUf0EWqhau05KYWDgocZAnd9gdx+8GHhhm6/tPfyFx1f8r+cxzqdPDuCzGriPn6jjpEMoEIiTdKb0tOV//t7MHufjqSwOGR/oEuDWK9H2qHuOHZ63dsg4eX/tKPNOZW8RdAfQIc8IVAVqLFRRlakft2hz4zYHTdUBlNnU3tznKagIHACBaxOm1nfJ+Qm2gQEAEVFLMhZIVq7aWyBB7Wv2STz/LxbOSClOuugLnPyHbb90oqDs0ctuKSz560gxpr/mYNraQ5AUt5v/+I1zMV+fwoAadrR7KvBf4NP/fHes/6J4dFTxxXBzTaqf1czuRtDRihixAoc4cU/Vx4l7TaMg3yYKA6sZDdU3SMsYABARtST3A/auij1EpNYdnFEHLxYGCi/h4gG3dV37Ta/vf9L1cxdd9eIdBRuX/V6MFNQ1CBD1cV6ApoqWPFT8g97Q+7c9FaBovw6Y9u9fDC5cNmt0WNp7rP65oq9Fpr+I7RyICaxE8ZQGAqRhAQ2Q0BQCdfF6fDE5yd7PFakqEZyRBFyyXYPs3cwAgIioBXlLX+0G9TvXcvQfQDwk7yWE8WlIkLcA5+/4HZf9Uv9y67XdDk349OGbz2mQzeN1nIQYIRAUBOXLTr9e8f8uF5QBCjwNvLnHpK49nvz1IaZ0zyHBNWuGGXX9vEjHwEiBGoFHEO9VoA4RLLRqCWToUxAAkSTgJQkDVzXn3thLDjdTABYOKUmuRIdu8xrinE3n6omIqM4W33nywfkf/e8JMaZDbZ/IRasDgJRLt+t3Uc9rZ/6pJu9774ajDu+0YtqDPjSd4RVWAV+H3kUAQH3GJTv+U7rt+0L5px92DDLrxye0Ym+B7ymQwrjvrnpubjoP8lnzMMiTDCqcfbP7eV9MQN/67545AkBE1IL4VZ8VAhpm814VgREPiFmXarfbhzV93+Duzzy/7MteT4Sp1NliIJFRmDp0ygpAxISS+vIUXfz68YWioQCBxGMELabT35KFQ8obmOROJejbMOdkISAiohZDYSpX94WYZDbT2x4BLDwc7JKHjvu/GTV+46mCaOSpfxH1C8OqXPa6UgBGYBKI8gUIfLwArwnN2ueWEYECSyt6j3usoQbnGQAQEbUUNwLJqHSYgQTZdJRepGo/AFRcs2b3dbV5b5/jfzdvY7te91YgqMzq5NugEGQkRIQAConn91tgCCAAnCoyYdv/9T37vlkNdV4GAERELcUwwETl3VRqX5kPiDf1UwCZsO1K1HgCYNO70feHM29SE7wU57MLjEaIt8LNrj0Aqt4dP/vH6+9bRupadUBj1ANi4NUsTA884m8NeX0MAIiIWoi7e77e2QPt45IytWcRxSWAg7ylODWLA/QWVHYdfq/R9GqIQaY64x5RVu0BvrpBUUtiNUJGEohMAmG0saK8sOede/zw9ppPu+QAAwAiohZi4rM3DxWgBzS7ZeRWHTIwUZjXaXG2T6L9Ozz9TCro+I/AVTpfVUYXKps6coo5iesSeEWUCto+3v/YmX9s6NENBgBERC1Ect3Kflaj9l6yXOAlAoVsdB27fZR1I34keO3Uv9zgYafkayrO2m9C6+2bCqMOziRgNXpz9kXPXowRDf8ZMQAgImoRFC61YXeoC6MsV3h7sRDVVZWH/Pj9urTktH0mflHeZvcHI5VSLwGsNn7+viDe6EertiCqbk+8rLC6841fI4jr/1soTI76ZdE4M2LTU74YePXLNvQYd/NRu41YnZuz1A4DACKiluBiwLrSgS4shNXs5tw9LELx6y/scOAXdWuMoM+PZt2XkrwXQ6QRZTsikUMONt4LAAZAvNrBqIPVCEY9BKjq8AXqVaGaVu+XpTWcb3yUUsgWnXjtxO8wEESw3kGNBVy0srzDwMsH/uKpbe+21AAYABARtQAP3IwODtLbaoRskwAFHmnb9sPn7kCmzg3qLUh3G3F/pberQmmQ0vbfyKhDvi9H0ldAIUibPDiTgBgBRJCB8RUI11ifml6Z6HCNtOlx5vJxVxyKkd++3ItsCBDBiUU28/RWPSIDRChAZA2CTKq8om2vu/q/8sYjjbmqofHDMiIiqrMR91+4u6jfycDHW93Wsl8RAKounc7vPAPX5KZT2mPlv/6zJNjjSeu+PFMEpvESAeMh/5QtgAIINIL4lCpQlkKwJLIFc8OCneandhkw6y+nPTL9+nYoBQTv/vfEQXmTH/pZJOFOlZKHPLcRztS+21QYBJoBEACarkgFu9zeu8fca/BG4+ZGMAAgImoB8j97Z68ArpOHVO1fX7uhahEAXkuDZId3c9aomwSlMx76nf3nL4fmSVTkGjgNQKT6+dogA4PQV1QozPJI8ue4ZOFbUddB7+Sf/1BJD2mzOn7lHODcRwEAP1fNa3txr5s2mrYH5/uNABSRhDDwtV7RoAIIQqhWZkQK7+5x9oJL0b/xEyMZABARNXuKRPneAxTI9xB4SFXF/FofZ2Nql75rctmyIUWnfLLsypv/6So+Gxr4TCJjElWJdlqjxEAPExcBrir+H5mwau7ewYuBwsJqJg56RGCqdjRU7wAXpb3YLyIxizTR/r2o/d4zK4YePrnfMz9fiFsBQIAL2n79pBMU513S78oCv/4QLyGcCRFqGiJao87fqEPa5CH0cf5DQiuhCJCS/P/1OueTXzbERj81wQCAiKglSJV1NFJVQx+1n3MXAA7200uOv/ND/OSuHDZM8NBlevfJV/c4MjB6UEYSKHSlqDT5sDvIVRDopo7eiYEASPgUnBikTRIWEaxGcCYZL6tzmsmYcI1XWW6D9vN8225TFvXdf9oBXX/zIQ6ovsqXAPxi+ycdolg6eq9fJdIbzsmYvISo32LFQM06bicBjDoEmkbK5MFJAnD+vcw+R/8GfSX7qkg51jTCECIiyt5cxbKHerycQPog9QqBr5oGqDkjihTyH+7ZZtmpucoB2NKym488yn8+9y+FWrFbBkGNnv6r9iWAq1pFEGoGztg4MIAi8uI8JC3AJzDJt33hblNLdxs4/dOzHnjv4EOwAS/V9joUS64ZfXrB2g//YK10SiPMavmiQ4BA0/E4hzEwPlqyZtfR5w267D//bUrdLkcAiIiaq+8rlvzl4y7+ziP3h4+GxOu6tlhrXksuaLsK1+SygZv1/OWzz3582cCRWrnxiihI2ISr3GGBIBULCJDQCIDCKSojtZFBtMpL3nvpws6vauc9FnU57ddz85/eaznOEAAlwNkPZtFCxYKbjj4y8fmSqyUIOmU0rtWfTRGjUCsRSSKuJaBu8dq2e17W1Dp/gAEAEVHzMkTx4tSVu/T/8ylj7Lq+B+HXFfsVuMrOaUnsLBpvxevF1OrJVQB4DzWFbXM6/7/1WVaf/uZdXe45/uikpvbZepWCQqqmLmRT8p5ThXq/0UE/TdvC98rzd3m9TWGnz4J9D5y/q7/0HRxZ1foLn6hz69565NeDC2bP+k0A19urwCGArdVo/ZaBl8CIwrjK8oq8Ln8beO2kJ5pa5w80xRYREdFXXa34YN/f7JGc9/LIsOyT/YwrHyvqdzcihSICqMJnczvXuCqeNR4Zb9Z90fvwE4ae/+DLOW//5hNi6dVF5yY3LLxBTVCoVVGAlarMeu9h1KW84MuM5C+ELZwate82dfl+Z83Z7z/fW46bgHrptmYolj+22+MJZE6oWWrillckMOpg4OGqpjaMKBykstJ2uLX3ER9diQOaZlfbNFtFRNSqKfAQMD/vyiHhvFf2CctWHGg1NVYQ7WaBQjVxjr/WaVmdAmrgxSBABFW3eOkZ904oGnLcJzm6iG06Yb0m/nht96cSWvktQBBBvFdZFSBaXh7sNMUW7PJ+eddB71x/8n1zHmyHVH13U6dt0OA3v+1zV4HbcKrA5NU2fbI6STBTNeRv4CGqUGNeeOxXnx3/i/aysV4angMMAIiImgQF5gEzZ16wV8fFUw8OKz8fm/AVRaqyqxVNqARQQby8LQeb64gqfFWioDECeDe1y49WjcXg+u8WFvzf94rylr9xsZo8NXkd5q3ZbdiL++53bwkGAw3ZLY38VPGvP/e7D5myHyQ0Y+JKf7UTf44WDgZ5WgmBYqMUTEkeeM7ZXY68Mnc1FeoBAwAiokajGP4Zwn88/t3RbdbMPwgbV01I+vIeUO3hbTKECFBVp94jTkoDtNYZ/ts9uxqEmkLK5sNJ+Pdetyz9YcN0CwpcDaAIwBFA43RFioVXDr+ibdniX6kN8yLYHS5L3BaBwiFemZD0lSizbSeX9z34wkE/e2B2PTQ6p5gESETUkE5QfPjA8t2Sfz57nKwbPCpxy5qx1mf6e0hHEwTiJQ+AQlUh6uFgEWgaKhYZU72zXt3FT66AKCDqPJId5zdcRyyor9UGNaNY8tuJRwdrP/mZBGGeeg+T5aiKh4FCkUQG5ZL30dquw34xtBl0/gADACKi+jdE8fnUxbusvv2ConZr+x8dXLm+yEF6B/BtrBGotRAFvN88A13dHVk4qFgYxBXmckehMHFlPR9lkN95bQ4P3oQp3r/zuweHC9/6fWjQzakAtVw1sSWBRwIekZrSTGH3Pw29+JmZzWVwnQEAEVF9mKhYes71e/q3nxtryvqNSP26fEwnzfQMELVTE0ARAKpo6Pr41eKENQcRwMMuW9V970nAG43TmAb08dO/HRq+9ub/hQaDXW13TNoGFYvII5VO7HxXnyGz72gunT/QnFpKRNSkxfPas/a+fuAu7zxdnClfMzYvKt0/0FQPEZOEbK5+vyl7PwfJfNm3Nt7f3hiBc37abuesGtMUNqipT0tVOwQ/7/qAMXq0SDzNUhcigPiMrwjaPzTkqo9P39C+eX1+HAEgIsqaAo8Di9edOdIsKxoXln2yn0zJ7AX4nnmChBWPSpP/lfV6Ag8Rre1mfblp6xbPfAoDgwiAQExQiXRDt6eBPa7IXNrv6qSkjhAYODV1egKOt09WpKXw2fU3zfjlhkYM5rLFAICIqFbiNfrvrT19VP7n+05MTF81wmhmhMDvakVCNQLVuKadg4Woi3e+qw4CpGp3epGs552za7agehQC1WMRVZsHVQbt5sdL8FoqxYI5e13ZNr3mJ94kgggmq4z/aqIKiEEKySnRmDOu3Ee6fJHDxjYYBgBERDuk+NY6JG6979iDC1YNGqdzNwyzPtrLaqYrbMLEQ/kmns/Xr76v+rlw65ryDdr5I95Qx6qDRbx1ropFqB5pr14K2r/ToI1pSN9XLOgx6gcFFavPC0ULU9CqXQTdpk2Gas0E8D5agZ7Fv+t3/LXvAb/NbZsbCAMAIqJtUmAWsPDVbx2GNQPHJq9Zf4CBG6hiOgUiCJGBE4HXr/X6TVLoU1Br4CUJ9QrxmYqUBJ+6IH+2dO4/o2WmhCmW7nnQCXb18t8lJLNrGiEiBAgQwaP2RX8AIKEZbNRglXYYdP3uP3/i+eb8uTXflhMR1QvFkr9dWCRLXvlOonTlKItobxXp5GwSUCD0lfCwiCQBqRpG3pze17QIsGljnQwMAh+td5DPUuFOr5k2XaZVjDtu5sCPLpiPs1pmV/DuX87ap9P8//d3I2aoR7xmX6qWP8Y/s9oV/jUCRIrVpcnuVw28fs7dzb0Lbd6tJyLKGcWSv51bJB/875Rkeu3RzqJXCAsnFkajrbr3eAMYjXd8j4fUG/R2Gndim1vjAbWAxEWCBAYQDx8PTqxxYhZ7235W+U69XnDHXPrW4MEHL2vpt/8lz984IPnirXcaiQ4URVXZY4X1Ds4E8DBVuw9uX3WZX4M4jyNSKY+Cna7vdfOC61rC59f8r4CIqI4W68pdzBUHnhOmVp9i4PoaEWhjJOrXQryML65DZ6DIWAujgDif9garnSQWuqDD1I2d9ph03Zn/fuWRK5DCna3klv+QYuncXnfnafmZkQSwPpNV+eTqpZIi8W6LKVP4SO+fLjkFfVvG59gyroKIKEvz/nr+8I4fPHZrqOkxYmzgtSkO5m9LvOe8QpBR+MDLali/qDSvy3PpLiOfff/c+xadKChrdbf55Yplf+59ZzJad1pk8gurV2FkQ9TDSwBA4dS+7k++5Ue9Rp6yOLcNbjyt7DeDiKia4sPrDzus7Rdv/SZEVJQxYfy0V8t54YZUPZ8v3gHQdAS7SE34nsvvNqey+x5Trj/l4ZK/t0Vlq721v6b4+JUht+SVfXKOt8m80FXCi0Ha5CHQTK0P5yRAAhlETt4q2+fkM/Y4409v1UOrG00r/S0hotZN8eENRxzVfmXJbUbQa9OiPM3dTnu5IgIYxEVnPHSjqvksMnnvuIKuL32y70kvjp9x4WLcBLT623lXxcKfjju3YO383wVG2lVKiHy3EZW2AAmf3rT1cW0YKNIIPyzrUnTBoEv+9WJL+4xb1tUQEdXAgru/X1T44Qt3WSND61oOti6ql6KZTUVpFKhKTrPwiGCgqhu8BMvU5M/c2K7n6+uKvz+pKPzxEhzA2/dmig9vOuaw9ium3ONNokfoU4gkgMBDESfx1SRJ02g81y8AYAKIq/x0bbvBvxx07aRHW2J32fKuiIjoG9yu2ubYi7s9Ffj0xLgyXmNRiAKRhEhqJbwE8eiDj1Tgv3QI56XD9vM2duz/aptjzi/p9d1DV2Aeb9nb8v4jlw7eqeTev6sNRhofVRVdyu6zykiINr4cFZLYGIW7/KbXje/c0lK7ypZ5VURE26RY+OviiwpLF10fiIYZ2EZbvy8ALDx8vJucAlgp8B9Eyc6z0h33eLXfCU+/gt7weYc4AAAgAElEQVTI8Db9zea//XjvwgcuuEuBQwM4WM0gI4kdLvHbFg/AikJ85DNBuwe777n0DJzRcj9/VgIkolbjdEVe/i+WHAMbhpGL4k15GtCWhXmc10wadm0kyQ9tXrs3ynbb98WBAx+agolVr7yk5XY8OTNJ0e7B3a738Ifm+wo4CVBhChFqdjsbBfDIeOMj0/bR0ptmXtqYuzU2BAYARNRqXHzzd4osogHiFa4eN+PRqnlkAw8Vs+k83kUOwOqUKZwtBZ3eKO26z/Srv//AlCfaw8VhwcP10p4WabJi6TN73OA1OsaKoNLkQyHI8xUAUKOkP4XEPyMAccpfgFAzU6Ze/OrPT5RdV9Vr+5sABgBE1Eoo2q7fZ6yH7SQQiKLeduQziPeadzAwGlU4hCu8CWZF7Xq9Ge0+Zm6/oX+aiqEC4G3g3Adzfv6WT/He/4pODjPrzjIGeapxMSSgZh0/AMSDPwonFqGm4E0CcDpn5eDvXHJi1/4tvvMHGAAQUWtxCmDSZYMDUeugcBLCIKq/8ykqMzbvhUy7Hv/G4HGz+n12w3s4H4if9P9cf+dt8RSLrh19cmLd0usCoEOk1eMttT+OAAg0g7TNh3HpVWW7DrtuyE/+Oh24N9eNbpIYABBR69AdMJnKfAggHoDUX/V+gSIywfqo7+hn+h37zwewW/xVqivF+7eeND7/kwXXhpDeDhZeBDaLpZwGHimThxARbJRaV9au3/V7vP/iv1rTz6n1XCkRtW6XKj51PZ80yHzHuAyc2Kqqf/VxG1QYVYW69ZHJ+8jld35tbfdxT+6buasE5/O2m605D1/Za7eZ9/wjHQTj81wKGUnCIgXNcmtfgcB5X16Rt8t1/Ua/dz2OaV0/m6ZV8oqIqL7cCGQSHT5V5+JCOxqhvp6BFAZOrIgJOgTiRwbln1/SZf7j/172cfdHF/z2gO9gTbxNH9VOu/WfdPYivfM1gwgGgabgEGZ1rEhCWGSQ1MyGzKHnPdvaOn+AAQARtRoCLdhltkIrIgnhJKi3LXzjveYVDgKvCiMCZ/O65qHyezutnvnX5b/d9bXFl+911dRHLh+IhxkI1FS//vfPTifaPZ/yBs4koJCqQK72Er4CGRSg0oadky/ec0hrDMgYABBRq2GHHTpZRZZYeChMvS0D3JoCEI0QwcIFBR0TVvbPq/zimr4ld7y4bE73fy29ZtxPFpUt2gXDW18nVCsTBdHQE/8SaLQohIOKqUMQZ+EkQoFGgUmv/O6y527rm9O2NgOtb8yDiFoxxUeXDLquQ3rFFc4kROOuucHO7queuazG0xDOhDDqoIqKNBIfRIn2L2f2POThAUP/bx6G8Pa8bYpPLxvwK59ad2UeomRl1jv9GSRcBDUKrzbamLfzpf2uf+/W1tQtcgSAiFoRgfYc9WJaEqsg8eKx6lEAhUC0PrcCVhh4GHh4MYjEwvgMIgQQQX6+SQ/Lz6y6uN3ch59f9mDPp+Zfvd+Jr302v3NrHJr+ZoJuZ82/WcTMEkFWnT8AhD6DlE3AIYEkUkFe5ZoTnpvxcPccN7ZJaz2hDhERADykWD6v/902s+4nMIFYH3cglaYABW4DIpNotKZVlwpWVSikVIH3KsOOL2a6D3tjwGGPvIr+vGXHFEuuHHZZ3sZl14q1YV13dIw/Ve/TYcdbet644NLW0jW2jqskItrCoumP9C987LwHvdhiFYPQp5A2eRD1WW0iUx9E4oqC4jKaMYl1kSTfTrXp9Vib/U56vutB5yxt7bfvOe//t1f3e0553tm8QVC34zfsgBWFd+ajL4d++/RBp989LQdNbPJa928QEbVSivl/OvWgjkue/aOXxN6RBAg1BYXAS3ZryuuHwMMgEAfjI3ivlWmb90E66PCq6zrkhT0OeuxlDIlf1/ooFv6q+Ko2ZR/9CsYm6jgIsOmYXtr9rduXi36Ev7X8z7TlXyER0TYpZt3wnXHdv5h0O8TsI97VuI58w1FAgYxJVu1wJ9VzBHCQtV7s266w+/NfHnDmv4bd+aOFeKJ13dIf0dIO4y/q/3xCXLGvYwCgEBhRwPmVG/od/v09zn3opdy0sulqXb8tRERfofjoukNOaLdm1nWA3cOLQMVD1MB6ByeJqrrBjZeIJ+o3LXcTKEQ1jgMAQATea8Zo9FFluPOkiu4jHxt42MOvYQDQOm7vio+u2f+Mtuvm/cmbZFuvcYnfbJd3CoBQK7De7vrnPrcsvKClf4Yt++rqwUEH7Td6Q3lFgVVzlHrXRoxJqupoUWhc8AOAMc5F0evGmjxr7QvGhKsnT578cmO3nYi2RfHeLSeO6/zpKzdmkBwTQpARQCQDQQai2VWaaygigMJCVWE1sxqC90vbDng402fY64NOv31Bi7/Nz1Us+0f35wNkDrMaIZIwyzwOgYcgqWmkxS4p7XHAjwf8/IlXc97eJqSF/2bU3fjx4w9KpVJHW7jRUN1HRBIANq0e3jL7NP67VI3SxcN0UrXUyKtmrJEP1NiS/MJ2t7788ssfNMoFEdE2KOa8dl+/Ts9de53xG48s0ExhhHxEGsBIBk19KV51xydi4Y0FMhUro6DDLb2WLrylNUwLLLzuwO+3Xz37LjVBYQYBLFytCwRtuqfDIEQGTpJPddnrs+NwRsv9/FruldXBoYdO6Ld+ben1AhwkxuykqoAqsllqsuVQlEhcINRYC+/8B9bKPydPn3VtLttORHUwT7H4yQk/TJbO/6kTDEkinVC19VYyOFc8DAI4iI98xiTmRh32eHC/70/689LeTbvduXJ1qeb/6Jru/w41c0iEAElfASe13+zWqIOTAF4CGJ9eX77LsLP6Xf6/x1pqV9kyrypLY8YUne8if6FAe4t6qPfx+BoAlew+KvmGoMFaC+f9OjX2thkzZv46qxMQUY4pli9/tVv6novPzSv79CgL10eMyY/z8bQqGIifFWXTvxuWQOFhNhUyMvBQ79eUJnd+JJx44f/1Ovini7d3ex83blzR5MmTZzRsi+vfkt8fcmxi1Zx7Q9FOaUnUeo+AeHsmA6uuaiBXkDKJF8f86pNDP2nfMrvKlnlVtbT/uDFXZ9KpyxTIU+8bfLDPGkHk/GcIgqtmzJj19wY+PRFty8WKd36zZNeCG7/73XDjJ6ckfeVe3oYFHhZGI1gfITJJKBxMA5YUFvVwEsLAIYCHU/URwlfX7Trsz3t1f+5ZnLr9dhSN2Pe2RJg4d9K0kpZ3739IsXhun78X+A0/8MZ+48NXTYgA6qPS8k5Dz+p71auP5qiVTUrL+yWohQnjRh+Zqqy80xjTw/vGK/4hUEAMIAYqZtb0GSUjG60xRLQVxWL9Yhdcf8qh9ssFJyczG8eoSDsYgYNFwqfhYbIeJawtBwsRieepvf+8Mtzl4cpz7vnDoF77rdjee4qLRx4G1fsNsKs6//60WXMGN0hjG9iSW789Ibl80sPGmG51rQ4IxPfmlCTf3PmWt79XIJ23+/k2V602ABg9etQLiNyhAgevjfsxxIOJVX8XgYopL2ybN/SVVyYvaMx2EdFX3aKaOO7WIw/zK+ZPyHcbjjaa6S02sAogN4VodizUDJwilTIFM1y34j/0vunJZ7By+/ewUaOGPxZae2LkXLz5i/o502bOHd4wrW1gzymWv9rrAesrTjOoe+pmVQJ3lGnb74pe1067uaV1mS3rampg9KhRh3qfedQYs5M24lP/9kjVUKKxFjYIfvzmlOn3NXabiGhrio8eOH8o5r92dLJi9XdCZAZZY0KP+gsEROKcooy371Ymd76n9IZpjw6Vtqu39/ri4uJvq4/uV+/aWIFxMLDx0qXbp82cc179tLLxvXXv2UM7v/fUUwmju7sc/CxEBF5R8tYfFh1+hLRdW/cjNh2tKgAYXTTiLnX+7C3jQhWp81xRrmxeMRD/zdgAxuLMyVNn/rUx20VE26P4/I17e1e+9Ndjg/JlxxlkhhsJ8kS1aiW6bnodNhXy8XHanpivFawRKBwsDDysj+DFwouFhYNTKau0BU+5nuPu6n/+Q9O/6fZdPGrkc9bI4ZGLNt3fVARGBMbae6dMK/lJfXwaTcIJik979X1QdOP3RX0ckWU5PROJRaErR0ryKjJtul7V87dvtajtglvOlexAcdHIuUb9vqq+wYbqcsEYg8DYH785vYQjAURNluKiUrS98E8Tvh+sWfBto9EgwO0WGEilJGG823S3jW8/cWU/g69uYuOrstAVQGRCCAShphEpPnYF3W7rOeqtW3HMNyT5FY0403h/JwC7rTlwYwxSggNmz5j9eo4uvEladN/PxiXffeIha2wv8ZlNSZO15REg6TciHeTDOTsluvzfx/feZdTn9dDkRtHiA4CDDz54t42lGxZBXV5THPKvCWsMKiI9c86cORwJIGrqJinem3niqOSKt47Li9YfEyLqC7GBwMPBwCMAoLAafS1x0MEgoRkIEG9L7DIVmaDN85n+h/6x71l3T/6mW3bRqBGvWMGB3m2/o7PWAkHywClTpryWo6ttohQfXzrg5vzUqovUBOJgsqsOqAYqPg4eNIg0f9ffdP39vN+1lK6zZVzFdhx41IG7Vny+/mOF5jWrx/5tCMIQoTXjXps8fUpjt4WIakIx65GLB7af9+IJbVMrv6MaDbbGhMDmomJb7zwoUHgJIC4DZ8O5Wtj9vvMunnnHv9tt/1Y9ZtSI33rVXwqQVP3mTs4YqZhaMqeg7tfW9M37zx/77PzKb58yxuwD77Pa5VFFoT6BhKbhggiRK5hTeuIfjhs0+qSPc9/ihtdiA4ChY8fuFmYyC42P8pt6Gc+aEAAqsrHdbj0Gvfj008sbuz1EVFOKaW/9t1uXp645VTZ+fkTSlQ21xrSNJIRssY+9IJ6qdk7XZcK2j/txP7y19zFXzd/ebbrf3nt375QXvhCIDI6ci8uP74CIlE+bOacwV1fWtCkWXrHXL9tUrrzOwyYkyxEASAQnIQJVOGiEsMNN3W6cf2VL6D6b2t6XOTF+/PiuiXTFIqsto/OPKQQoLP380/80dkuIqDYEo/c98tPe15bcuPu5yyZs2Gmfn1SYwqfhos8cDEQEgSgiFYWLSso7Dzq718DFZ/U+5lfb7fzHjBp5fedksNwAg533Nev8AaiYD3N8cU2YoOKwi/6Z0eDdEJksD+EBCIw6KDxC8YFJrTnyqVn/65rTpjaS5h/CbOXxxxW3/qGoHD7Kb+7D/luqLjkqxsKEiSenTJl6fGO3iYiy9Jri/bnHj+/w2ayfhNG6Q9KSRCrR4fHMgWfeOeDQiz7c3q157KhhxRB5QhXda1u8zAjgjX1x+oxZh+biEpoHxSdX7XOdbPz8CisquagLAEWmPOx8a58V71+GfzTvLrR5t34biotGvAXv92lJnT+wOQAAAGMtUlH0rdmz33qukZtFRHVxiWJx7zPGb1y9wu4dvfA6rvmGuf7iorvhozOzLVduBEAQPjh1WsnpWbe3GVr27r/6mnvPeiwwOjwXvYIRwHksK9v7xBP3+OEdzXpPhdpvl9SEFQ0fdrdR3ce3sM4fwFc3HPEOCWv/ixYYwBG1KjcJ+gCT4n9s+3/n4nHFY5Fxj3n13ap3Ja3JkP/XiECcn1uH1mZl2LBhw4MgcVZJyfQzG/rcANBzr2MXLfz1DX8qLF10pxhpU9fuwamBIOqZ+OD5EwCd0Zxvwy0mB2C/0aN/GITBmfVV0z/e92vzn8Yi0HiXQlWMLhrFFQFELdi44pHPmHRmMlzUTb2DV8T7hmRFYEO7OJft25GJE/frH1qZaeAO+vp3FfOuPqjP2/edvRfeUyAnz+fbIphzzYtPR5KcLlAY9V8rwFQbRj2sCIKo9LiPbz95dA4b2uBaTAAQ+cx9LkrX2/FlqxCgsSikepsqBEbHHLz/+FY0n0fUeoweNbzMe3dU9UONqFaVD8ru/iPG4M0pM57JZRt3pHRDxTQLFQvXZVvfb5/+/Piu8x55ZsXfuk1aMnGvWz/8w3cO+GjK/X1xd27vsSdKuw3pnXa/K/JmPUSgCnjUflkgEC8NjGBhobuHS6eehD2b74hziwgAxowe9ZR634wHYnZsy2tTMVATwDm98eXXJ/2v0RpFRPVi/Pjxp4pIYS6Ll+Vid7zaGDli2Pui2smrQsRso/aAoCKv8xJnwt0CyYxLpr64oMPyNx5PPHnJi8sW9PrXJ1eNuHLZ7SdNPHmdJjCk7ul7fQ+e/BSMmatiqsorR1kdSWFhNQMYC5tZd+KiM479dh0b12iafQBQVDRsCJz7tqrW29C8SNWwvzFV9fkDmCD+I8bGQ3Kmvj9KrW4MVOyaZH7hxKklsy6r55MSUSPIZFJd40Tm3NzTRASq/v2cHKwGikeNeCsQDFIf1znw6jF+zJhTt37d+l2HvBdJsDqjFhbeqAk750nUJ0/LjjUbl12Lxa89/Ltrd3vt08P7/GXZtfud9upzd/fFR4qslnePFviOAx6OVDYEiLLetcloHDhEsBCb2DX8fM6PMa95jgI0+wDAqvwRdZzT+SYm7tjVhkGJCcJLJUgcOHXGTJk6Pf6Tn194hgnDGxUyXYzNLjmnpm0RgbHB6zNKSjq/8cYbL9fbiYioUYlqr1zf0QSSyPEht2lMcdGbRnQfeLcpfFEAmcj32vq1bQ79zloLXxFoFL9KHdIIESGAhTehuJ3bSTQmTJeeFa794O7BL13xyvK7uk9ZesWQG5be8K1vvbPynV1xQs0Dgh5jXr9XYF8CJC61nAUVg4wkkfQVgAJGK8Yvfu7wrwU3zUGzHjWfMKFo90x5ZolCc7Lqb/OHoRCJt46wNrhr6vSSn9Xk/fG+A+vuEJFjNYp/oXMxKiECSJCEQH81ZdqM6+p8QCJq0opHDHtFBAfmatheRAATPDhtRv0uARxdNPJ2UX+Oqn5lykFEAJFXppXMPvgrb3hNsezZbq/mSfqAjFrEOyZW5TxU75woBh4GBgqLuKSveqeAX+8kXKI2/20U7DqzrOeIuYNG3j4NQ+J3b8/8G488qN2KKQ9rkLer+GynAWTz3gIiyGjwnx7Fnx2FE5tXl9qslwFmKqIHFbnbf7v6MMZYiOC9GTNm71Wb97/88sufAfj2xAkT9t3oyyar93UuuVn1P85GRXLE1GlvtKIqXkStl7HSRX3OxwCyLIdXM0VFo+6C6NnebTtvQSC7fu2L/wC0U/4X6tIABAYRvvIoVrXiobqzdYgToEVERGwHCz/U+/KhvnTJqR3fXbBu+btPvusu22lSuu2hM8qKT3t3mD95KSbiK8cc8Pizryw5oPeTea7sbBEx2XzKX6nLAoXx6dGLFxx8XB/ok83pubpZTwF4r2Nysexv0/SBKowN4ET+MaWWnf+WXnrjjbemlsxuo2IWmjrkBlhroWJfnlYyu800dv5ErYfXPrlM2hMRmECeztkBtzJhwoTvGdGz45HPr1NVeGifr33jbwKEbT/wqh5QSA2vWQF4BZzGxxbVwIjpnCfp/ZOpVVcVrJ77YJf/XPD88hd6Pvnh5SPP+vC208fitaqpgtmCsq7FDwP+i1zM2Do1CA06Jde+e+EjWtau7kdsOM02ACguLj7bGGNzNucuClgDL/h/M2bMOi0Xh5w+c3Z/I2Z+bYMAEYlzD4y9dnrJzIm5aAsRNR9ONaePkSIC7115Lo9ZrXhs8VGZirJHt9f5b2oDUDBmzJivPVilCnaeB6DMQDc98deGQpAxIcolH5WSBwEkFN/RGjMogdR3OlYsvH3nhU88/cmzXSYtv6T3Q8uuHX9hl8F77xSZwpW52CtGoHBiEWh6+KjfHP695rT/TLMNAAT+Z95vf9/rbI4IYO306TNPyOFBMXnGzIEAFgLYfoKgbC4uJCIQwdqCgoKDp0ybcXUu20JETd/48aMPDaxN5vKYzjk//tgDSnJ5TAAYO7b4cET+mZqMxIoIQmP6b/31ss59FotinQHgs+iSjHrkuXLk+XKEPg0F4GA2jRBENi9IBe06JRGNS0alp8iXH92kL9z0gPGpgbmIs4x6qAqMSH5yw0c/WKQbd6nzQRtIsw0A4KK9c3k4IwYq5te5PGa1qSWz+0PMxu0N6akCKgIYC4i8MqVkdqeXX5/0Sn20hYiaNu/Nptl/zdmqIk3ddOlNpTk6GADgBFWI88/B1Sy1QL1HFKUO3/rrj531l0XO2FUmy616VATOhHFyYJwzVTWtW1W4TR1EHSIYOBiE4kJvE52saDIXz+oKwFcVFwrghptrDzsmB4dtEM0yABg/puiY3C63i39deg4c/GQOD/oVNhGeZOy2cy6tAKLew5grp5XMPliaURIJEeWWuuj4XBYAqkokznkJ4GVFI79wLqrx0mcB4KJop62/fuNilEUmuQbqNmfW16PqxPFcDdR7sRBVxFWaTaJw/YdH4qXmMQ3QLAMAp/67uUyQUSjg/donHnjg85wddCtTpkx/NlJ9QsxXy08aI/DAsrxE/vDp00t+X1/nJ6LmIfIul3ObcXKz2BU5O9zVQPGoEauN+p23Xu73TbwqjJivJ1f3BTKmYIZvpru4CRSBZuBhkTZ5cN6PfGf+6c1ij4BmGQBEkXbI5fEEgNRnBZ8qJSWzTlT1a6pPZK2FMfb56TPn9Hpj6tS36vv8RNT0GTETcnrAeEh8ba4ON+b54a+L+k7ZrMBSwYBtfd0E4QI1JtOcltBtyYkFBEi4CngT7tzus7f3aw7JgM2yDoAVv3euP1uF1v/YEwBrzNWA3g4TAN6dO3n6zDsa4rwN6cADDxyyceP6jtaY76tzaYGZqFDvvbogCAZCAGg8NBm5SNX7BcYYIyKRqk4xNqzIOP/vkpKSVxv7WpqzceOKD9aMO8B519lYs6867ahx2cz2gQ13rX5yExFkMqkPBcYaI0ZE5qv3n8PIM+3btVv9/EuvcdfJBuTV2+pxwpoui9uaQjYtb1YRwNppuWjb6KIRL8LrhOy2JFYIRHC1Atds+V5BRf7hnxVUfrbRiCZyXv6gQVTd1NQjMAh85erhuBrANY3drm/WLMOt4pFDF4uid65+TwTxTllhh06D3njxxXpfbz+6eOSkNm07/PCll176qL7P1VBGFhVdZdVPUOgwAB3FGMD7OEO2+kVV82Rb23wjiWufqxiIMYicc9aYL0RklsI8NH369Mcb4lqaq6KikT8R4EBVFKn6bqGRxFeGaKv++80/g+q68fENXgA4SIUKpqnilZKSWZymqmdFo0akxLsE8NWCM7WxZQAgxsIGiUsnT516U13aNWZM0QsaZQ7NtkCRxI2BDZMXTZ469dYtvzf1v7f06vXy718PjN29eQYAm1kB0t5M6v69z/dDUdPuYpt267Zj9KjhmtMkGWicgW/N3dOmzTw7ZwduwQ455JDh69ev+ymgRxiRrqoKqV6WWd3pyOaljbXP2YjLMUN10woJ532lEfO6Qu4uKSn5d26vqHkaN2bMdelMeqxA97MCo6pxRy91r5ApVd0PUL08Vaq/vtDB33P7jNk3j6j/mbNGM27cuMOiKH24c76NNThQVVwcGNX+sxVBwprg3qnTp1+7o9eOLh6lGsWZ9bkIAIwNMHXGzDr9oIqLR1wC1RuxnSp/NW6VsYAN7pg2bca5X/nWEjXLb+8yNQlX5HJbAqHBGQGc148/Pejag0Ye+bOcJ1/mUjOcAlAYMwouhwEAAKhXePWn3z1LzztrRP2WzGzORo0a8UtVPaN0/dpBVhXeb37C/8o9cYuOIbuETfnqk6uLYIE8QA+zIoeNHjVspTHmgSnTZ12a5aU0W6NHDj1IxPwKwAQXpWARB1xfeXLKwVPUluM1W44kCNDPGHPTeUUjbhxdNPKfHTq2u/n551+ZW/czNr7Ro4afJsAFqrqvZiqNeI8AgPqqkUIgnr6q5XENBE7dxh29bsKEccemKlNZtHz7xNStQy0eNfTnRnHj9kr81rgdqPo9cr7v1755K7xPmFVAbvMfG4sAtlPZwibfvzb5Bm5TvQwRKYwxeX87Z9SrAMbXxxmas7HFo/7qnfuRQMXHqyaqHzS3oFv9K7sbz7Z3dtwioPAegO6qwCXFRSMuETH3T5teckZWJ2tGikYOv9QAZxsju1cnim+5YezWa8aznT/emkK+8oNWAPL/27vzODmrKm/gv3PuU91ZgLALw46I7Et319qdtImsQRAcN8YdUdRRRwF13sFdZxxHBHVmGEUE9BVGRVF4BWUNSbq7tu4AirKIDDgKyBKSkK27nnvP+0dVdTpJd6q66tbSnfP9fOKSPHXu01XVz3Ofu5xT7PgRMZ2/ZvW685Px6IqOOfP+fvny5Q95abSJzj3zzFc+++ILFztxHwARi3MQEdjSezx+468DEWHXOZ3rKh1nxwqvFPFX2JwAhKGteVqzry95gRQKV1ivGxPkpO3+6t8B/tTcZ6QwVp5Nx4Rvdum/aauRjXYWcsDBWNiU6ov1mIG7AAjO2Yq/SNMx/utmLYy4vkSs6199xp/JUvHua+M9Jzux4YUijpxzpSH+0n7arf7QVn9qtW0cGU/rUXqCKB3jnADWgmz47kS06/ne3t6LfPzM7aYvHr0kFe36qyH8K8Qdaq0dfz8w4b+pmBN9/I8vBJk0NgGAsxAbAs4uGtv48m+Tidh13hpugmSs+7t/feGvjzPch1gci7XbjVht/z2f3h9XWk9x9/KB71Y6H2fd/mbiyEudnWiCgKi2MsCpVOqVY5tH/8vXzV9Kwycisl0uAIBgI3vcHwqPMYoXlxBBKTOgjy5YcznBaOfRJzUk9bJPM7ADAED8bWnZOmxxSJvJfOrEE0/sbUQbM0UyHrsmHutx4uQ9TETtvEW39BS8twtHvx2L9WTPOeecXVt9Tj4sXJh6dzIefcGJu1yAfSdOt7Sb8SkC594dj0fXvuY1i9q6M7YoGXtnMnrSRhK5EAD8PuFujWg6z6xysvjckFTcAjg83Zclk8mjXDj2MBM8PsUSQJw87TYAACAASURBVAYmMG+d7F8L83d/mOFWgxhiIgjIISJjEDBCisCBYST02rlthGJegPCJV8x7T1vP/wMztANQrAHkv0dYjulciLmdZmDhwmTKeyNtblEqcXE82v2ciHsvOUvTSfTRKuVzFGthRGJ/ffaZ1X19yUtafV41E0E83vNbOzp6HazdqzwkPROIs4Czu41u2vjtVLznxlafz2SSiegtobXfJ8FcV/ruNDINSLEQj6tqGN4553w/7RLR+ukcf8YZZ7xaXPhbiIv4qLVe3k3CQQcI/N50evIFvH9OXDS8ebcj/s8YzfmRsZsfIWfXCxidMopOGYWB3ZLut00RAVbgwjn75nBsq8+mshnZAXDOLm/oV0CKg86F0dEfN7KZdvKOSy+dn0xEB6wNv07i9oHXQkvNI+IAFwZhIbw8lUr8stXnM13RaPQzyXiPsHPHOedKKy5mxs2/jEqdMYicn4x1/anV5zNRKtbzDKw7xzlXrC3fBKUORlWP9cTc57sMcCSI/HY6r1nz0uq7yNnAx80fKP78bAwYkcvTudy1Ux23ePGb1x/2hez1Bx78p/P/dMF1p63e4/j3bo7s+dW1vOCOUOh5ltBxaTdKu/YBSgsdX1i97/F3zYRpi/Y/w0n0JeOXWBte7nMr4GRKQ3d/zuRXHdTQhlqsN9r1Zkf8Q/HU428HAgIbBoMGBq69fiEd297d8XPPXXrkM39+5mfGmOPGM8FuWQ01YxER2ATo7Ox4w73LB37eqvN43eted9SLzz2bgbgF5RusEDVlOJmIIGyuzmTzFadFEtGu9RCZ76dlAZsATMGpA5nM3dW8Ih7tepiJj5I6HwAIpdS/zAAx2PA1g+nc+6YfSfARQeRDV745Neevv18cjL3Ub2jsGCPhfBLMF9MBK8UWCa74ey92fOFq8fOlBo8aEEgchAjsQllndv/eWy974n0je7b/7XVGjgDM3WW3m5vRjoiAiQ5MRrvua0Z7rZCIRW8Roh+Ls7Pm5g8U5+FcGEKc7Utd8O6GrBnxpa+v731/+d9nfsOE48ROqKk+Cz4OEYENC9i8adPNvdGTz27FOZx55imJ1S8+/7CILJj4dN3Im/9WC2GLN59Ipdf09yVOMcyebv4AQHACLNhrr4erObo33n2/Aeq++QOldTlEIGYI0dW13fwBgPDvRIWjL75p+WFffejzB134l8UbDznjvJc6D33PhmDBD0OhxwM7tiniNqMDIRwFsBSBEMPBwFIEjrixHb1SbMsREOyLwStOvGkm3PyBGToCAADJWM8fIe7wRs+NCgDDDAfcnMmN/G1DG2siEUEyEX8U4o4ksbPp3r8dYoYDvZjNDe/d6nPZVioV/4FY9w5xxdXntNXGvtmDiABmhERvyGfyTR0JiEW7n2aR/ZvZoyrf/AkCMgZjYXjayMgDd+3oNalUNInQDdWSY38yBMARb87mR+ZWOjYR7/4OC97vq22gWOvEEV+TztR686/gq4IHjvzKkbvdf1vUbX4uNqew9lQj4SFENM9QsUpfKFzqilk08veKAZAb27h+7n6XH37EI5/De2fG7/CMHAEAABa5tRntEFDaGUBv6I11N6xccDMtWpRamojHXiBnj4Sb3Td/oJg3gMXtlYr1tM1IgPzkJ+iN99wBa98hNiytOwFm480fwPgizYjIzalUvGn10mPR7qcNmnvz3xaB0NnZUfmDdeTxAaOcBZArJh/qjXVfZUDvd6XcHj6wCVBw8t2G3fwB4FOEk877p8cO/+LgDUfc89g/jL3jv85c/4qe9xc69v7mJolkrHPPdLhNhQ4UAAoa9pslFEBECmPBbtcffvLMufkDM/hqIyJYmIhK2MDtOxMRADYGlvjzmUyuzUs8TC2RiJ4hTn4FEVBz6h+1DSKCo+CebC53SqvPJRHreY4h+0wcbvWX/qV9FT8DWpvNjXit6DmZRCJ6K4mcLU26Rkw0cQQARPbi3Ejw5grz0KlE7Cqx4Qd9jGoW8+4TBLg7k1916lTHLepLXeYKo1+21sKBQB4WnhARTBDJDqSziboC1UxwjWD+Sf95wav3fHq4v3PzC6exjJ4I8J7E3Eko5zEpj7fJeMrlCcmvq2rJkCB0vD40c3/8lU8/+dH/2p3afu//RDP6ipOIdg0RkGzmFilmBgTvG8qPXNO0Rj2JpWKnmdDe0ejFk+2Mgggg8p10tnU1HxLRrucJ2HumbO3zrbQt7KWh/Ko9G9VGKh5/N5O7LgzDygc3UKnOyOZ0rvIwfF+8J22dS/j6XpTm4G8Zyg6fO9m/p+LdS+HkNp85PogZjviRbDZ/tLegdRHgN8ATuQtj7qmHTurY/OxpbEdPMlI4kCGdRAwhhpXi4kFHWwbFy4sKaXxWTkACCBtwKf12AeYx17nHdw958+8vx8kz73Y6Y6cAAGBuZ+Qjze7DOOdATN/ti0cbN7TVALFY7Cxj3U598wcAZy1AdFFfMjnpRbHREtGu53bmmz+AcqGoPRI9J93RqDZCF/5nI5P7VKtYOEiqygFgnfM6KkJEgLMrJvu3/v6+cx3Y782fCEA73fwBgIATCIdf+L3cEV/KXn3wQU++cWzpJ5aGexz7IYosuKYAs6rg5EWWEIZccfSCBAFCBGJhUCz+VNx6aCAcwDlx1obPEHX8JDzi1Pcf8pWZefMHZvgIAAAkYtEBcWFvs38QNgZO5MJMbuR7TW562lKp1GkuHLtjpu7t944IQrwhmxvepZnNxqPdxWH/nfjmPxEzwwm/O5PPf99n3GQiegucO6cdOrtcrDV+z1BupOK0U7Kn61mBvMJb20yIRCKfWT6Y/fLEvz/99MXHvrx2w0M2LPirOUAMR/RoNjd8lKeQjXeC4HMPYre3Xv76hbuseeI0u/nlQztk0zEkrhOQ3R14DkBgFMaIeK0IPS/gP4dz9hnZeFDsjqPCa4fw0Zl9C53ZZw/g+OOPT+y6y9y0HRtraDavyRhjQMa8f2AoWzHHd6vEYrGzDLlftmIetJ0RM5zQ7dn88FmNbmuZCP4pHn0O4vTmvx12meER4yvaKae8acGGdU+saYebP1DsAAjxDencyNsrHduXjElY8FeIlJkxlBvZ7qIYi3Y/b8Tt7eubSESwxI/kcsNt9OQ/XQL8EPifV15/6Av35zp3W/fUUTT28h4QiI3Me3nzgoOfePLci//3vKuPehFfAGbBrRPALPkpUvHoDyDuHdLkXOlUSrQxp7PzwntWDLbdSMCbzjnniD//9ek/iHVo1SroiZ2y8f8tE3LblZOylI+Z8P8avSiOTQBDrntlZmRVI9tJxnoGIK4X4hr6M02snTa+CGw8zW3xb4sfQeldlgklhYrD8hAnAPH439daj77qcyYGBeaeobSfhZnJnq6biXGedf7OuqYkMgIwHIgZzOaSgUz+ih0dfuH557/i93987Fmf2/CCIMBAJr/VySfjPS/Aub28dUSJIZBHsvlVM/jmv/OameWAtzGUzb8z0XPyOQAWNLttZy02jY5es2TJkofvvffeoWa3vyNPPfOXQdPklf5EBC6uPi44wTMO9KiJGCciv3bWRcAM51xoDPeFhXA3Y4KjWNyB47XCyzesJjwpiwsRkvl/AA5oVBvJZPw2smGv1wIvUyi/Y6X3H04AJnqZQGkQd5ChvAM/J1ZIyAmbyD5kw5hzdozY9ItIJwcBnDiQa04CYhEHsXjtscce+8rf/e53f6w7IOEs56Q8+e7hDOtLGCQgUKSj4of/yFOPv63mRqbgrNsqDXNfPPqn0IZ7+WyDjAkPOmi/c7P5hvahVYPMig4AALDpuEgk/FFzh/5KZWqdxfqXX7qz+5TuA0buHlnbxBOYUioZ/50Nw33LGbkaOvTMpjik7tyjzrlfEMmdQ7lV91Z41ZXl/3Hppe+Yn03/4Y1jhcL5IF5CkAiaccMUgJn+Jhrt+lA+v+oq3/GTyfglcG5p8anOfx3zrT5XYoAZIrLJQn7eEUSW7fmqV/z0lu/fsqbaeEuXLj1kzZrV58DSuWJ4CYuDzyfSqZAIdpk/90cAovXESSQSHydX6GiXaRYHArPBypWD36h4bDhZidw62yca3wKRiHbdZZ09yNe1oLidk61zOPGmm259tO6AqiVmxRRAWSra8wOQvMNa26T1AAygdIEsDrNuOmif/Q+/6fbbn21C41Pq6em6NML0tUZ3hpgZVmAd6Ce77LLr15ctWzbiI25fKv7RQmgvZeAgH2lJKyHm1enciNcno6VLTzn6xedXP0QCbuT0C5WKowjRCBnzlaGhrLdkVclo9xcA+QiAPQA0pBM5vv/aBOCg47jBwcHf1RorHo8Osg1TAr95/oW4tGDRbSxtCqviykkQMJhpXjqdqbjbKpmI3gVrT/G6BTAIBofSub5UIvZLuLA4MuIlOEOICk4Kx+XzDz7mJ6hqhVnVAQCAZKzrUQiObM5TQHmuVAAqzznyxgOjiVfcdNVV0yrB6Uust/fEiCs8YAuFrdJa+FS+6QDy+aHcqoYlRUqlEl+yY6MXM9G8Rn6ehhkURC4ZGMrscJ52OmKxk//IgsMbde8vd3CZacUuu+/y3jvuWP54Y1oCFiZ6riqE9oONqE1UHhURYjgyd+dy+SmT1lQSi/asZbG7FeP56QAwM0KHYTC+msuN/LTugFNIxLp/SSJn+ewAgPlKDjrEFcYuJhfCebjcF9MLk410zjthYGDg9/WfqWqlWdcBeMcHPrDvH+4f+Qs8lrOsVinrFwTYZOftdnh++fKmjwSkol3rnMiujYrPQQRW5Ef/mcmd39OUURZBPBobNuS6GzMcXcoFxub+bG64y0fEVDx6IwTnO+c/CY0Ql3Yw4AGg43253OCw90YmsWhR6rSxzWM/J3HzGrGYsdyp3Hu/A3a79dZbX57u6095zcLXbtq48W7r8TvCQQQOuCqTyf29t6BTSMR6NpCz83yuzBfBb4hwgr8FfwQLKvDc4Njsiuwf/ARVrTSjEwFN5v9++9vPBZHO11jXmk3vxd81mkubNvwRBx5YMfuXT6lo17UgasjNn5hBzKut2MXZbL5JN38AIGTz+R44fIuNt91iW2EmMNHJS5YsOaTeWEuW9J8NovNFGvD1I4IJAhDzZ3O5/MnNuvkDwIoVQ3dmcsPzAXoO5P+yUb5JrX7umctref3mzaOLXWkRqQ/MBszmB824+QOAiAt9loEqFZY6wWen2YFk7tzIiXrznz1mXQcAAAYGBgZNpOOzFFSswNkYIiBn5yUP2P/FpUv792tGk/39/YuF6D2+n5JlS03ve9K5kb2y2ZH7vDZQpaHhkX8gE1xhPHcCCATnijeO9etfvqzeeBtfXv8tCQve58uLZVV5DcgckU5nv+Q1+DSk8yOvEOJnG7HGRkRQsPaMWl7rnO0B4GXtDxEjFFk+MJR+V93BqtDf338cEe/mO66glLrcAw4imD937sdWrMhUVVpYzQyzsgMAAJlM7l8EtGzLfHXjTRwWZQCw4dx1qzf+8XOXXNLwMrRjG9d9qxFTHkEQgI35Xjqbb3kBncGhzCUC+qbxdFErKs1BF7cfnllPpFS0+1OG6dDiIJDHz4IZwuaxbG54j6Ghofq3ytUpkxveH/Bzs52o2Nk0B8f7+uLTfa0TeLmBChGEGQJ+q4941di8efP8Rl2jvKz4DyIgYz6xbMXAtzyckmojs7YDAACZTHYJsck3e1NQceldcXGgs+G8uwbu+3Uj21u4sPdjRHxcI546OzvnfHkgnbvQa+A6DGXzHxPmnzEzCPUPmY532kTAkAPPOeOMV9ceC1/wnX++NPXycCaTq/m8GiHo6Hg7lTpiXm9d4hDYsWkXamKGl+9/qd+2Jp/PN239Tqeh15W3vbbHBsYtjDEAmUsHB9M1Tc2o9jarOwAA8M+ZXBzMq5uZJlhKtyZBac+tk+5YtNvLFrnJjI2Oftr7zZ8IofDf3rti4DNeA3swlMm/USB/JvJ3wSQUyyO/sPq5mp78Yj1d/0qEzvG/EA9D0cwgE8mlM/lj6g7m2crBzA1W6J5ylkFvOQ6cg9gwNt2XifOz8LV4mZCnfMSqVhgW9tySEbN91mWXpts+kU6nv97qc1GNMes7AIuJJJMd3ssJVrfmDAhOBAFTVzwW/ZXv6IlE7BMM+EvtiVKK3EjH1fl8/mZvQT1bu37tYrDxOgxdzNZHC2t5rQmCT3ldf1EsWPTwUDoz7eHwZvnGN791Nhsz3uH1opiq+FXTmc4667WvPdxP46VpDUHDqhROxokc2sz2qsFMcKBLB7PD+uQ/i836DkDZXvvudywHkab3sMuXMWctDNwZ8WjXv3mN79yn4Ky3JzBmhrX2ewNDmYu8BGyQ3//+j4/DmJ+V87T7+PlFABGZ9lbAZLT7Sq/FlooL/p7PZNvvyX+iZDK5qRDabxN5zHEoABFFevv6qp7yWLdpbczzCN8cn8EqEdDh7TT4z0QgY76Yzub1yX+W22k6ALfffvuzQuZsNq35kQnFlMHGBJ9I9PV5WVC3cGHq7Uy0l6+LRylN6CPZ4VVtM+e/I0MHZN5IvrekEe2xdOnSaW4HdBcRfD79M+ZFOmtOiNNMuy7Y40qfn4FA4JyDteEHq38Re91p0xGYpo4AADK/je7/AFFhMJ3/XKtPQzXeTtMBAIB0Ov1LcfS3FARodg6k4pJAggsLQGHsrgsuuKDuOUs7OvpxOFuaga3v5yEIRJydv2Dua+s9r6a5iSDEdxWTL/n5PJkI6154en61x/fGuj7GxHPrnYEprxoxTDBB8LVlg4MP1hexOe65557HHLDK3xM4gQCw2Kpz44dWkj6r2yGg//UTrDqRSOSgdrr/i0gkkYgua/V5qMbbqToAAJDJ5282QXA2WjQSABHAWfzuoQcz9YQ5ddGiw4ioy8+8M4GZEeno+M7ddw8+7SFg0xDxl31uCxTnIGZO9avQid/v4zMoFm1iWCePDg6mP1l3wCYiY270d/tHeQ/NSdW+RiYuvqyTdXbzihWZ3/qKVw1nm1uxsyIREOg1vb3Jj7X6VFRj7XQdAAAYGEj/EkR/CzZNKTu7FaLiVieiY1KpRM3DbBtGRz/lnPOT+AQCR/TnlUPNyXrmUzqdXmGde95nTGvDQtUHC+qqgz5x9lyIMH/B/DfUE68V0uns1339FknpP8RJ9XmUReL+cuhjo5dAVUqlEhe3S/XCMgEgNoQNwyvb7dyUXztlBwAAMpn8zcaYDyPoaGq75Qu+tRZSGPt8rXEKNjzT29w/E4K58y71EqwFmGjE1xB0MYkPVZVuMJGI/dDL3vNSDQkH/vU998zMAisEetxPZ7SYvMYEQdWLMZ3ImJ8MgAQG/6XuQNMQhoWNbbTzb4tiNlMkY90z8vuoqrPTdgAAYDCd/c9IR8dVbILyBuCGk23qwvclondNN0Z/KnVcYPhgX51zAT2/8r6VP/YTrfmCILjPZzwG+qs5jkROF6mv3mJ5Bz0bg6dWv/TOOkK1lED85LkgFDtDVZbyeNvb3rZbYMzB3p5UxT3hJ1B1DNFZ4qtMr2elNOBHR6PRf271uajG2Kk7AACwcuXA30fmzPkamaBpbZYXrIkInMgpJ5+cmNYw8tjY5veTp1pHbAwKzrRdsp/pEGMeJ4/rAEgqz8metnDhQeTs3j7KLRMxnFDm2ccf9zqV0UyBCQa8jMLI9Jbn3nDDDeuq+byqQUSA4U1eglXLuq0eCDxuqPTCWYsOln/q7Y0vbvW5KP92+g4AACxfvvKTkSDyvWZ2AsrEWXREwmun9SLD3uqGO3Ebh4dz3/ESrEVWrhz6mc8kPNW8s5vCzR/xdalmJrhwbEbnWWemF1rR7sJE7MP+nv4F7DDtEbl6EFOime3VwjmHsOB+0erzUP5pB6BkxcDghSYSuZqC5k0HAMU1iExIJBKJ3upfI14ShxARmPjWugO1Aa+JYKq4oYShTflqzlm3OTfywH/7itcKy4eyP2rFgrHQWn+FtogwZ/686hcfeuBEIu2+0E5EwGJ3S8a6G1rTRDWfdgAmGBgYuojJXEPcmLrzUyHnwK5Q1SK8ZDL5zuLNzs+ipzAsXFd3oFmGquhNEPHxXhYAEsEYvq/uQG2gmfU2xttkOsnPQsziud+9bMUP6g5WpdP7+w+FYIHv980wv+QznqC4c4kJpy9MJT7uM7ZqLe0AbGMwnXmfAFebJuYJEHFwIudWdawNTyCRmst8yoSLjSNCbuTBO2sKNIs54g2VjiEST/XbCYh0NnXYuVEE9CxRffPY5TUVVGUH14nsW89W3nLpZiEH8VpmurK1Gzbsawx7KdlbJqDRwdzInqDiYmMffYtidVOCtQ6FwtjlfX19VSdpUu1NOwCTyGTzFzmia9g0ZySgmASG0NvbWzkBDUmsWLu+vjZLL59FW3z8PEURgNDZwR0d0xuPequ+aIzBwMDQFV6CtZiDPFnvp1B+GhbIi1W+4hVAHZ/+hBc6635Ta5hadMyJeBm9mIiYCQDY8D8Tsfc0JwSwLYwO+Y2qWkU7AFNIZ4bfZ0FXkwm89tCnIgJYO7a00nFExSHPus+ICAQM1xumffj5jARARxCJ7PAgoj18fSXCMFzjJ1LrkUjd1xMRoDjiLE9W+ZLDgS0jB7UiouJ2jCYqFMITfF5biAji3AAADGWGP+1A3js0pfM9KpGIzehFq6pIOwA7kM3mLwLz702DRwLGn3mcJCsd65zM3fKa+to0Jpg1Nx9/meAIRDvOBW+drfg5TaOtpiaemRkIAHbcCQPwu9JnXp40qIeIIAjMQ3UFmSYieC1iBADMPJ4Wea+D9jsPpZ1NPrcXig1hIB9ZtCh1mregqiW0A1BBOp09VgSPNHKBU3GRjYCZ937ta5ceOdVxixalljBRMP6aOhARyBW+X1eQNrFoUe/fsaf5WyJC6EZ/tcODREa9NAaAmR73FavlPDxAl5e3csDpSse+rzfxluKvZf03N2aGdfa5ugNNg7POa7lnKo7qDZT//2033/YEM3/H1+/GFgIXhhjbPHaj58CqybQDUIV0fuRoAdlGdQHGa9o7iw0bVk853BBuHp3LpaQnUmOHhKSUe44AUEdT6543Srhp40G+JjudCA474agdJuRhIi/V5wiAFXmq7kBtwqGc2ZBqfuIUKaZFto4q5uRnEebynEHNCBAChAEEO1z74Z2nBEZAeaEeAA62et+G0tkPOCcP++icbWkLAAQsbq9UPHqft8Cq6bQDUKXOzsgZXGFq2Icg4DdN9W9kOO785f+dPYhf4zEZzJr/vvq/d5jUxjnnLWMUUf3z5u1jGgV8pkBEEBFEIkHFinwi8nqPRYDAnfyYl2BVCiKRo/2tASjum4h0dt677b88unrNGcbrtas4TuNEICT9iUT3ez0GV000iy4+jbV8IHO3FXyykdkCBUBYKOw51b87Rwd7a4yASND8zIeNIE5O9jECUJqTH6h8nL/uk8cEhi3HxClfuRGslYpTAGL9raBzTrD7/N2f9RWvujZ9Zq8UEDOWL1++3ff3pSee+FNo3Td9pcuWCeM7Yi0YdM1+++23j5fgqqm0AzANmUzuaw7irfLcZGSHz+bySl/tEIDQbp7x4wCnnHJKDwfmFT5+ECIgYiIVt0b6/PzFVyL7WaI4kC2FdHrokYrHsvT5mvohyEu333570zoA/f0LP+yzA0AArLVT5q/IZPMfg4jHQkfFW4eIQJzDIQcftMxfbNUs2gGYpv33P/DvhBv35LzDD8TZA8t9b6o1EVBpjtYJQMQzfg3Ahg0vf7CeC+lWiynZoHPX3SoubPI1bCsAAgqmXPQ540woUFXrIlUiggOtrWZe3zlYGc8bUPuaGBDBEr9cU4AajW3eNMY+nyOK2UF3uHZll90XvJO87GgSbNl7QRAnMCTH9iXjV3oIrppIOwDT9Itf/OIxAS1rSL0AEVS4lc0TkZoXWAEYv66KCAqCt9QeqD2Ic2/zUU619AT14p133vlg/WdVPSfuoGa21ygLU/G3sqdqgCBaX+mwz4mAmQ6ptzNW/F0iCPBAXYGmSYDTvK7DEYDMjjsxd921bBBM1/pJd7D1yTtr4Zz9WFdX10IPwVWTaAegBsbgO14udpPGnjoHsTFmX59tORs2P3m7R8lk/FIS6ax3RWMxHSzBGNPUDGelm5fXz7RVwjD08mUiZsDJqkrHfYGqTxdcsU0AgTHNnYoR6fC5Erd0ORqpdFw6nX+vMD/TiAcYcQ6dAf3Ue2DVMNoBqMHQUPbHAtjKR04TEZjp0an+2dsOAAAQgQiqrkDYjsjZS3xtpWImMPPPq2rX48WTiff5SZtXg6sGk3mdj++nOAcTCTorHZdIxN7mYyqm2PkDnLjb6g42HcTH+f7UCZW3TgJA55yON3AQqXkr8VREBBDZNxnrud1rYNUwM7IDsLC3913JZPz6Vp4DCf7i7dendCUgIjhHKyY7pC+V+OyWC179LQuAwATH1h2oRRYmej4Mkf18VYJzTl4eGMpWVRlRhLylhhQRfD0araoSZDsT5zp8xCFmyFjhZxUPdHTEVq+r8Wm6PIoQBJF5NQWolcgefpcAMCC2qk7M8uWDmdC667lBVU+Z5My+VPSjDQmuvJpRHYDje3pe3RvvHgzHNl5P4ejbWnkuAnnS1zAawxWrbYGw6667Tjr/KeHYJhJBnSsAtlo8KDZEf2/yi3WEa5nQuc+Lh1XU5aRIjiNVPf0DgIMM+3p4EnEQljf4idY6DuJlMaMA4DmdcysdR4xXeaiIUVoBQBgYGGpabvtlIiCxu/gc0RNicGRu1Z2YXC7/HifyPNWdU3Sb8xApVQ20V2DBAq0a2OZmRAfgtNNOOzGVjN23W0CPWOtSxeRfJkilYpe17qxkh/nip4sIgMiaO+6448nJ/53P8ToFgOI+5NHR0XO8Bm2CWKz7KoD28vVuMDP23nvvL1R9PFHBW/VBERgg+bllM3wagPA3vnIADAykr6p0nBM5zNcUOjexMv4zigAAHVtJREFU9DcAfKov3kPsN6GIczYcGBiY3vy7lbOJTUNyghGRiR/1qvsaEFp51PYdgFQy+r2X17z4gIRhvw23JBpzIrBh+PpWnReT6fNeJZBw/1T/FFo31oh1h2z4xP7+04+ofGR7WJRKLTVEH/Tx9A+U5vPFDd92221V75FmMlkvjZeJ4Fef7Lnaa8wmE5G6t5QWy1xX+SUX7FZve0Cp9kNYaGoGwAj4YIjfJ2/Q9KelsiMjWUd8HZWmAnwWDIITkOCEZDw2K0pdz1Zt2gEQ9KYS1yajXSKhvQDObpU3W4p7hREQR7u7u1tSkcqKnznPsmIWOp4y+QkzndSItWLiHEZHV1d84moHy0QwFo7ePHG/eb2YCIGJ/HBaL5LwGV8LAUuJb2CILvQSsAVO6uvbJzCm7uFeJoJY92R1R8txPqYAAICICl4CVck5WeLzd5mIwKCaKhlmsvkLHOiZBuwJAJyFc/bj/f39i72HV160XQcgFeu5LN7T/bKEhfeISGmr1DZ9UwFIHJxz6Ajoa80+x1P6+3sC5v19xStufSZEIsGUi3icc7s0IgOhFIegT+3vjfV4D+7ZP/Z03U8inb4unsXKf/bZFensN6fzusHcqq/5SqsKUDGZnQj1JWM/8RS0qfaZO3d3LyMyxRzL66o6VJynPawCB/qDl1BVCsOwUHz89/f7bCE1JzLq6JzzRg7KZYP9YghGN67/seewypO26QDE4/FLE9HulwH3ZUOyy8TsbtvW+y4vXCltOzkhlWpuXeoNG+vLPrc9gnNu/cqVQ5N2APr7+xPM3OF9yqHEWYvNY4WbGxLck95Ez2+CgE/y+R4UO12Ry2t5rbPuaa8pgcXBWfum/v7Ucd6CenbMMYlJ61S8vHbNBb72tBNTxVTMi3t738xEgZf6DwCYjdf1PJUYptOL32OP32U2w7W+duXKlUNW3HWNWA/gnAMT9lmYjP0/z6GVBy3vAKRisYXJROxFhvsaxO3inEzv91oELhz9j4ad4KTo3c5nKU8CIoGZMvnJ6OhoQ1fTiggC5oOS8Z7vNbKdWiUTsQfEyfHWeux0EcER/3kgnf96LS8XcRWL1UyXcw5jGzdXLEbUCqlU/D277WrvnOzfODBeyvIQAQSpmI9/89jYRsBblwOBMTtMoeubczLqM16pG7q6nhiZ7MgFFljtO0EQEcE6B+fc65J9yQu8Bld1a1kHoL+/77xEvOdBkFsBG+4pdssCv+nd/wWG6FXJWNdX/Z/l9lKx7hzg2OdgGREDTDdN/e9ybKPXiFvrwMAFC5PRzze4qWlJxqMPwtkT/Y64AGADNpGay5hGgsh9DUqjuCAZ7WpuXfoKFi9MfdOIXEugSZ+UxTo/I3ACGA4er3icob8VT4voiAnhaOGXHkJVjY05yVcRIwAAAXM75uTrDtMx9w1BA6qdltJsQ0ZHv3X2qace5r0BVbNWdADmp5KJB0dHx26Gcyc4W1zgR3XscC/GwCdPWbjwLM/nupW+ePRTDES9/vICEJENKwdzU49iODnOd5uTsdZCBJ/rSyROaXhjFfSecsrfxGM9T8LZE7zXzCWCCIaGhoYmfaKtxspM7j8a8YmICJgolYp1t0UnIJFIXDU6NvZRGxbAsA9PdowV62URHTGDyCyvdJxzzufcC3aZN69i7YF2RsRYtmJF3dn3MgMDy5242xpV7ZSB+S+sXd3UzpbasaZ1AM4///y9k9Gu21OxrvUSjp2AsIDyTU3Gb/+1ffHKF+J1mzZUlcmtFqnYyR8Xcf8aOuctdUZ521MIc/0Oj3OFiolRfAnDEM4V7lqUjP9Ds9rcVm8y+g9u7Ut/YmcPEfG11rtMYIxBNpevOw2ypeBuacAWKlfc5ZBKxqMt6wS8/e1v3z8V6/6dcWMfFGsBYpAJJl0sFyFK1bo2o5yOlgAUBDBz5lQcjg8IMV8TABa05q4VK5q2CLC/f+EHuLSLxfm8/MrnvIQZyg6/zhGvbUQXwBWvd8ekErFpLbpVjdO0DsATf/zD0wDOFFde2e9X8ckJ+yRiPc/5jr0oGfs+wFdYj0+iIgJmBhvG7rsfusN5aGLj7YJXDeccrLPfSMS7v9O0RgEAglhP96/FyTdEnGlIghI2CK37ko9YQRB8m7zWdN2iOOUhqVgs+mijFn9OJRaLffmxRx9+QkSOcU4gEDARTMT9aopz9ZEBCICsvvfee/9a6VDn3Fwfvw4EgCBNffoPw8KW0RJPXx1n3ZOgqvNYVUTMH6KgMSXPnXVwIh9dvHhxf0MaUNPStA4AgXJAed9zg4iAxO0Tj3Y/t2hRamm94XoWLjwoFev+gw0L7/SVeKZsfJhNcMddd930Pzs6VpxrzG/jDlhrwYL3J2M9f4hGTzyp0e0l492fScV6xDBOd9Y2KjsZHPFD2fzIZ33EGxoa+plzUtoN4HFUuvzf1sKIOzIR6xldlEr8k7cGprCot/fv4j1dDwckl7G4OeXRFwLBieCAA1613eK1/t7eU8nDD1+c0+eqFscR0aFevh/FvANTJt9qBGfdYt8dOmIa8xkvk8ndGDq5DWzgf2NgMT/AhvXr/ttzYFWD5nUADC8vXiYbW4FWRMCQfUY3jd7W15e8ptY4vbHodZHRjX8SkSOcNOb5mwgYc4WKRTNMEBzYioJxzjlA3BEdHLm/N97zi9NPP73LdxvxaPSLiWjXSyT4onMO5SQ/jfiWCESy2fzxPmMa4h8XOwA+P6AJP71YsLiOMCz8cyLW81Rvb/KdHhsCAPT2Js6OxXpWhYXNNzDhqG2n9ItpCvDMjTfe+NJ2L3aFBT5WjhMRQFJVhkV/ORgAYxr0qDsFgezqMx4zQyAZnzEBIJcbfp0A63xXDAQAiCDCtH+sp6uttx7vDJrWAUins5fB+4VycqX8AAjHxt4bj3a/lIpHv3PmmYtfWel1/QtTb09Eu++N95xccGLfLcXtK3Dk/20iIoDN3fn8gxXTkPoefZiOYnEPC+fc69etfn4kGete3pvo+XA9MRcmYh9JxroHE7GoMMlnILK7tc5vKtJtsDHo7Oy4yHfcdDZ3MQDbiC5L+f0QAOIEcPZgF4bfT0S7/ieRiH35vNNPrzkZ1ZL+3sXJaM+/J6Pd61wY3sriTt6SeGvrNQ1UTNAz6dP5mN8FqhUD9fcmzvaZBjp07hdeglVJnDt4vP1a101M+K45AZiChvzidEQ6P2SCoCFTttZaGKbzent7/957cFW1Jg8ty71EvKQZc5oEKeajBnYXJ+9f++K696di3Wuc0P1CZJgIDgIRcQbuCOfkgMLoKDEEDthyISzmivd8boADyWGHvvKCocyOd+8kk/FLyc8i67qMvx8ii0RoUSLW/U0nyDDRAAfB2qGh9L9MdhPsXbz42HDj+jcYoiNDJ682YqNOXHEBqITjV3yirS9sHs8cZCKwwNVDA9nvNqABBIH5Shji0747ahPfj/LUmdgQBBwqIpc9/dKLl8WiPY8QcxaQx+fMmffA8uXLf7ltFICQSsU/ysSHucJol3PSNbp5dBciKY7y2C1HbttumSOe4ulcjizn6qzn8yMiiPAdlY4rFMKTfXUUBTKtCnp+2qRDpHQ9qfk9m/gcRQRLcqu3E5xg5eDgDdFoz7sixpzqfRsuig82Lhz9Rv+bPvT95TddNaN3YsxUTe0AhJa+Ggl4CSbs+W+W0hd4dxAtpuIAARjl4c3ir2EjvuSTEWNAgi/86Ec/qpiBTESonerEld8viLAhSgFISWEMqXj0n4Ge7Yq5yIZ1MCg+wRpsGVFoGg7gBMuzubz3p/+yFUO5zyRiPRcC2K9RbUwkAGBDEAhMOArOHQUiFDatR2+8B1sPyccg0gOEFlYK4ztPpvsZBIY7Jz8ZOcTLyh4RdM6JRCod5pyb72vdJRHhW/8+8I2ensZOS27VJjDH5zgoESHgyu9brfL54dPi0e5NBNRd7GlSIsHon3LLAEQbEl/tUFPzAORGRu601j3ZqH2mU9lqxKE0PYDycGeTJ9eFGAJ6JJMbrm7ZrpOeJm4AmBYRgTgHEYGzFs5a2DDc6o8rTaNMHF5uGmKA+cVsLv+aRjc1d07nP7DHuenqyPj7Wp6uspN9BtbCOTv+/k/3cyhlc7tl0jMgOgTwMAFChJUrBytm9CTmXh8LiYsdIUYzb/6pVOokZva6pdc551YODTU0174Q3luuXux7mk6cA4v09CViNaXkVvVpeiIgEwmubnYHYFtCtNWfZjKGkc3mj676BUR7N3MLYLUEtN37WM2fZikuKsOaTCa7dzPaW7Zi8Ccichc3aFvgtrZkztiSQKvi+1/HbdqYyX8w56Sj2J+o7+eutvMkhDletgASwTlbVeEhXyIR2sd3XguiBixQ2kYuN3KjiPs1e/79LV8PxFk4F16yaNGipNcGVEVN7wAMprNfAaT5cwATkMhWf5olCAIYwXum8xqGHN2KHQCVEGS797GaP005NyJY0EuZ3MgejdlPMLl0ftVpjswm3/nUJyPbdAGA7b/X2/2p8dYjIvj+YObGbf/+nHPO2bXD8D7F86kNiwOIMObk6WqOJycn19rWxE9FmOCAP9cYqiZ2bOwcmlDKut41L6XdJxUXEfuQzo2c6SDrfO54KV8PpFQRs7B5ve4KaLKW1AJgMp82xrSi6ZYhJliRb6/M5q+fzuucc5NWYFOTIyII8ZpcfqQl75vAneYE0oxOQLMQEV5FtN0ugCAM9/S48PHF6g6TuheQEAgQQESeqjfWdBTG7CbfMQl4wXfMqXRGOj9NDckNUF6HRfvFY7EbvAdXU2pJB2Agm/9qKPgTEW23aGxWMgw2kbvS2eEPTudlZ5xxxglE1NnEh9gZaasdG2xeyuSGG1o9cUey2ZEBY8yXUS6t2o7DN9NAAMTJk5P923Orn7uw3nUdUmoj4MoV+fqX9J9NRHUveCv3zwj0x3pjTUdgzKnekwAZ4z3z6VSWD2X+XcArGtW5FefALH/Xl9Sqgc3SsmqAoZULyZjmLwxrsuJcND08mM5Ou2LaunWr9ytegWf3e1QvIoIxBo6DB/4lk2v5iEk6m/+sCcxPDRvM+JGA4p1y0qdzEhqt95tJpTasuN9WOnbDxg2hzweGIDAvewtWBSfO+Tx/IoIrhA94C1iFoWyuH6BCQ/IDAZAwRCHc3OTy7juvlnUARkZG7hLnftL8ldPNIaBixjLmhzOZ4WNqicFCR5A0an/87EFsIET3ZbO5kxe3yQ13cDDzJoByxDN/qouZJ83Pb4Ez649eWr9A9JdKR0bInFXPVt3xzooImA3AHc2dcyZ0+Xjg2TJ3DgQRrriV2LdIhD9E3Jgd5ASAQXMT8Z4HG9KA2kpL777p3MhbBFjTHpdsv8gYCPHD6WxtN38AEBtGxXMSotminH3fRCKAiXxxKJNf3Opz2tZQLh8XptxM7uRSMWHWpBdjJ1vm42vd4SHlNkykYmlmsW4+UPsM9HjlwWI5aHR2clN/uXxd58YXc7LBQDp/raewVVs5lL/GgR5ozPRtcWs2i5yQSMQua0ADaoKWX5lMx9jh3Nx03A1HJoB18p1MNl/zzR8AnN78p0TMEKJnbcDxdDrtpxZqA2Qy+TgFkTuZeYZO5Qg6OjqmOvFjvDzRAth1zpyK1yIhOb58TvUQAE7c2nvvXbmqrkDT0N+XOMN3TALw8Y9f3LRS4RNlsrmTpSGjWzSebMzZwpf7+hJaNbCBWt4BGBj47UuG+MNmBj8llQkRYAKwMf+Vzw9/oP6I5OXLXy49PBsQEYIgAMjclsmv2j+zMpNr9TlVMjiUOd0K/iXo6Cjn1Z8xiBgOwaRzsiJS93oLAuCsXX3PPfdUrMpHwF4++lClomQNy543mXCscICvWMVRE8Ba99SVV17pfWdBtdjwP1IQ8TpFWY4lIjAg2LHCdttPlT9tcVdYkc7+JxFdNJO3BhZvsLQmiHSeNziU+ZCPmAI/mQpNcbHlf8z0ThYzQwTPmyA4byibe12rz2c6svmRy2D4NURUMG2yTqFau3V0bPeUuWTJkhR7yAwjAMhwVTdjJ9jD2x50YLmXQNW2Z4KTfC14Lr/pxNThJWCNhoayXxVxw/B6XSmuAgBK1z/C38Tj8aYWbNqZtM0dYSA7fLUD/b0xpu0XTm+dfgWgIAJHdFs2P7LHwMCAty9rJNJxmKC+RYBEgBUZTedXfSS0wWIwbyAuL+5uZpqc2hCKuesdBygIvpYZXrXv8oH0jLwgDAxklg/lRjqEgxVkDHwmVfGpPEZBRHDi/nrbPfc8se0xo6Mb9xOZcDOq8eZWbAM7rohVEmFaAACuxssWjW8XBYSaWwfFOXuQr1hS+s1lpqrKJzfSQQcfdrqAPCZ2c6U/AARw1oLFvn5hKvERf22osrbpAABAOpu/KhJEPkDEMyI/ABEDxBsE8oZMdtj7E+l4wZYa34ry/YWApwAgO5K9L5Mb2UUQXC9EAJOPMi7ejXewiAATAQWRn+dyecrnRz7Z6nPzIZ3N9Xd0dH7WibxUzrHejoppayf/8ongEGBCUbo6vkcEjFU65owzznj1eNKh+gsPIMJmuN4o0yHAfj47e0QEZ23F963RbrrpptVE+EyjRm8JBHEWhbBw+ee+9a3dGtLITqytOgAAcN9g+jvBnPmHO+I/YPwpqd1QcesZ87WZ/MgumUz+575bWLSo70N1J1kpLxZms2Hi32dy+ffsf8AhxzhghYkEbfEeT/xZqVgwCWTMzzrmzDt+KJ19QwtPrSGWrxz8Unb4/j0FfKNjU9wy2mLl74GgmKCLgwjIBL+c7FhrrbfqbYEJhiods37dmrf4XETprG1aAh0AEJFX+V4D2tnZeZffiLXJZvP/GoLub+TQLYl03PnDH9zesAZ2Uq2/6kxixYoV/5PNDR9pgo4rpE1GA4ioOM/PBhIEPxnKjVA6m39vo9orFApeVvcSEcTa7RbK/fznP384m1vVz4E5kQhpZgYzN31KoPzZGmNgjAGIXjBB5NrM8P00lMm/cfny5Q81+ZSaKp3NvS2XGyYBX8/GtOQzKCsvFiVmkIms3H3PvY9Jp7MXTnYsEXbx8URLxYZfqnSctZb93GAEzIQD9z+gqdNIrhHJoa1d7ztkrbLZfBeIS5MTtdedmEoxVbD0LkxG/81r4J1cW3YAygYHhy7Ze9/5+xDTnczbdwQm+4XatkhKNX+mMr7XnBkC2UREPzro0jxlMvm3eP1BJ+GcPX7CD1UzAcAmmLKW98qV2d8M5ValOoPOI4j5BgG9zOxv5GWqOBPTQAuxtc7dZsPwbZn8qn1WprMN61i1q0wu/57BTJ4g+Edi/nNgDJh3nCp72p/QZI+gxUyVCCIRGGOeNCb4Ujo3QkOZ7KLbb7/94SljOUmVP0MmQnnajqf5h0yAAw/Y946Kpw46i6iYXIuIp90Ol17LHIBNgB/fcsuT0337arVwyZKuSKRjj1ren0n/MAPEuO/UM37UrJ+hGiLyfziIgEojWl5+1gl/AMA594ne3liixT/qrNH6R+sqvelNbzrg6f998gpxci4gHSJbVshPvKzVsmBufNFT+f8zwxFDRMQQDYu4K9O5kf+u80eYlng8ejdZ+9pyl6a2hYACYwxsZO5rMgMDVa967u1NvMuNjZ1OxGcKZPdiqNK7PMl7vuNTkHJpXgDFmw2Y4Kz9i2EzHATBD1YMZrQK2DbOOmvJAWtf2vCZQiE8nSCHMBGVp0mKT0NF1X4OxY9gy3MZM8NZu1mMeSgSRJatHExPa33F60577bkmEqwvjIXHiEhNDxIiQvMW7H/LzTffuN0iw22dddZZxxUKm18N0HwiGArt7kRU9deQSDikyGORSOQ5Y+atvfXWmx6t5ZxrteS00xbNIbeHdfaVLFRzgg8iYQnmPFQoFObefffdt/g8Rx/OfP3rjxfn5qCw+UCx4WH1/KyTEZHIaIDbl92x7Hc+4+6sZkwHYJwI4onE60XsuxhYwkwLxMn4ljmaRr3tLU+gBAKBmOCcPCPO/Qpmzp0HXzL445ve3Jq3KB7rfohEjoXU3gEgAGwYCCJLBwczv6rlPJL9yaMw5s6TsHA0QD1s+GiAMLEDNmX7pSfYMLTPENE6iL0HJngoCDpzAwMDI7Wcz87oiis+PvcXNw2+yQFLrHVxEdnVBOYAcQInU38zyln2StNAmwX4H8D9tiPoeB7kblgxlE838+dQSrWXmdcBmEQqFf+otbabBHsRJAZQpxMLgFxggt2ltF/JWSsA1hGBADbiXJaZCmL4YaLIb4aGhq5r9c9SFo/1bCLn5tQ3AgAAGM0M3z/lFECtlongst7kxQAKADAxR3vAARnmTcsHBr7ru121tYWp1EesC2E4QMFtvRsrCILIwMDQFS06NaVUm5sVHYAdOf3002ObN69n55iPOOKIP1x33XUVy462moggHusuMBDUMwIAAMw8NpQb6fR8ikoppWa4Wd8BmIl64/FTBfZOZ23lg3egmHaWRjL5kR5Pp6aUUmqWaOtdADurIMJ7+9rzTEzrvARSSik1q2gHoA3ZQniKx6QnTa8XrpRSqv21bx7SnZgV8ZbiMwh4VifSUUopVRvtALQhgSzxMQJAROiIdD7t4ZSUUkrNMjoF0IZIxHnJxMeMe+5beUP9gZRSSs022gFoQ0R0lI/a4dbWuY1AKaXUrKVTAG3Ix9M/EQEiFVOsKqWU2jnpCECb6e9f+G4vOwBEQMQ6AqCUUmpSOgLQZgqjo3t46QAQASSD9QdSSik1G+kIQJshcUf6ygBgiCOeQimllJpltAPQZpxzR/iIQ0QQop/6iKWUUmr20Q5A+1ngIwgBYOe3FrdSSqnZQzsA7Yb4OB9bAJ2IrLjuurs8nJFSSqlZSDsAbUacrfkzkQnbBx2ZkI491ltKYaWUUrOLdgDayMJk9LXGmM564xARRNwffZyTUkqp2Um3AbYRZ+0GgYcUwAAAetZTIKWUUrOQjgC0EUfBu3zFYkN/9RVLKaXU7KMdgDbiYK1I7WMAE1/JbFb5OSullFKzkXYA2giBXwMA9ewCEBCICMz60SqllJqa3iXaiIgjEQFx7esAiIqLAAcGhv7N46kppZSaZbQD0FboGCIANQwAUOkPABh9+ldKKVWB7gJoI0T0LAlvAAmolpUARCCArRPdAaCUUkoppZRSSimllFJKKaWUUkoppZRSSimllFJKKaWUUkoppZRSSimllFJKKaWUUkoppZRSSimllFJKKaWUUkoppZRSSimllFJKKaWUUkoppZRSSimllFJKKaWUUkoppZRSSimllFJKKaWUUkoppZRSSimllFJKKaWUUkoppZRSSimllFJKKaWUUkoppZRSSimllFJKKaWUUkoppZRSSimllFJKKaWUUkoppZRSSimllFJKKaWUUkoppZRSSimllFJKKaWUUkoppZRSSimllFJKKaWUUkoppZRSSimllFJKKaWUUkoppZRSSimllFJKKaWUUkoppZRSSimllFJKKaWUUkoppZRSSimllFJKKaWUUkoppZRSSimllFJKKaWUUkoppZRSSimllFJKKaWUUkoppZRSSimllFJKKaWUUkoppZRSSimllFJKKaWUUkoppZRSSimllFJKKaWUUkoppZRSSimllFJKKaWUUkoppZRSSimllFJKKaWUUkoppZRSSimllFJKKaWUUkoppZRSSimllFJKKaWUUkoppZRSSimllFJKKaWUUkoppZRSSimllFJKKaWUUkoppZRSSimllFJKKaWUUkoppZRSSimllFJKKaWUUkoppZRSSimllFJKKaWUUkoppZRSSimllFJKKaWUUkoppZRSSimllFJKKaWUUkoppZRSSimllFJKKaWUUkoppZRSSimllFJKKaWUUkoppZRSSimllFJKKaWUUkoppZRSSimllFJKKaWUUkoppZRSSimllFJKKaWUUkoppZRSSimllFJKKaWUUkoppZRSSimllFJKKaWUUkoppZRSSimllFJKKaWUUkoppZRSSimllFJKKaWUUkoppZRSSimllFJKKaWUUkoppZRSSimllFJKKaWUUqom/x8IwlcOHlgR+QAAAABJRU5ErkJggg==;" vertex="1" parent="1">
                    <mxGeometry x="1170" y="476" width="212" height="212" as="geometry"/>
                </mxCell>
                <mxCell id="74" value="&lt;span style=&quot;color: rgb(0, 0, 0); font-family: Helvetica; font-size: 24px; font-style: normal; font-variant-ligatures: normal; font-variant-caps: normal; font-weight: 700; letter-spacing: normal; orphans: 2; text-align: center; text-indent: 0px; text-transform: none; widows: 2; word-spacing: 0px; -webkit-text-stroke-width: 0px; background-color: rgb(251, 251, 251); text-decoration-thickness: initial; text-decoration-style: initial; text-decoration-color: initial; float: none; display: inline !important;&quot;&gt;&amp;nbsp; &amp;nbsp;Microservice: m02&lt;/span&gt;" style="text;whiteSpace=wrap;html=1;" vertex="1" parent="1">
                    <mxGeometry x="1077" y="480" width="260" height="50" as="geometry"/>
                </mxCell>
                <mxCell id="75" value="&lt;span style=&quot;color: rgb(0, 0, 0); font-family: Helvetica; font-size: 24px; font-style: normal; font-variant-ligatures: normal; font-variant-caps: normal; font-weight: 700; letter-spacing: normal; orphans: 2; text-align: center; text-indent: 0px; text-transform: none; widows: 2; word-spacing: 0px; -webkit-text-stroke-width: 0px; background-color: rgb(251, 251, 251); text-decoration-thickness: initial; text-decoration-style: initial; text-decoration-color: initial; float: none; display: inline !important;&quot;&gt;&amp;nbsp; &amp;nbsp;Microservice: m03&lt;/span&gt;" style="text;whiteSpace=wrap;html=1;" vertex="1" parent="1">
                    <mxGeometry x="1860" y="370" width="260" height="50" as="geometry"/>
                </mxCell>
                <mxCell id="76" value="" style="shape=flexArrow;endArrow=classic;html=1;entryX=0;entryY=0.5;entryDx=0;entryDy=0;entryPerimeter=0;exitX=1;exitY=0.25;exitDx=0;exitDy=0;strokeWidth=2;fillColor=#eeeeee;strokeColor=#36393d;gradientDirection=south;" edge="1" parent="1" source="19" target="18">
                    <mxGeometry width="50" height="50" relative="1" as="geometry">
                        <mxPoint x="520" y="340" as="sourcePoint"/>
                        <mxPoint x="570" y="290" as="targetPoint"/>
                    </mxGeometry>
                </mxCell>
                <mxCell id="93" value="" style="rounded=1;whiteSpace=wrap;html=1;strokeWidth=2;fillWeight=4;hachureGap=8;hachureAngle=45;fillColor=#CCCCCC;sketch=1;fontFamily=Helvetica;fontSize=11;fontColor=default;" vertex="1" parent="1">
                    <mxGeometry x="1180" y="545" width="220" height="95" as="geometry"/>
                </mxCell>
                <mxCell id="94" value="" style="rounded=1;whiteSpace=wrap;html=1;strokeWidth=2;fillWeight=4;hachureGap=8;hachureAngle=45;fillColor=#CCCCCC;sketch=1;fontFamily=Helvetica;fontSize=11;fontColor=default;" vertex="1" parent="1">
                    <mxGeometry x="2050" y="430" width="150" height="140" as="geometry"/>
                </mxCell>
                <mxCell id="95" value="" style="shape=flexArrow;endArrow=classic;html=1;strokeWidth=2;fillColor=#eeeeee;strokeColor=#36393d;gradientDirection=south;" edge="1" parent="1">
                    <mxGeometry width="50" height="50" relative="1" as="geometry">
                        <mxPoint x="810" y="420" as="sourcePoint"/>
                        <mxPoint x="950" y="420" as="targetPoint"/>
                    </mxGeometry>
                </mxCell>
                <mxCell id="96" value="" style="shape=flexArrow;endArrow=classic;html=1;strokeWidth=2;fillColor=#eeeeee;strokeColor=#36393d;gradientDirection=south;entryX=-0.025;entryY=0.416;entryDx=0;entryDy=0;entryPerimeter=0;" edge="1" parent="1" target="41">
                    <mxGeometry width="50" height="50" relative="1" as="geometry">
                        <mxPoint x="1020" y="419.17" as="sourcePoint"/>
                        <mxPoint x="1160" y="419.17" as="targetPoint"/>
                    </mxGeometry>
                </mxCell>
                <mxCell id="97" value="" style="shape=flexArrow;endArrow=block;html=1;strokeWidth=2;fillColor=#eeeeee;strokeColor=#36393d;gradientDirection=south;entryX=-0.025;entryY=0.416;entryDx=0;entryDy=0;entryPerimeter=0;startArrow=block;" edge="1" parent="1">
                    <mxGeometry width="50" height="50" relative="1" as="geometry">
                        <mxPoint x="1620" y="420" as="sourcePoint"/>
                        <mxPoint x="1760.0049999999999" y="420.93423999999993" as="targetPoint"/>
                    </mxGeometry>
                </mxCell>
            </root>
        </mxGraphModel>
    </diagram>
</mxfile>